<svg width="1568" height="1569" xmlns="http://www.w3.org/2000/svg" xmlns:xlink="http://www.w3.org/1999/xlink" xml:space="preserve" overflow="hidden"><g transform="translate(-863 -543)"><path d="M1665.41 1480.72 1648.22 1511.32C1620.02 1567.34 1604.13 1630.66 1604.13 1697.69 1604.13 1764.73 1620.02 1828.05 1648.22 1884.07L1665.68 1915.14 1647 1915.97C1606.22 1915.97 1566.41 1911.83 1527.96 1903.94L1502.86 1897.48 1471.35 1889.36 1417.08 1869.45 1395.8 1859.18 1365.45 1844.53 1316.75 1814.88C1285.32 1793.6 1256.05 1769.38 1229.33 1742.6L1220.41 1732.76 1650.03 1495.43ZM2017.56 1344.17 2017.56 1697.69 2370.34 1697.69 2370.34 1697.69C2370.34 1892.94 2212.4 2051.21 2017.56 2051.21L2017.56 2051.21 2017.56 1697.69 1664.79 1697.69C1664.79 1514.65 1803.6 1364.1 1981.49 1346ZM2150.81 1016.22 2166.38 1041.91 2188.57 1088.06 2192.9 1098.14 2210.21 1145.53 2212.56 1153.64 2224.2 1199.02 2226.08 1207.4 2233.87 1258.56 2234.95 1269.93 2237.67 1324.05 2236.56 1346.24 2236.19 1345.99C2172.77 1306.31 2097.84 1283.39 2017.56 1283.39L2017.56 1283.39 1975.29 1285.53C1923.17 1290.83 1873.92 1305.84 1829.35 1328.71L1816.69 1335.95ZM1647 732.134 1701.01 734.867 1712.35 735.948 1763.41 743.757 1771.77 745.635 1817.05 757.302 1825.15 759.66 1872.44 777.005 1882.5 781.342 1928.55 803.575 1937.05 808.75 1451.07 1315.99 1207.21 1718.21 1191.2 1700.56 1191.2 1700.56 1159.17 1657.64 1149.84 1642.85 1131 1611.78 1121.43 1593.33 1106.92 1563.14 1098.52 1542.88 1087.17 1511.82 1080.48 1490.7 1072 1457.66 1067.32 1436.74 1061.64 1399.42 1059.2 1381.12 1056.33 1324.05C1056.33 997.143 1320.77 732.134 1647 732.134ZM1647 543C2080 543 2431 894.233 2431 1327.5 2431 1395.2 2422.43 1460.89 2406.32 1523.56L2400.95 1542.47 2385.77 1509.08C2362.94 1464.42 2332.26 1424.45 2295.55 1391.02L2294.52 1390.16 2297.85 1324.05 2297.85 1324.05C2297.85 963.84 2006.45 671.833 1647 671.833 1287.55 671.833 996.154 963.84 996.154 1324.05L996.154 1324.05C996.154 1684.25 1287.55 1976.27 1647 1976.27 1665.25 1976.27 1683.33 1975.51 1701.2 1974.04L1708.9 1973.08 1711.53 1976.26C1744.9 2013.05 1784.78 2043.8 1829.35 2066.68L1862.69 2081.9 1861.63 2082.24C1793.42 2101.62 1721.42 2112 1647 2112 1214 2112 863 1760.77 863 1327.5 863 894.233 1214 543 1647 543Z" fill="#FFFFFF" fill-rule="evenodd"/></g></svg>