<svg width="821" height="827" xmlns="http://www.w3.org/2000/svg" xmlns:xlink="http://www.w3.org/1999/xlink" xml:space="preserve" overflow="hidden"><defs><filter id="fx0" x="-10%" y="-10%" width="120%" height="120%" filterUnits="userSpaceOnUse" primitiveUnits="userSpaceOnUse"><feComponentTransfer color-interpolation-filters="sRGB"><feFuncR type="discrete" tableValues="0 0"/><feFuncG type="discrete" tableValues="0 0"/><feFuncB type="discrete" tableValues="0 0"/><feFuncA type="linear" slope="0.4" intercept="0"/></feComponentTransfer><feGaussianBlur stdDeviation="6.11111 6.11111"/></filter><clipPath id="clip1"><rect x="1820" y="523" width="821" height="827"/></clipPath></defs><g clip-path="url(#clip1)" transform="translate(-1820 -523)"><path d="M1931.65 633.646 1931.65 1232.35 2530.35 1232.35 2530.35 633.646ZM1879 581 2583 581 2583 1285 1879 1285Z" fill="#C9892A" fill-rule="evenodd"/><path d="M2468 1255.5C2468 1207.73 2506.73 1169 2554.5 1169 2602.27 1169 2641 1207.73 2641 1255.5 2641 1303.27 2602.27 1342 2554.5 1342 2506.73 1342 2468 1303.27 2468 1255.5Z" fill="#004B8D" fill-rule="evenodd"/><path d="M2527 1256C2527 1240.54 2539.54 1228 2555 1228 2570.46 1228 2583 1240.54 2583 1256 2583 1271.46 2570.46 1284 2555 1284 2539.54 1284 2527 1271.46 2527 1256Z" fill="#C9892A" fill-rule="evenodd"/><path d="M1820 1255.5C1820 1207.73 1858.73 1169 1906.5 1169 1954.27 1169 1993 1207.73 1993 1255.5 1993 1303.27 1954.27 1342 1906.5 1342 1858.73 1342 1820 1303.27 1820 1255.5Z" fill="#004B8D" fill-rule="evenodd"/><path d="M1879 1256C1879 1240.54 1891.54 1228 1907 1228 1922.46 1228 1935 1240.54 1935 1256 1935 1271.46 1922.46 1284 1907 1284 1891.54 1284 1879 1271.46 1879 1256Z" fill="#C9892A" fill-rule="evenodd"/><path d="M2468 609.5C2468 561.727 2506.73 523 2554.5 523 2602.27 523 2641 561.727 2641 609.5 2641 657.273 2602.27 696 2554.5 696 2506.73 696 2468 657.273 2468 609.5Z" fill="#004B8D" fill-rule="evenodd"/><path d="M2527 610C2527 594.536 2539.54 582 2555 582 2570.46 582 2583 594.536 2583 610 2583 625.464 2570.46 638 2555 638 2539.54 638 2527 625.464 2527 610Z" fill="#C9892A" fill-rule="evenodd"/><path d="M1820 609.5C1820 561.727 1858.73 523 1906.5 523 1954.27 523 1993 561.727 1993 609.5 1993 657.273 1954.27 696 1906.5 696 1858.73 696 1820 657.273 1820 609.5Z" fill="#004B8D" fill-rule="evenodd"/><path d="M1879 610C1879 594.536 1891.54 582 1907 582 1922.46 582 1935 594.536 1935 610 1935 625.464 1922.46 638 1907 638 1891.54 638 1879 625.464 1879 610Z" fill="#C9892A" fill-rule="evenodd"/><path d="M2127.55 725C2136.39 725 2144.98 725.823 2153.3 727.47 2161.63 729.116 2169.29 731.277 2176.28 733.952 2183.28 736.628 2189.5 739.715 2194.95 743.214 2200.39 746.712 2204.35 749.696 2206.82 752.166 2209.29 754.635 2210.98 756.591 2211.91 758.031 2212.84 759.472 2213.61 761.17 2214.22 763.125 2214.84 765.08 2215.25 767.292 2215.46 769.762 2215.66 772.232 2215.77 775.319 2215.77 779.023 2215.77 787.049 2214.84 792.657 2212.99 795.847 2211.14 799.037 2208.88 800.633 2206.2 800.633L2199.61 797.477 2199.42 797.545C2197.16 797.545 2193.61 796.105 2188.78 793.223 2183.94 790.342 2178.03 787.101 2171.04 783.499 2164.05 779.898 2155.77 776.605 2146.21 773.621L2114.34 769.196 2112.28 769.406 2108.95 769.922 2094.51 774.972C2085.12 779.679 2077.17 786.741 2070.64 796.156 2064.11 805.572 2059.21 817.11 2055.95 830.77L2053.31 846.615 2052.28 852.852C2051.46 860.743 2051.05 869.165 2051.05 878.117 2051.05 896.022 2052.75 911.714 2056.14 925.195L2056.8 927.133 2062.43 943.755C2064.92 949.389 2067.81 954.47 2071.1 958.998 2077.68 968.053 2085.75 974.793 2095.32 979.218 2104.88 983.643 2115.83 985.855 2128.17 985.855 2134.03 985.855 2139.53 985.392 2144.67 984.466L2154.13 981.716 2159.01 980.298C2167.85 976.594 2175.51 972.529 2181.99 968.104 2188.47 963.68 2193.92 959.667 2198.34 956.065L2205.5 952.321 2208.67 950.663C2210.11 950.663 2211.34 951.074 2212.37 951.898 2213.4 952.721 2214.27 954.11 2214.99 956.065 2215.71 958.02 2216.23 960.49 2216.54 963.474L2216.77 968.817 2217 974.124C2217 977.623 2216.9 980.658 2216.69 983.231 2216.49 985.804 2216.13 987.964 2215.61 989.714 2215.1 991.463 2214.48 993.007 2213.76 994.344 2213.04 995.682 2211.4 997.637 2208.83 1000.21 2206.26 1002.78 2201.89 1005.97 2195.72 1009.78 2189.55 1013.59 2182.61 1016.98 2174.9 1019.97L2174.25 1020.15 2149.76 1027.22C2140.71 1029.07 2131.35 1030 2121.69 1030 2101.74 1030 2084.06 1026.71 2068.64 1020.12 2053.21 1013.54 2040.31 1003.91 2029.92 991.258 2019.54 978.6 2011.62 963.062 2006.17 944.643 2000.72 926.224 1998 904.974 1998 880.896L1999.3 861.153 2000.51 842.732C2002.18 830.976 2004.68 820.184 2008.02 810.357 2014.71 790.703 2023.86 774.598 2035.48 762.044 2047.09 749.49 2060.77 740.178 2076.5 734.107 2084.37 731.071 2092.55 728.794 2101.06 727.277L2121.66 725.506Z" fill="#004B8D" fill-rule="evenodd"/><path d="M2217.48 969 2223.12 977.222C2228.37 988.823 2231 1002.53 2231 1018.34 2231 1037.03 2227.55 1053.66 2220.65 1068.24 2213.74 1082.82 2204.16 1095.19 2191.91 1105.35 2179.65 1115.52 2165.22 1123.17 2148.64 1128.3 2132.05 1133.43 2114.18 1136 2095.02 1136 2081.63 1136 2069.21 1134.87 2057.78 1132.61 2046.35 1130.35 2036.15 1127.58 2027.18 1124.3 2018.22 1121.01 2010.7 1117.62 2004.62 1114.13 1998.55 1110.64 1994.32 1107.66 1991.95 1105.2 1989.58 1102.73 1987.83 1099.6 1986.7 1095.8 1985.57 1092.01 1985 1086.92 1985 1080.56 1985 1076.04 1985.21 1072.29 1985.62 1069.32 1986.03 1066.34 1986.65 1063.93 1987.47 1062.08 1988.3 1060.23 1989.33 1058.95 1990.56 1058.23 1991.8 1057.51 1993.24 1057.15 1994.89 1057.15 1997.77 1057.15 2001.84 1058.9 2007.1 1062.39 2012.35 1065.88 2019.1 1069.68 2027.34 1073.78 2035.58 1077.89 2045.52 1081.74 2057.16 1085.33 2068.8 1088.93 2082.25 1090.72 2097.49 1090.72 2109.03 1090.72 2119.59 1089.18 2129.17 1086.1 2138.75 1083.02 2146.99 1078.66 2153.89 1073.01 2160.8 1067.37 2166.1 1060.44 2169.81 1052.22 2173.52 1044.01 2175.37 1034.67 2175.37 1024.19L2174.88 1020.22 2175.53 1020.03C2183.25 1017.06 2190.21 1013.67 2196.39 1009.87 2202.57 1006.07 2206.95 1002.89 2209.52 1000.32 2212.1 997.755 2213.74 995.805 2214.47 994.47 2215.19 993.135 2215.8 991.595 2216.32 989.85 2216.83 988.104 2217.2 985.948 2217.4 983.382 2217.61 980.815 2217.71 977.786 2217.71 974.296L2217.48 969Z" fill="#C9892A" fill-rule="evenodd"/><path d="M2327.01 1036 2380 1036 2343.74 1136.77C2342.51 1140.08 2339.38 1142.61 2334.36 1144.36 2329.33 1146.12 2321.69 1147 2311.43 1147 2306.1 1147 2301.79 1146.74 2298.51 1146.23 2295.22 1145.71 2292.71 1144.83 2290.97 1143.59 2289.22 1142.35 2288.25 1140.7 2288.04 1138.63 2287.84 1136.56 2288.35 1134.08 2289.58 1131.19L2327.01 1036Z" fill="#004B8D" fill-rule="evenodd"/><path d="M2242.33 739C2248.5 739 2253.34 739.154 2256.84 739.463 2260.34 739.772 2263.12 740.338 2265.18 741.161 2267.24 741.984 2268.73 743.168 2269.66 744.712 2270.59 746.255 2271.56 748.365 2272.59 751.041L2280.09 772.083 2294.52 812.61 2351.97 973.945 2352.9 973.945 2429.49 749.806C2430.73 745.895 2432.22 743.374 2433.97 742.242 2435.72 741.11 2438.35 740.287 2441.85 739.772 2445.35 739.257 2450.39 739 2456.98 739 2462.75 739 2467.48 739.257 2471.19 739.772 2474.9 740.287 2477.62 741.264 2479.37 742.705 2481.12 744.146 2482 746.101 2482 748.571 2482 751.041 2481.38 754.128 2480.15 757.833L2380.39 1034.15 2379.71 1036 2326.53 1036 2327.26 1034.15C2325.41 1033.32 2323.66 1031.99 2322.01 1030.13 2320.36 1028.28 2319.23 1026.33 2318.61 1024.27L2219.47 758.759C2217.82 754.437 2217 751.041 2217 748.571 2217 746.101 2217.82 744.146 2219.47 742.705 2221.12 741.264 2223.79 740.287 2227.5 739.772 2231.21 739.257 2236.15 739 2242.33 739Z" fill="#C9892A" fill-rule="evenodd"/><path d="M2339.39 739C2342.07 739 2345.12 739.154 2348.53 739.463 2351.94 739.771 2355.51 740.336 2359.23 741.159 2362.95 741.981 2366.31 742.906 2369.3 743.934 2372.3 744.962 2374.42 745.99 2375.66 747.017 2376.9 748.045 2377.73 749.022 2378.14 749.947 2378.55 750.872 2378.91 752.053 2379.22 753.493 2379.53 754.932 2379.74 757.039 2379.84 759.814 2379.95 762.589 2380 766.341 2380 771.068 2380 775.591 2379.9 779.394 2379.69 782.478 2379.48 785.561 2379.07 787.977 2378.45 789.724 2377.83 791.471 2377.05 792.807 2376.12 793.732 2375.19 794.657 2373.9 795.12 2372.25 795.12 2370.6 795.12 2368.58 794.657 2366.2 793.732 2363.83 792.807 2361.14 791.882 2358.14 790.957 2355.15 790.032 2351.79 789.158 2348.07 788.336 2344.35 787.514 2340.32 787.103 2335.98 787.103 2330.81 787.103 2325.75 788.131 2320.79 790.186 2315.83 792.242 2310.61 795.634 2305.13 800.362L2294.49 812 2280 771.523 2284.67 766.135C2291.39 759.146 2297.74 753.647 2303.74 749.638 2309.73 745.63 2315.67 742.854 2321.56 741.313 2327.45 739.771 2333.39 739 2339.39 739Z" fill="#004B8D" fill-rule="evenodd"/><g filter="url(#fx0)" transform="translate(2348 747)"><g><path d="M192.157 145.177C192.969 142.659 191.586 139.96 189.068 139.148L170.833 133.267C168.315 132.455 165.616 133.838 164.804 136.356L136.443 224.298C135.631 226.815 137.014 229.515 139.531 230.327L157.767 236.208C160.284 237.02 162.984 235.637 163.796 233.119ZM224.005 123.748 92.489 531.553C91.4203 534.867 89.1096 537.434 86.2376 538.905L86.0513 538.92 35.7584 584.223 21.409 518.073 21.2668 517.952C19.7955 515.08 19.4198 511.647 20.4886 508.333L152.005 100.528ZM247.289 51.5494 229.697 106.101 157.696 82.8811 175.289 28.3293C177.426 21.7017 184.532 18.0617 191.159 20.1991L239.159 35.679C245.787 37.8164 249.427 44.9217 247.289 51.5494Z" fill="#004B8D" fill-rule="evenodd"/></g></g><path d="M2530.43 882.454C2531.25 879.937 2529.86 877.237 2527.35 876.425L2509.11 870.544C2506.59 869.732 2503.89 871.115 2503.08 873.633L2474.72 961.575C2473.91 964.093 2475.29 966.792 2477.81 967.604L2496.04 973.485C2498.56 974.297 2501.26 972.914 2502.07 970.396ZM2562.28 861.026 2430.77 1268.83C2429.7 1272.14 2427.39 1274.71 2424.51 1276.18L2424.33 1276.2 2374.04 1321.5 2359.69 1255.35 2359.54 1255.23C2358.07 1252.36 2357.7 1248.92 2358.77 1245.61L2490.28 837.806ZM2585.57 788.827 2567.97 843.378 2495.97 820.158 2513.57 765.607C2515.7 758.979 2522.81 755.339 2529.44 757.476L2577.44 772.956C2584.06 775.094 2587.7 782.199 2585.57 788.827Z" fill="#004B8D" fill-rule="evenodd"/></g></svg>