<svg width="1905" height="1691" xmlns="http://www.w3.org/2000/svg" xmlns:xlink="http://www.w3.org/1999/xlink" xml:space="preserve" overflow="hidden"><g transform="translate(-1464 -489)"><path d="M1891.4 604.811C1917.88 604.811 1943.61 607.272 1968.53 612.197 1993.49 617.119 2016.43 623.581 2037.37 631.58 2058.34 639.581 2076.97 648.812 2093.29 659.274 2109.59 669.734 2121.45 678.657 2128.85 686.042 2136.25 693.425 2141.31 699.274 2144.1 703.58 2146.88 707.888 2149.19 712.966 2151.02 718.811 2152.87 724.657 2154.1 731.272 2154.73 738.657 2155.33 746.043 2155.66 755.273 2155.66 766.349 2155.66 790.348 2152.87 807.117 2147.33 816.655 2141.79 826.194 2135.02 830.966 2126.99 830.966L2107.25 821.529 2106.68 821.733C2099.91 821.733 2089.28 817.427 2074.81 808.81 2060.31 800.194 2042.61 790.504 2021.67 779.733 2000.73 768.966 1975.93 759.119 1947.3 750.196L1851.83 736.965 1845.66 737.593 1835.69 739.135 1792.43 754.236C1764.31 768.311 1740.49 789.427 1720.93 817.58 1701.37 845.735 1686.69 880.236 1676.93 921.081L1669.02 968.46 1665.93 987.11C1663.48 1010.71 1662.25 1035.89 1662.25 1062.66 1662.25 1116.2 1667.34 1163.12 1677.5 1203.43L1679.47 1209.22 1696.34 1258.92C1703.8 1275.77 1712.45 1290.96 1722.31 1304.5 1742.02 1331.58 1766.19 1351.73 1794.86 1364.97 1823.49 1378.2 1856.3 1384.81 1893.26 1384.81 1910.81 1384.81 1927.29 1383.43 1942.68 1380.66L1971.02 1372.43 1985.64 1368.19C2012.12 1357.12 2035.06 1344.96 2054.47 1331.73 2073.88 1318.5 2090.21 1306.5 2103.45 1295.73L2124.9 1284.54 2134.39 1279.58C2138.7 1279.58 2142.39 1280.81 2145.47 1283.27 2148.56 1285.73 2151.17 1289.89 2153.32 1295.73 2155.48 1301.58 2157.04 1308.97 2157.96 1317.89L2158.65 1333.86 2159.34 1349.73C2159.34 1360.2 2159.04 1369.27 2158.41 1376.96 2157.81 1384.66 2156.74 1391.12 2155.18 1396.35 2153.65 1401.58 2151.79 1406.2 2149.64 1410.19 2147.48 1414.2 2142.57 1420.04 2134.87 1427.73 2127.17 1435.42 2114.08 1444.96 2095.6 1456.35 2077.12 1467.74 2056.33 1477.88 2033.23 1486.82L2031.29 1487.36 1957.93 1508.5C1930.82 1514.03 1902.78 1516.81 1873.85 1516.81 1814.09 1516.81 1761.13 1506.97 1714.94 1487.27 1668.72 1467.59 1630.08 1438.8 1598.96 1400.97 1567.86 1363.12 1544.14 1316.66 1527.82 1261.58 1511.49 1206.5 1503.34 1142.96 1503.34 1070.97L1507.24 1011.93 1510.86 956.849C1515.86 921.697 1523.35 889.427 1533.36 860.043 1553.4 801.274 1580.8 753.118 1615.61 715.579 1650.39 678.04 1691.37 650.196 1738.48 632.043 1762.06 622.965 1786.56 616.156 1812.05 611.62L1873.76 606.324Z" fill="#004B8D" fill-rule="evenodd"/><path d="M2159.89 1334.81 2176.77 1359.43C2192.48 1394.16 2200.34 1435.2 2200.34 1482.54 2200.34 1538.49 2190.02 1588.28 2169.38 1631.94 2148.7 1675.59 2120.04 1712.63 2083.39 1743.04 2046.71 1773.49 2003.54 1796.4 1953.93 1811.76 1904.3 1827.12 1850.83 1834.81 1793.51 1834.81 1753.45 1834.81 1716.29 1831.43 1682.09 1824.66 1647.89 1817.9 1617.38 1809.6 1590.54 1799.78 1563.73 1789.93 1541.23 1779.78 1523.04 1769.33 1504.88 1758.88 1492.23 1749.96 1485.14 1742.6 1478.05 1735.2 1472.81 1725.83 1469.43 1714.45 1466.05 1703.1 1464.34 1687.87 1464.34 1668.82 1464.34 1655.29 1464.97 1644.06 1466.2 1635.17 1467.43 1626.25 1469.28 1619.03 1471.73 1613.49 1474.22 1607.95 1477.3 1604.12 1480.98 1601.97 1484.69 1599.81 1489 1598.73 1493.93 1598.73 1502.55 1598.73 1514.73 1603.97 1530.46 1614.42 1546.17 1624.87 1566.37 1636.25 1591.02 1648.52 1615.67 1660.83 1645.41 1672.36 1680.24 1683.1 1715.06 1693.88 1755.3 1699.24 1800.9 1699.24 1835.43 1699.24 1867.02 1694.63 1895.68 1685.41 1924.34 1676.19 1949 1663.13 1969.64 1646.22 1990.31 1629.33 2006.17 1608.58 2017.27 1583.97 2028.37 1559.39 2033.91 1531.43 2033.91 1500.05L2032.44 1488.16 2034.38 1487.6C2057.48 1478.7 2078.31 1468.55 2096.79 1457.18 2115.29 1445.8 2128.39 1436.28 2136.08 1428.58 2143.8 1420.9 2148.7 1415.07 2150.89 1411.07 2153.04 1407.07 2154.87 1402.46 2156.42 1397.24 2157.95 1392.01 2159.06 1385.55 2159.65 1377.87 2160.28 1370.19 2160.58 1361.12 2160.58 1350.67L2159.89 1334.81Z" fill="#C9892A" fill-rule="evenodd"/><path d="M2487.95 1534.81 2646.34 1534.81 2537.96 1836.21C2534.28 1846.11 2524.93 1853.68 2509.92 1858.92 2494.89 1864.18 2472.05 1866.81 2441.38 1866.81 2425.45 1866.81 2412.57 1866.03 2402.77 1864.51 2392.93 1862.95 2385.43 1860.32 2380.23 1856.61 2375 1852.9 2372.1 1847.97 2371.47 1841.78 2370.87 1835.59 2372.4 1828.17 2376.07 1819.52L2487.95 1534.81Z" fill="#004B8D" fill-rule="evenodd"/><path d="M2235.14 645.811C2253.61 645.811 2268.09 646.272 2278.56 647.197 2289.04 648.122 2297.36 649.816 2303.52 652.279 2309.68 654.743 2314.14 658.287 2316.93 662.908 2319.71 667.527 2322.61 673.843 2325.69 681.853L2348.14 744.837 2391.32 866.145 2563.23 1349.06 2566.02 1349.06 2795.21 678.156C2798.92 666.45 2803.38 658.904 2808.62 655.515 2813.85 652.127 2821.72 649.664 2832.2 648.122 2842.67 646.58 2857.75 645.811 2877.47 645.811 2894.74 645.811 2908.89 646.58 2920 648.122 2931.1 649.664 2939.24 652.588 2944.47 656.901 2949.71 661.214 2952.34 667.066 2952.34 674.46 2952.34 681.853 2950.49 691.093 2946.81 702.183L2648.28 1529.27 2646.25 1534.81 2487.11 1534.81 2489.29 1529.27C2483.76 1526.79 2478.52 1522.81 2473.58 1517.24 2468.64 1511.7 2465.26 1505.87 2463.41 1499.7L2166.73 704.955C2161.8 692.018 2159.34 681.853 2159.34 674.46 2159.34 667.066 2161.8 661.214 2166.73 656.901 2171.67 652.588 2179.66 649.664 2190.76 648.122 2201.87 646.58 2216.65 645.811 2235.14 645.811Z" fill="#C9892A" fill-rule="evenodd"/><path d="M2524.92 645.811C2532.93 645.811 2542.05 646.273 2552.25 647.2 2562.44 648.124 2573.12 649.819 2584.24 652.288 2595.36 654.754 2605.41 657.529 2614.35 660.613 2623.32 663.696 2629.66 666.781 2633.37 669.862 2637.07 672.946 2639.56 675.876 2640.78 678.652 2642.01 681.427 2643.08 684.969 2644.01 689.29 2644.94 693.607 2645.57 699.928 2645.87 708.253 2646.19 716.578 2646.34 727.834 2646.34 742.015 2646.34 755.584 2646.04 766.993 2645.42 776.245 2644.79 785.494 2643.56 792.742 2641.71 797.983 2639.86 803.224 2637.52 807.232 2634.74 810.007 2631.96 812.782 2628.1 814.171 2623.17 814.171 2618.24 814.171 2612.2 812.782 2605.08 810.007 2598 807.232 2589.95 804.457 2580.98 801.682 2572.04 798.907 2562 796.285 2550.87 793.819 2539.75 791.353 2527.7 790.12 2514.72 790.12 2499.27 790.12 2484.14 793.204 2469.31 799.369 2454.48 805.537 2438.87 815.713 2422.48 829.897L2390.67 864.811 2347.34 743.38 2361.31 727.216C2381.4 706.249 2400.39 689.752 2418.33 677.725 2436.24 665.701 2454 657.373 2471.61 652.75 2489.22 648.124 2506.98 645.811 2524.92 645.811Z" fill="#004B8D" fill-rule="evenodd"/><path d="M3201.36 865.711C3203.82 858.178 3199.65 850.097 3192.13 847.666L3137.5 830.064C3129.95 827.633 3121.86 831.773 3119.44 839.31L3034.49 1102.53C3032.06 1110.06 3036.2 1118.14 3043.75 1120.57L3098.35 1138.17C3105.9 1140.61 3113.99 1136.47 3116.41 1128.93ZM3296.76 801.576 2902.85 2022.17C2899.64 2032.07 2892.72 2039.77 2884.1 2044.17L2883.56 2044.23 2732.92 2179.81 2689.94 1981.82 2689.49 1981.46C2685.09 1972.87 2683.98 1962.57 2687.18 1952.67L3081.1 732.076ZM3366.52 585.479 3313.8 748.754 3098.14 679.255 3150.86 515.979C3157.24 496.141 3178.53 485.246 3198.39 491.642L3342.17 537.975C3362 544.374 3372.9 565.64 3366.52 585.479Z" fill="#004B8D" fill-rule="evenodd"/></g></svg>