<?xml version="1.0" encoding="UTF-8"?><svg id="P_White" xmlns="http://www.w3.org/2000/svg" viewBox="0 0 841.89 595.28"><defs><style>.cls-1{fill:#fff;}.cls-2{fill:none;stroke:#fff;stroke-miterlimit:10;}</style></defs><g id="Crest"><path class="cls-1" d="m363.51,255.32s.1,4.87,4.45,7.34c6.6,3.78,10.74-1.09,10.74-1.09,0,0-.47,6.56,6.02,11.43,5.78,4.33,10.29,4.28,13.11,5.14,1.71.55,3.36,1.28,3.36,1.28,0,0-2.41-1-5.99-5.11-3.58-4.09-5.62-11.48-9.94-19.12-6.79-12.02-15.26-14.67-15.26-14.67,0,0,2.44,5.93-.13,10.84-3.48,6.6-6.36,3.95-6.36,3.95"/><path class="cls-1" d="m343.07,225.66c-1.25-5.85-.08-7.99-.08-7.99,0,0,5.44-4.01,12.8-.9,5.91,2.51,7.27,8.05,7.27,8.05,0,0,4.07-3.37,4.52-8.51.47-5.13-2.01-8.61-4.92-11.16-2.93-2.54-8.9-5.07-8.9-5.07,0,0,4.31-2.33,5.53-4.74.49-.95.78-1.88,1.07-2.82.44-1.44.84-2.86,1.8-4.27,1.54-2.32,5.36-4.46,5.36-4.46,0,0-6.04-2.46-12.19.2-6.17,2.66-7.72,5.25-14.6,8.03-.45.19-.88.35-1.3.5h-.02c-7.36,2.46-12.47.05-12.47.05,0,0,2.63,2.82,2.63,10.29s-.56,13.48,2.71,20.26c4.05,8.39,13.52,9.81,13.52,9.81,0,0-1.47-1.42-2.72-7.28"/><path class="cls-1" d="m350.98,245.67c6.76,2.9,9.41,11.99,9.41,11.99,0,0,.4-3.47,1.56-5.64,1.3-2.41,3.05-4.1,4.54-8.5,1.38-4.09.92-9.89-5.06-16.82-6-6.92-13.69-4.85-13.69-4.85,0,0,2.65,2.26,4.34,6.86,1.68,4.6,1.68,7.22,1.68,7.22,0,0-3.37-1.04-10,1.34-6.91,2.53-6.68,10.22-6.68,10.22,0,0,6.03-5.2,13.9-1.82"/><path class="cls-1" d="m331.11,106.59c1.59,4.54,1.83,7.52,1.94,10.05.07,1.94,1.11,3.56,1.11,3.56,0,0-6.42.72-8.44,3.96-3.23,5.27.2,10.55.2,10.55,0,0,.92-3.86,5.18-4.66,2.35-.45,6.51-.32,10.85,3.55,5.48,4.88,12.69,5.17,12.69,5.17,0,0-1.74-4.56-.42-9.33,1.31-4.76,2.76-6.39,5.79-11.18,3.06-4.74,2.74-6.58,2.43-9.83-.29-3.2-2.13-6.59-2.13-6.59,0,0-1.01,3.44-3.83,4.97-2.85,1.53-4.89,2.94-7.21,4.97-2.34,2.02-2.76,4.76-2.76,4.76,0,0-.61-6.19-3.64-9.84-3.05-3.64-6.85-7.49-10.44-8.42-5.49-1.41-7.72-.4-7.72-.4,0,0,4.25,2.64,6.39,8.71"/><path class="cls-1" d="m364.87,114.74s-2.52,4.35-2.82,7.59c-.32,3.25,0,7.2-.72,11.97-.71,4.77-5.07,7.51-5.07,7.51,0,0,7.42,2.12,11.57-4.56,3.16-5.09.62-11.26-1.32-14.41-1.92-3.15-1.63-8.1-1.63-8.1"/><path class="cls-1" d="m324.11,118.37c2.8-2.47,5.28-2.43,5.28-2.43,0,0-2.04-1.21-3.86-5.88-1.83-4.66-.61-8-.61-8,0,0-3.66,3.23-5.28,9.42-1.61,6.19,1.33,12.49,1.33,12.49,0,0,.41-3.16,3.15-5.6"/><path class="cls-1" d="m314.73,142c2.77-4.28,8.22-3,8.22-3,0,0-6.81-11-13.5-2.14-7.8,10.34,7.72,17.96,7.72,17.96,0,0-5.97-7.39-2.44-12.82"/><path class="cls-1" d="m351.36,163.93c-7.61-.33-11.07,15.46-8.87,24.06,8.36-17.24,25.34-13.92,25.34-13.92,0,0-8.95-9.82-16.46-10.13"/><path class="cls-1" d="m331.71,185.44c2.96,3.46,7.01,4.56,7.01,4.56,0,0-2.84-10.97.42-20.29,3.24-9.34,10.63-13.19,15.21-14.31,4.56-1.12,6.09-1.12,8.92-2.43,2.2-1.04,2.99-2.53,4.15-4.68-2.93.41-4.97.31-8.11-.9-3.15-1.22-6.07-2.85-11.87-6.79-5.78-3.96-8.02-4.1-13.49-4.57-4.67-.41-6.7,1.81-6.7,1.81,0,0,3.59,1.6,5.19,4.16,2.43,3.96.9,7.83.9,7.83,0,0-2.44-1.22-5.68-1.73-3.25-.51-5.18-.06-7.11-.41-1.72-.29-2.33-1.72-2.33-1.72,0,0-1.01,3.55,1.22,8.85,2.22,5.26,5.27,5.67,5.27,5.67,0,0-8.13,1.3-10.16,9.23-2.73,10.75,5.7,17.34,5.7,17.34,0,0,.51-5.38,3.14-6.49,2.63-1.11,5.88-3.15,5.88-3.15,0,0-.51,4.56,2.43,8.02"/><path class="cls-1" d="m380.41,204.06v-38.56h79.71v38.56s.88,12.86-6.49,27.85c5.18-15.13,4.48-27.98,4.48-27.98v-36.64h-75.71v36.64s-.69,12.85,4.51,27.98c-7.39-14.99-6.51-27.85-6.51-27.85m70.83,19.6l-19.12-1.46,7.29,17.74-14.62-12.41-4.52,18.63-4.53-18.63-14.63,12.41,7.31-17.74-19.12,1.46,16.31-10.09-16.31-10.06,19.12,1.46-7.31-17.74,14.63,12.43,4.53-18.65,4.52,18.65,14.62-12.43-7.29,17.74,19.12-1.46-16.31,10.06,16.31,10.09Zm-75.25-19.81s-2.94,52.61,44.28,76.16c47.22-23.55,44.28-76.16,44.28-76.16v-42.81h-88.56v42.81Z"/><path class="cls-1" d="m360.1,269.65c.56,0,1.03.16,1.52.41,1.4.76,4.07,2.47,6.51,3.02,2.83.68,4.52.16,4.68-.63.19-.82-2.89-3.96-6.25-4.53-3.38-.54-8.44-.67-15.31.54-6.88,1.2-9.41-.15-9.88-1.21-.48-1.07.11-1.44.49-2.21-.96.07-1.67.46-2.12,1.32-1.24,2.4-2.03,5.27-1.97,10.76.07,5.49.29,9.94,3.48,10.65,3.19.7,5.53-1.51,7.83-1.86,2.29-.36,3.14.76,3.14.76l4.88-15.01c.5-1.16,1.67-1.98,3.02-1.98"/><path class="cls-1" d="m498.61,265.03c.38.78.98,1.15.51,2.22-.49,1.06-3.02,2.41-9.89,1.21-6.88-1.21-11.96-1.09-15.32-.54-3.37.56-6.44,3.71-6.24,4.53.16.8,1.85,1.32,4.68.63,2.44-.54,5.1-2.26,6.51-3.02.49-.24.96-.41,1.51-.41,1.36,0,2.52.83,3.03,1.99l4.88,15.01s.85-1.12,3.15-.76c2.29.35,4.64,2.56,7.82,1.86,3.19-.72,3.43-5.16,3.48-10.65.07-5.5-.73-8.36-1.96-10.76-.46-.85-1.15-1.24-2.13-1.32"/><path class="cls-1" d="m481.8,272.37c-.24-.51-.61-.88-1.17-.88-.37,0-.7.1-.95.33-9.42,10.04-32.48,17.16-59.42,17.16s-49.74-7.02-59.18-16.99c-.29-.24-.62-.39-.98-.39-.57,0-1.07.34-1.28.83l-6.12,18.83c-.06.15-.07.3-.07.47,0,.48.23.89.58,1.13,15.85,10.96,40.01,17.94,67.05,17.94s51.24-6.99,67.13-17.98c.41-.23.72-.61.72-1.1,0-.17-.03-.34-.11-.49-.03,0-6.21-18.85-6.21-18.85"/><path class="cls-1" d="m442.21,84.76c.54,0,1.31-.41,1.76-.93l3.59-4.2c.46-.54.38-.95-.13-.95h-4.64c-.52,0-1.31.42-1.77.95l-3.58,4.2c-.45.52-.39.93.13.93h4.64Z"/><path class="cls-1" d="m422.37,84.76h7.42c.53,0,1.31-.41,1.77-.93l3.58-4.2c.44-.54.39-.95-.14-.95h-7.41c-.53,0-1.34.42-1.77.95l-3.59,4.2c-.46.52-.39.93.14.93"/><path class="cls-1" d="m374.63,83.97c.46.51,1.26.95,1.78.95h3.35c.51,0,.6-.43.14-.95l-3.59-4.21c-.44-.52-1.23-.95-1.76-.95h-3.36c-.51,0-.59.43-.14.95l3.59,4.21Z"/><path class="cls-1" d="m385.66,83.97c.43.51,1.24.95,1.77.95h4.61c.55,0,.61-.43.15-.95l-3.59-4.21c-.44-.52-1.24-.95-1.75-.95h-4.64c-.53,0-.59.43-.14.95l3.6,4.21Z"/><path class="cls-1" d="m368.61,84.91c1.04,0,.5-.83-.26-1.84l-2.51-2.83c-.76-.76-2.24-1.37-3.28-1.37h-3.43c-1.03,0-1.01.8.04,1.85,4.11,4.02,9.44,4.19,9.44,4.19"/><path class="cls-1" d="m453.22,84.76c.53,0,1.32-.41,1.76-.93l3.6-4.2c.45-.54.39-.95-.14-.95h-3.36c-.52,0-1.3.42-1.75.95l-3.6,4.2c-.44.52-.39.93.14.93h3.36Z"/><path class="cls-1" d="m464.13,84.76c.51,0,1.3-.41,1.74-.93l3.6-4.2c.43-.54.39-.95-.15-.95h-3.35c-.53,0-1.33.42-1.77.95l-3.59,4.2c-.44.52-.39.93.14.93h3.38Z"/><path class="cls-1" d="m471.91,84.76s5.31-.16,9.44-4.2c1.05-1.03,1.08-1.84.02-1.84h-3.43c-1.05,0-2.52.62-3.29,1.38l-2.49,2.81c-.76,1.01-1.32,1.85-.26,1.85"/><path class="cls-1" d="m398.07,83.97c.44.51,1.24.95,1.78.95h7.42c.53,0,.58-.43.12-.95l-3.59-4.21c-.44-.52-1.22-.95-1.76-.95h-7.42c-.53,0-.59.43-.14.95l3.6,4.21Z"/><path class="cls-1" d="m413.26,84.42c.37.56,1,.56,1.38,0l3.95-4.64c.37-.54.15-.99-.52-.99h-8.36c-.67,0-.88.46-.5.98l4.05,4.66Z"/><path class="cls-1" d="m413.54,87.99c-4.55,1.46-8.8,2.94-12.16,7.14-5.19,3.6-10.35,7.48-15.82,10.15-.62,1.21-.34,2.72-.04,3.93,2.72,1.83,6.33,1.88,9.65,2.81,1.51,2.12,1.78,5.46,1.15,7.88,2.1.62,7.22-3.58,8.83-7.18,2.42.32,4.51,2.76,4.8,5.19.19,1.98-.27,3.77-1.05,5.35-2.43,4.86-8.06,7.73-8.06,7.73,2.28.93,3.97,2.69,4.74,2.92.81.22,3.36-5.28,4.43-5.52,1.36-.32,6.13,3.44,7.17,3.44.87,0,4.01-4.45,5.37-4.37,1.53.1,4.73,5.3,5.78,5.45.71.08,5.51-4.58,7.05-4.41,1.11.12,3.15,4.21,3.97,4.53.86.3,2.47-2.09,8.28-3.19,0,0,.05-3.78-.05-6.58-.02-.77-.06-1.47-.13-2-1.1-11.81-4.05-22.43-10.01-32.16-.3-.9-1.19-1.22-2.09-.61-.58,0-.62.51-.39,1.06,0,0,2.05,2.7,2.88,4.1,1.22,2.1,2.01,4.44,1.95,7,.01.91-.08,1.79-.27,2.68-1.22,5.7-5.94,10.41-11.17,12.87-1.4.51-2.97.91-4.56,1.12-3.29.41-6.94.17-9.47-1.97-.83-.63-1.52-1.38-2.09-2.23-1.01-1.62-1.56-3.77-1.39-5.81.04-.7.22-1.66.79-2.11l.14-.2c2.04-2.8,2.66,2.54,7.74,3.36.81.16,1.68.18,2.55.02.81-.31,1.56-.85,2.19-1.56.72-.79,1.22-1.7,1.43-2.64.15-.66.16-1.33.07-1.99-.27-1.19-.9-2.17-1.81-2.93-2.64-2.22-6.92-3.83-8.31-7.14-.26-.95-.28-1.74-.05-2.53.24-.79.77-1.65,1.28-2.46.13-.2,2.36-2.83,2.39-2.83l4.07-4.68c.32-1.23-1.19-.93-1.5-.63-3.06,3.01-4.61,6.93-8.25,9.02"/><path class="cls-1" d="m433.17,91.48c-3.01-.63-6.34-.35-8.48,1.43-1.51.29-2.88-.44-3.92-1.24-.31-.29-.31-.91.02-1.2,1.5-1.19,3.64-1.49,5.74-1.46,2.56.39,5.14.96,6.63,2.48m2.9,4.91c-2.13-.78-4.55-.81-6.2.61-1.11.11-2.05-.63-2.74-1.4-.2-.28-.16-.81.08-1.06,1.17-.92,2.73-.99,4.25-.83,1.8.54,3.64,1.23,4.61,2.68m1.07,4.49c-1.58-.74-3.93-.46-5.25.45-.85.01-1.4-.78-1.56-1.73-.09-.46-.04-.6.17-.78.93-.58,2.12-.51,3.26-.26,1.34.52,2.71,1.17,3.38,2.32m-5.42,4.31c-.63-.07-.96-.73-.98-1.45,0-.36.05-.46.2-.55.76-.36,1.64-.18,2.49.12.96.54,1.9,1.15,2.28,2.09-1.11-.71-2.89-.73-3.98-.2m-1.8,3.33c-.42-.3-.39-.9-.13-1.42.13-.24.22-.3.38-.3.68.04,1.24.51,1.7,1.05.49.76.91,1.58.82,2.37-.5-.94-1.77-1.64-2.77-1.69m-1.36,4.77c.08-.87-.61-1.9-1.41-2.34-.2-.4.15-.78.67-1.04.24-.1.33-.12.47-.05.53.34.76.9.86,1.48,0,.71-.1,1.44-.59,1.95m-4.39,1.34c.33-.57-.02-1.42-.69-1.9-.05-.3.39-.49.96-.57.26-.03.37,0,.47.07.41.34.46.76.4,1.18-.22.49-.51.98-1.14,1.22m-3.05-.22c-.23.21-.48.42-.88.42.29-.24.29-.77.04-1.18.04-.17.32-.17.62-.09.15.04.2.07.24.15.15.27.1.5-.02.71m-3.36-.76c-.14.07-.3.12-.49.05.19-.07.26-.32.22-.54.05-.09.19-.04.31.05.12.26.05.36-.04.43m16.96-26.99c-4.84-.63-14.67-.41-14.67-.41-.62.07-.98.19-1.5.56-.41.26-.6.5-.9.84-.62.76-.99,1.58-1.16,2.21-.16.59-.16,1.19.02,1.9,1.23,2.9,5.61,4.72,8.01,6.74,1.07.88,1.83,2.09,2.15,3.5.12.78.12,1.61-.07,2.4-.26,1.11-.81,2.19-1.67,3.09-.72.85-1.61,1.47-2.6,1.83-1.09.22-2.07.2-3.02.03-2.62-.44-4.71-2.15-6.51-4.09-.22.23-.32.39-.43.55l-.15.14c-.29.2-.41,1.08-.43,1.39-.17,1.85.35,3.8,1.23,5.23.5.77,1.13,1.44,1.87,2,2.19,1.89,5.51,2.15,8.75,1.74,1.5-.18,2.96-.57,4.29-1.04,5.02-2.4,9.46-6.87,10.57-12.19.17-.82.27-1.65.27-2.46.05-2.33-.67-4.49-1.82-6.47-.86-1.45-1.75-2.65-3.16-4.07-.68-.69-1.33-1.13-1.83-1.63.63-1.21,2.15-.9,2.75-1.8"/><path class="cls-1" d="m501.6,192.52h-.03c-.43-.15-.85-.31-1.31-.5-6.87-2.78-8.44-5.38-14.61-8.03-6.15-2.66-12.18-.2-12.18-.2,0,0,3.81,2.15,5.36,4.46.96,1.41,1.34,2.83,1.79,4.27.28.93.59,1.87,1.07,2.82,1.22,2.41,5.52,4.75,5.52,4.75,0,0-5.97,2.52-8.88,5.06-2.92,2.54-5.41,6.03-4.95,11.16.47,5.14,4.55,8.51,4.55,8.51,0,0,1.35-5.55,7.26-8.05,7.35-3.11,12.79.9,12.79.9,0,0,1.17,2.14-.07,7.98-1.25,5.86-2.73,7.29-2.73,7.29,0,0,9.48-1.43,13.53-9.82,3.28-6.78,2.71-12.78,2.71-20.26s2.62-10.29,2.62-10.29c0,0-5.12,2.42-12.46-.05"/><path class="cls-1" d="m455.75,255.19c-4.33,7.64-6.36,15.04-9.95,19.12-3.58,4.11-6,5.11-6,5.11,0,0,1.66-.73,3.37-1.28,2.82-.87,7.32-.82,13.11-5.14,6.49-4.88,6.01-11.43,6.01-11.43,0,0,4.14,4.87,10.75,1.09,4.34-2.48,4.45-7.34,4.45-7.34,0,0-2.89,2.65-6.38-3.95-2.58-4.92-.12-10.84-.12-10.84,0,0-8.46,2.65-15.26,14.67"/><path class="cls-1" d="m497.24,237.27c-6.63-2.38-10.01-1.34-10.01-1.34,0,0,0-2.63,1.69-7.22,1.69-4.6,4.34-6.85,4.34-6.85,0,0-7.69-2.07-13.68,4.85-5.99,6.92-6.45,12.73-5.07,16.82,1.5,4.39,3.25,6.09,4.55,8.5,1.16,2.17,1.58,5.64,1.58,5.64,0,0,2.64-9.09,9.39-11.99,7.88-3.38,13.91,1.82,13.91,1.82,0,0,.24-7.69-6.69-10.22"/><path class="cls-1" d="m516.07,102.05s1.22,3.34-.61,8.01c-1.83,4.66-3.85,5.88-3.85,5.88,0,0,2.47-.04,5.28,2.43,2.73,2.44,3.15,5.61,3.15,5.61,0,0,2.94-6.3,1.32-12.5-1.63-6.19-5.28-9.42-5.28-9.42"/><path class="cls-1" d="m484.74,141.82s-4.37-2.74-5.08-7.51c-.71-4.77-.4-8.71-.71-11.97-.31-3.25-2.83-7.59-2.83-7.59,0,0,.28,4.95-1.63,8.1-1.94,3.15-4.48,9.32-1.32,14.41,4.16,6.68,11.57,4.56,11.57,4.56"/><path class="cls-1" d="m478.53,108.42c-.3,3.25-.6,5.09,2.44,9.83,3.05,4.79,4.49,6.41,5.81,11.18,1.32,4.76-.44,9.33-.44,9.33,0,0,7.22-.29,12.7-5.17,4.35-3.88,8.5-4,10.85-3.55,4.27.8,5.2,4.66,5.2,4.66,0,0,3.44-5.28.19-10.55-2.01-3.24-8.43-3.96-8.43-3.96,0,0,1.05-1.62,1.12-3.56.11-2.52.35-5.5,1.93-10.05,2.13-6.07,6.41-8.71,6.41-8.71,0,0-2.25-1.02-7.72.4-3.61.93-7.42,4.78-10.46,8.42-3.04,3.65-3.65,9.84-3.65,9.84,0,0-.42-2.73-2.76-4.76-2.34-2.03-4.35-3.45-7.19-4.97-2.84-1.53-3.85-4.97-3.85-4.97,0,0-1.82,3.39-2.13,6.59"/><path class="cls-1" d="m531.53,136.86c-6.7-8.86-13.49,2.14-13.49,2.14,0,0,5.45-1.28,8.2,3,3.54,5.44-2.42,12.82-2.42,12.82,0,0,15.52-7.62,7.71-17.96"/><path class="cls-1" d="m516.29,160.49s3.05-.41,5.26-5.67c2.24-5.3,1.22-8.85,1.22-8.85,0,0-.59,1.43-2.32,1.72-1.93.35-3.86-.09-7.1.41-3.26.51-5.71,1.73-5.71,1.73,0,0-1.51-3.86.93-7.82,1.58-2.56,5.17-4.16,5.17-4.16,0,0-2.04-2.21-6.7-1.81-5.46.47-7.71.61-13.48,4.57-5.78,3.93-8.72,5.57-11.88,6.79-3.15,1.21-5.17,1.31-8.11.9,1.18,2.15,1.96,3.64,4.17,4.68,2.85,1.3,4.37,1.3,8.92,2.43,4.58,1.11,11.97,4.97,15.23,14.31,3.26,9.32.41,20.29.41,20.29,0,0,4.05-1.1,7-4.56,2.94-3.46,2.43-8.03,2.43-8.03,0,0,3.25,2.04,5.9,3.15,2.63,1.12,3.12,6.49,3.12,6.49,0,0,8.45-6.58,5.7-17.34-2.01-7.93-10.13-9.23-10.13-9.23"/><path class="cls-1" d="m498.51,187.99c2.19-8.59-1.27-24.39-8.87-24.06-7.53.31-16.48,10.13-16.48,10.13,0,0,17-3.32,25.35,13.92"/><path class="cls-1" d="m437.68,137.75h0s0,0,0,0h0c-.96-2.7-2.43-5.12-3.12-5.17-1.34-.09-6.85,4.9-6.85,4.9,0,0-3.28-5.86-5.07-6.03-.76-.07-3.63,3.08-5.14,5.07-1.8-1.84-5.66-4.72-7.07-4.41-.84.18-2.63,3.98-3.8,6.72-.99-.99-6.07-4.9-8.61-5.32-1.22,1.8-1.26,6.66-1.26,6.66,0,0-5.17-4.76-8.73-5.24-.92,1.2.73,8.04,4.45,11.25-.12-.97-1.78-4.27-1.46-6.38,1.83-.9,6.18,1.68,6.18,1.68,0,0,.79-3.44,2.63-4.33,2.72.32,7.24,3.39,7.24,3.39,0,0,2.12-3.92,3.96-5.11,2.73-.58,6.63,2.78,6.63,2.78,0,0,2.88-3.39,5-3.37,2.1.93,4.82,4.16,4.82,4.16,0,0,4.07-2.74,6.52-3.49,1.47.74,3.21,4.24,3.21,4.24,0,0,5.13-3.37,7.83-3.05.92.9,1.82,3.81,1.82,3.81,0,0,5.6-2.09,8.01-1.98-.36,2.96-1.86,5.14-3.1,7.53,2.83-1.47,7.73-8.91,6.15-10.83-.88-1.08-10.03,3.82-10.03,3.82,0,0-.15-4.9-1.35-5.82-3.63.29-6.39,2.1-8.85,4.49"/><path class="cls-1" d="m437.68,137.75h0s0,0,0,0h0Z"/><path class="cls-1" d="m422.6,138.52c-2.06-.31-2.85,8.53-.8,8.83,2.11.32,3.24-8.46.8-8.83"/><path class="cls-1" d="m429.93,147.51c2.22.89,5.38-7.28,3.12-8.17-1.96-.77-5.02,7.36-3.12,8.17"/><path class="cls-1" d="m414.53,147.58c1.1-.28.68-6.95-1.74-8.47-.9-.32-1.51.59-1.51,1.18-.02,3.04,1.69,7.7,3.25,7.29"/><path class="cls-1" d="m438.27,147.72c1.82,1.16,6.92-6.07,4.68-7.41-1.59-.98-6.78,6.1-4.68,7.41"/><path class="cls-1" d="m401.58,140.22c-.59-.31-.91.28-.91.59-.32,3.01,2.69,7.61,4.19,6.99.95-.4-.55-6.65-3.27-7.58"/><path class="cls-1" d="m446,147.24c1.47,1.13,5.18-3.82,4.27-4.79-1.1-1.19-5.42,3.92-4.27,4.79"/><path class="cls-1" d="m394.61,143.17c-1.07.5,1.13,5.53,2.36,4.87,1.38-.74-1.04-5.49-2.36-4.87"/><path class="cls-1" d="m415.28,150.58l2.21,5.34c.18.46.84.86,1.44.86h8.87c.61,0,.95-.4.77-.86l-2.22-5.34c-.2-.46-.85-.85-1.44-.85h-8.88c-.61,0-.93.39-.74.85"/><path class="cls-1" d="m436.59,150.71h-6.39c-.44,0-.68.28-.54.63l1.58,3.84c.14.34.61.59,1.05.59h6.4c.42,0,.67-.26.53-.59l-1.59-3.84c-.14-.34-.59-.63-1.05-.63"/><path class="cls-1" d="m445.35,151.13h-4.48c-.31,0-.48.2-.38.42l1.12,2.71c.1.22.42.42.73.42h4.47c.3,0,.47-.2.38-.42l-1.11-2.71c-.09-.22-.44-.42-.73-.42"/><path class="cls-1" d="m448.62,151.69l.78,1.89c.08.15.31.3.51.3h3.13c.21,0,.32-.15.25-.3l-.77-1.89c-.07-.17-.3-.3-.52-.3h-3.12c-.22,0-.34.12-.27.3"/><path class="cls-1" d="m404.87,151.34l1.6,3.84c.13.34.59.59,1.04.59h6.38c.44,0,.67-.26.54-.59l-1.59-3.84c-.12-.34-.61-.63-1.04-.63h-6.39c-.45,0-.68.28-.55.63"/><path class="cls-1" d="m396.89,152.23l1.1,2.71c.12.23.43.43.74.43h4.49c.29,0,.45-.2.37-.43l-1.12-2.71c-.1-.24-.43-.43-.74-.43h-4.45c-.31,0-.48.19-.39.43"/><path class="cls-1" d="m391.06,152.62c-.22,0-.34.14-.28.3l.78,1.9c.07.15.3.29.51.29h3.13c.2,0,.34-.15.25-.29l-.77-1.9c-.07-.17-.3-.3-.52-.3h-3.12Z"/><polygon class="cls-1" points="420.22 213.58 423.11 204.51 420.29 187.3 420.22 213.58"/><polygon class="cls-1" points="417.23 204.55 420.21 213.58 420.29 187.29 417.23 204.55"/><polygon class="cls-1" points="417.41 222.69 420.25 239.86 420.22 213.58 417.41 222.69"/><polygon class="cls-1" points="420.25 239.86 423.29 222.63 420.22 213.58 420.25 239.86"/><polygon class="cls-1" points="417.23 204.55 404.83 192.3 420.22 213.58 417.23 204.55"/><polygon class="cls-1" points="404.83 192.3 412.51 208.05 420.22 213.58 404.83 192.3"/><polygon class="cls-1" points="423.29 222.62 435.69 234.85 420.22 213.58 423.29 222.62"/><polygon class="cls-1" points="435.7 234.85 428.03 219.11 420.21 213.58 435.7 234.85"/><polygon class="cls-1" points="412.51 208.05 395.27 205.42 420.22 213.58 412.51 208.05"/><polygon class="cls-1" points="395.27 205.42 410.73 213.58 420.21 213.58 395.27 205.42"/><polygon class="cls-1" points="428.03 219.11 445.25 221.74 420.22 213.58 428.03 219.11"/><polygon class="cls-1" points="445.25 221.74 429.79 213.58 420.22 213.58 445.25 221.74"/><polygon class="cls-1" points="410.73 213.58 395.26 221.69 420.22 213.58 410.73 213.58"/><polygon class="cls-1" points="395.26 221.69 412.6 219.25 420.21 213.58 395.26 221.69"/><polygon class="cls-1" points="420.22 213.58 429.79 213.58 445.25 205.48 420.22 213.58"/><polygon class="cls-1" points="445.25 205.48 427.91 207.92 420.22 213.58 445.25 205.48"/><polygon class="cls-1" points="412.6 219.25 404.79 234.83 420.22 213.58 412.6 219.25"/><polygon class="cls-1" points="404.79 234.83 417.41 222.69 420.21 213.58 404.79 234.83"/><polygon class="cls-1" points="427.91 207.92 435.73 192.33 420.22 213.58 427.91 207.92"/><polygon class="cls-1" points="435.73 192.34 423.11 204.51 420.22 213.58 435.73 192.34"/></g><path class="cls-1" d="m324.21,384c1.06,1.44,1.54,1.84,2.9,1.92v.93h-5.08c-.77-.64-1.6-1.65-2.32-2.69l-4.61-6.5,6.49-6.76c.37-.37.67-.75.67-1.12,0-.45-.4-.61-1.97-.69v-.93h5.96v.93c-1.15.05-1.6.34-2.4,1.17l-5.41,5.7,5.75,8.04Zm-9.4.08c0,1.46.27,1.62,2.13,1.84v.93h-8.17v-.93c1.86-.21,2.13-.37,2.13-1.84v-13.15c0-1.46-.27-1.62-2.13-1.84v-.93h8.17v.93c-1.86.21-2.13.37-2.13,1.84v13.15Z"/><path class="cls-1" d="m336.02,384.08c0,1.46.27,1.62,2.13,1.84v.93h-8.17v-.93c1.86-.21,2.13-.37,2.13-1.84v-13.15c0-1.46-.27-1.62-2.13-1.84v-.93h8.17v.93c-1.86.21-2.13.37-2.13,1.84v13.15Z"/><path class="cls-1" d="m354.99,378.28h1.15c2.96,0,4.31-1.68,4.31-4.5,0-2.66-1.44-4.55-4.31-4.55h-1.15v9.05Zm0,5.62c0,1.49.72,1.84,3.19,2v.96h-9.24v-.93c1.86-.21,2.13-.37,2.13-1.84v-13.15c0-1.46-.27-1.62-2.13-1.84v-.93h8.15c5.01,0,7.35,2.5,7.35,5.54,0,3.49-2.42,5.72-7.4,5.72h-2.05v4.47Z"/><path class="cls-1" d="m373.37,380.09c0,3.25,1.41,5.22,4.34,5.22s4.95-1.54,4.95-5.38v-8.97c0-1.44-.35-1.68-2.53-1.86v-.93h6.1v.93c-1.87.21-2.13.42-2.13,1.86v9.45c0,4.58-3.14,6.71-7.08,6.71-4.71,0-7.53-2.18-7.53-6.76v-9.43c0-1.46-.27-1.62-2.13-1.84v-.93h8.15v.93c-1.86.21-2.13.37-2.13,1.84v9.16Z"/><path class="cls-1" d="m395.45,369.25v8.49h1.28c2.79,0,4.18-1.6,4.18-4.37,0-2.4-1.41-4.13-4.23-4.13h-1.22Zm0,14.83c0,1.46.27,1.62,2.13,1.84v.93h-8.17v-.93c1.86-.21,2.13-.37,2.13-1.84v-13.15c0-1.46-.27-1.62-2.13-1.84v-.93h8.49c4.42,0,6.98,2.08,6.98,5.19,0,2.9-2.34,4.42-4.34,4.93l4.02,5.46c1.2,1.63,1.86,2.16,3.25,2.18v.93h-5.06c-.77-.56-1.44-1.41-2.24-2.61l-3.68-5.38h-1.38v5.22Z"/><path class="cls-1" d="m410.67,385.92c1.86-.21,2.13-.37,2.13-1.84v-13.15c0-1.46-.27-1.62-2.13-1.84v-.93h14.62l.13,4.79h-.77c-1.3-2.9-2.08-3.73-4.21-3.73h-3.73v7.4h3.38c1.17,0,1.57-.75,1.84-2.45h.93v6.05h-.93c-.27-1.7-.66-2.42-1.84-2.42h-3.38v6.18c0,1.44.72,1.81,2.37,1.81h1.65c2.16,0,2.9-1.09,4.68-4.26h.93l-.82,5.32h-14.86v-.93Z"/><path class="cls-1" d="m435.76,376.66h8.02v-5.72c0-1.46-.27-1.62-2.13-1.84v-.93h8.15v.93c-1.87.21-2.13.37-2.13,1.84v13.15c0,1.46.27,1.62,2.13,1.84v.93h-8.15v-.93c1.86-.21,2.13-.37,2.13-1.84v-6.15h-8.02v6.15c0,1.46.27,1.62,2.13,1.84v.93h-8.17v-.93c1.86-.21,2.13-.37,2.13-1.84v-13.15c0-1.46-.27-1.62-2.13-1.84v-.93h8.17v.93c-1.86.21-2.13.37-2.13,1.84v5.72Z"/><path class="cls-1" d="m458.99,380.09c0,3.25,1.41,5.22,4.34,5.22s4.95-1.54,4.95-5.38v-8.97c0-1.44-.35-1.68-2.53-1.86v-.93h6.1v.93c-1.87.21-2.13.42-2.13,1.86v9.45c0,4.58-3.14,6.71-7.08,6.71-4.71,0-7.53-2.18-7.53-6.76v-9.43c0-1.46-.27-1.62-2.13-1.84v-.93h8.15v.93c-1.86.21-2.13.37-2.13,1.84v9.16Z"/><path class="cls-1" d="m481.07,369.25v8.49h1.28c2.79,0,4.18-1.6,4.18-4.37,0-2.4-1.41-4.13-4.24-4.13h-1.22Zm0,14.83c0,1.46.27,1.62,2.13,1.84v.93h-8.17v-.93c1.86-.21,2.13-.37,2.13-1.84v-13.15c0-1.46-.27-1.62-2.13-1.84v-.93h8.49c4.42,0,6.98,2.08,6.98,5.19,0,2.9-2.34,4.42-4.34,4.93l4.02,5.46c1.2,1.63,1.86,2.16,3.25,2.18v.93h-5.06c-.77-.56-1.44-1.41-2.24-2.61l-3.68-5.38h-1.38v5.22Z"/><path class="cls-1" d="m508.93,377.67c0-4.45-1.41-8.68-4.77-8.68-3.12,0-4.53,4.05-4.53,8.36s1.44,8.68,4.77,8.68c3.14,0,4.52-4.05,4.52-8.36m-13.45.21c0-6.1,3.86-9.98,8.97-9.98,5.62,0,8.65,4.34,8.65,9.24,0,6.1-3.86,9.98-8.97,9.98-5.65,0-8.65-4.34-8.65-9.24"/><path class="cls-1" d="m520.37,379.56h6.28l-3.19-8.01-3.09,8.01Zm6.74,1.15h-7.16l-1.14,2.98c-.16.4-.24.75-.24,1.04,0,.85.66,1.15,2.29,1.2v.93h-5.48v-.93c.75-.11,1.28-.27,1.57-.99l5.8-14.91-.82-2h4.15l6.84,16.91c.29.72.85.88,1.57.99v.93h-8.15v-.93c1.57-.05,2.24-.32,2.24-1.17,0-.29-.08-.64-.24-1.04l-1.22-3.01Z"/><path class="cls-1" d="m328.47,336.51l.47,7.17h-.99c-1.99-4.62-2.73-6.05-5.12-6.05h-1.64v17.53c0,1.71.68,1.8,2.79,2.05v1.09h-10.11v-1.09c2.08-.25,2.79-.34,2.79-2.05v-17.53h-1.64c-2.39,0-3.14,1.43-5.15,6.05h-.99l.47-7.17h19.15Z"/><path class="cls-1" d="m332.69,357.21c2.17-.25,2.48-.43,2.48-2.14v-15.33c0-1.71-.31-1.89-2.48-2.14v-1.09h17.03l.15,5.58h-.9c-1.52-3.38-2.42-4.34-4.9-4.34h-4.34v8.63h3.94c1.37,0,1.83-.87,2.14-2.85h1.08v7.04h-1.08c-.31-1.99-.78-2.82-2.14-2.82h-3.94v7.2c0,1.68.84,2.11,2.76,2.11h1.92c2.52,0,3.38-1.27,5.46-4.96h1.09l-.96,6.21h-17.31v-1.09Z"/><path class="cls-1" d="m381.3,354.97c1.24,1.67,1.8,2.14,3.38,2.23v1.09h-5.93c-.9-.75-1.86-1.92-2.7-3.14l-5.37-7.57,7.57-7.88c.43-.44.78-.87.78-1.3,0-.53-.47-.72-2.3-.81v-1.09h6.95v1.09c-1.33.06-1.86.4-2.79,1.36l-6.3,6.64,6.7,9.37Zm-10.95.09c0,1.71.31,1.89,2.48,2.14v1.09h-9.53v-1.09c2.17-.25,2.48-.43,2.48-2.14v-15.33c0-1.71-.31-1.89-2.48-2.14v-1.09h9.53v1.09c-2.17.25-2.48.43-2.48,2.14v15.33Z"/><path class="cls-1" d="m394.43,350.41c0,3.79,1.64,6.08,5.06,6.08s5.77-1.8,5.77-6.27v-10.46c0-1.67-.4-1.95-2.95-2.17v-1.09h7.11v1.09c-2.17.25-2.48.5-2.48,2.17v11.02c0,5.34-3.66,7.82-8.26,7.82-5.49,0-8.78-2.54-8.78-7.88v-10.98c0-1.71-.31-1.89-2.48-2.14v-1.09h9.49v1.09c-2.17.25-2.48.43-2.48,2.14v10.67Z"/><path class="cls-1" d="m430.77,339.77c0-1.67-.56-1.95-3.1-2.17v-1.09h7.23v1.09c-2.17.25-2.48.5-2.48,2.17v18.59h-1.52l-13.59-17.16v13.84c0,1.68.53,1.96,3.07,2.17v1.09h-7.23v-1.09c2.2-.25,2.48-.5,2.48-2.17v-15.51c-.93-1.33-1.36-1.86-2.51-1.92v-1.09h6.36l11.3,14.36v-11.11Z"/><path class="cls-1" d="m438.79,357.21c2.17-.25,2.48-.43,2.48-2.14v-15.33c0-1.71-.31-1.89-2.48-2.14v-1.09h17.03l.15,5.58h-.9c-1.52-3.38-2.42-4.34-4.9-4.34h-4.34v8.63h3.94c1.37,0,1.83-.87,2.14-2.85h1.09v7.04h-1.09c-.31-1.99-.78-2.82-2.14-2.82h-3.94v7.2c0,1.68.84,2.11,2.76,2.11h1.92c2.52,0,3.38-1.27,5.46-4.96h1.09l-.96,6.21h-17.31v-1.09Z"/><path class="cls-1" d="m478.63,339.77c0-1.67-.56-1.95-3.1-2.17v-1.09h7.23v1.09c-2.17.25-2.48.5-2.48,2.17v18.59h-1.52l-13.59-17.16v13.84c0,1.68.53,1.96,3.07,2.17v1.09h-7.23v-1.09c2.2-.25,2.48-.5,2.48-2.17v-15.51c-.93-1.33-1.36-1.86-2.51-1.92v-1.09h6.36l11.29,14.36v-11.11Z"/><path class="cls-1" d="m501.05,351.31c0-1.71-.28-1.92-2.48-2.17v-1.06h9.25v1.06c-2.17.25-2.48.46-2.48,2.17v5.15c-2.02,1.3-4.72,2.14-7.91,2.14-6.89,0-10.74-4.66-10.74-10.67,0-7.2,4.84-11.73,11.14-11.73,2.76,0,5.12.62,6.92,1.8l.03,5.03h-1.18c-.75-3.6-2.54-5.55-5.65-5.55-4.5,0-6.45,4.31-6.45,9.62s2.05,10.21,6.49,10.21c1.21,0,2.23-.19,3.07-.84v-5.15Z"/><path class="cls-1" d="m515.95,349.79h7.32l-3.72-9.34-3.6,9.34Zm7.85,1.34h-8.35l-1.33,3.47c-.19.47-.28.87-.28,1.21,0,.99.78,1.33,2.67,1.4v1.09h-6.39v-1.09c.87-.12,1.49-.31,1.83-1.15l6.76-17.38-.96-2.33h4.84l7.97,19.7c.34.84.99,1.02,1.83,1.15v1.09h-9.5v-1.09c1.83-.06,2.61-.37,2.61-1.36,0-.34-.09-.74-.28-1.21l-1.43-3.51Z"/><path class="cls-1" d="m316.21,474.22c0,4.02,1.75,6.45,5.37,6.45s6.12-1.91,6.12-6.65v-11.09c0-1.78-.43-2.07-3.13-2.3v-1.15h7.54v1.15c-2.31.26-2.64.52-2.64,2.3v11.69c0,5.66-3.89,8.3-8.76,8.3-5.83,0-9.32-2.7-9.32-8.36v-11.66c0-1.81-.33-2.01-2.64-2.27v-1.15h10.08v1.15c-2.3.26-2.63.46-2.63,2.27v11.33Z"/><path class="cls-1" d="m354.78,462.93c0-1.78-.59-2.07-3.29-2.3v-1.15h7.67v1.15c-2.31.26-2.63.53-2.63,2.3v19.72h-1.61l-14.42-18.21v14.69c0,1.78.56,2.07,3.26,2.3v1.15h-7.67v-1.15c2.34-.26,2.63-.52,2.63-2.3v-16.46c-.99-1.41-1.45-1.98-2.66-2.04v-1.15h6.75l11.99,15.24v-11.79Z"/><path class="cls-1" d="m370.76,479.16c0,1.81.33,2.01,2.64,2.27v1.15h-10.11v-1.15c2.3-.26,2.63-.46,2.63-2.27v-16.27c0-1.81-.33-2.01-2.63-2.27v-1.15h10.11v1.15c-2.31.26-2.64.46-2.64,2.27v16.27Z"/><path class="cls-1" d="m395.79,463.39c.2-.49.33-.95.33-1.32,0-1.02-.59-1.38-2.67-1.45v-1.15h6.68v1.15c-.95.13-1.58.33-1.94,1.22l-8.46,20.94h-1.25l-9.45-20.94c-.43-.92-1.02-1.09-1.94-1.22v-1.15h10.14v1.15c-2.11.06-2.7.43-2.7,1.42,0,.39.13.82.36,1.35l5.86,13,5.04-13Z"/><path class="cls-1" d="m403.84,481.43c2.3-.26,2.63-.46,2.63-2.27v-16.27c0-1.81-.33-2.01-2.63-2.27v-1.15h18.07l.16,5.93h-.95c-1.61-3.59-2.57-4.61-5.2-4.61h-4.61v9.15h4.18c1.45,0,1.94-.92,2.27-3.03h1.15v7.47h-1.15c-.33-2.11-.82-2.99-2.27-2.99h-4.18v7.64c0,1.78.89,2.24,2.93,2.24h2.04c2.67,0,3.59-1.35,5.79-5.27h1.15l-1.02,6.58h-18.37v-1.15Z"/><path class="cls-1" d="m434.87,460.82v10.5h1.58c3.46,0,5.17-1.97,5.17-5.4,0-2.96-1.75-5.1-5.24-5.1h-1.52Zm0,18.34c0,1.81.33,2.01,2.64,2.27v1.15h-10.11v-1.15c2.3-.26,2.63-.46,2.63-2.27v-16.27c0-1.81-.33-2.01-2.63-2.27v-1.15h10.5c5.47,0,8.63,2.57,8.63,6.42,0,3.59-2.9,5.46-5.37,6.09l4.97,6.75c1.48,2.01,2.3,2.67,4.02,2.7v1.15h-6.26c-.96-.69-1.78-1.75-2.77-3.22l-4.54-6.65h-1.71v6.45Z"/><path class="cls-1" d="m453.85,480.74l-.3-5.63h1.38c.79,3.92,2.9,6.49,6.22,6.49,2.67,0,4.35-1.45,4.35-3.72,0-2.44-1.42-3.46-5.37-4.91-3.89-1.35-6.39-3.13-6.39-7.01s3.06-6.82,7.67-6.82c2.76,0,5.23.76,6.85,1.94v4.91h-1.22c-.63-3.49-2.5-5.53-5.63-5.53-2.31,0-3.75,1.42-3.75,3.49,0,2.31,1.25,3.26,4.77,4.54,4.41,1.58,7.08,3.29,7.08,7.44,0,4.61-3.79,6.98-8.36,6.98-3.13,0-5.83-.95-7.31-2.17"/><path class="cls-1" d="m481.68,479.16c0,1.81.33,2.01,2.64,2.27v1.15h-10.11v-1.15c2.3-.26,2.63-.46,2.63-2.27v-16.27c0-1.81-.33-2.01-2.63-2.27v-1.15h10.11v1.15c-2.31.26-2.64.46-2.64,2.27v16.27Z"/><path class="cls-1" d="m509.11,459.47l.49,7.61h-1.05c-2.11-4.91-2.9-6.42-5.43-6.42h-1.75v18.6c0,1.81.73,1.91,2.96,2.17v1.15h-10.73v-1.15c2.21-.26,2.96-.36,2.96-2.17v-18.6h-1.75c-2.54,0-3.33,1.51-5.47,6.42h-1.05l.49-7.61h20.31Z"/><path class="cls-1" d="m526.11,479.26c0,1.81.73,1.91,2.93,2.17v1.15h-10.57v-1.15c2.24-.26,2.96-.36,2.96-2.17v-5.56l-6.62-11.85c-.49-.89-1.02-1.08-1.94-1.22v-1.15h9.91v1.15c-2.01.06-2.57.33-2.57,1.19,0,.62.3,1.08.69,1.81l4.58,8,4.28-7.93c.29-.59.69-1.35.69-1.88,0-.86-.73-1.12-2.6-1.19v-1.15h6.62v1.15c-.92.13-1.51.39-1.94,1.22l-6.42,11.79v5.63Z"/><path class="cls-1" d="m340.83,419.85l-9.78,27.35h-2.55l-10.29-27.35-2.6,21.08c-.05.36-.1,1.07-.1,1.22,0,2.5,1.12,3,4.84,3.26v1.78h-11.76v-1.78c2.9-.15,3.97-.71,4.23-3.05l3.16-25.41c0-2.7-.97-3.56-4.33-3.72v-1.78h11.51c.1,1.17.41,1.99.81,3.11l8.3,22.2,7.74-22.25c.41-1.12.71-1.88.81-3.06h11.35v1.78c-3.26.15-4.28,1.02-4.28,3.72l3.16,25.41c.3,2.44,1.37,2.9,4.17,3.05v1.78h-16.55v-1.78c3.56-.26,4.78-.76,4.78-3.26,0-.15-.05-.87-.1-1.22l-2.54-21.08Z"/><path class="cls-1" d="m369.69,433.25h12.02l-6.11-15.33-5.91,15.33Zm12.88,2.19h-13.7l-2.19,5.7c-.31.76-.46,1.43-.46,1.99,0,1.63,1.27,2.19,4.38,2.29v1.78h-10.49v-1.78c1.43-.2,2.44-.51,3.01-1.88l11.1-28.52-1.58-3.82h7.94l13.09,32.34c.56,1.38,1.63,1.68,3.01,1.88v1.78h-15.58v-1.78c3-.1,4.28-.61,4.28-2.24,0-.56-.15-1.22-.46-1.99l-2.34-5.75Z"/><path class="cls-1" d="m402.88,444.35l-.46-8.71h2.14c1.22,6.06,4.48,10.03,9.63,10.03,4.12,0,6.72-2.24,6.72-5.75,0-3.77-2.19-5.35-8.3-7.59-6.01-2.09-9.88-4.84-9.88-10.85s4.74-10.54,11.87-10.54c4.28,0,8.1,1.17,10.59,3.01v7.59h-1.88c-.97-5.4-3.87-8.56-8.71-8.56-3.56,0-5.8,2.19-5.8,5.4,0,3.56,1.94,5.04,7.38,7.03,6.82,2.45,10.95,5.09,10.95,11.51,0,7.13-5.86,10.79-12.93,10.79-4.84,0-9.02-1.48-11.31-3.36"/><path class="cls-1" d="m435.1,444.35l-.46-8.71h2.14c1.22,6.06,4.48,10.03,9.63,10.03,4.12,0,6.72-2.24,6.72-5.75,0-3.77-2.19-5.35-8.3-7.59-6.01-2.09-9.88-4.84-9.88-10.85s4.74-10.54,11.87-10.54c4.28,0,8.1,1.17,10.59,3.01v7.59h-1.88c-.97-5.4-3.87-8.56-8.71-8.56-3.56,0-5.8,2.19-5.8,5.4,0,3.56,1.94,5.04,7.38,7.03,6.82,2.45,10.95,5.09,10.95,11.51,0,7.13-5.86,10.79-12.93,10.79-4.84,0-9.02-1.48-11.31-3.36"/><path class="cls-1" d="m466.56,445.42c3.56-.41,4.07-.71,4.07-3.51v-25.16c0-2.8-.51-3.11-4.07-3.51v-1.78h27.96l.25,9.17h-1.48c-2.5-5.55-3.97-7.13-8.05-7.13h-7.13v14.16h6.47c2.24,0,3.01-1.43,3.51-4.69h1.78v11.56h-1.78c-.51-3.26-1.27-4.63-3.51-4.63h-6.47v11.81c0,2.75,1.37,3.46,4.53,3.46h3.16c4.12,0,5.55-2.09,8.96-8.15h1.78l-1.58,10.18h-28.41v-1.78Z"/><path class="cls-1" d="m521.54,442.06c0,2.8,1.12,2.95,4.53,3.36v1.78h-16.35v-1.78c3.47-.41,4.59-.56,4.59-3.36v-8.61l-10.24-18.33c-.76-1.38-1.58-1.68-3-1.88v-1.78h15.33v1.78c-3.1.1-3.97.51-3.97,1.83,0,.97.46,1.68,1.07,2.8l7.08,12.37,6.62-12.27c.46-.92,1.07-2.09,1.07-2.9,0-1.33-1.12-1.73-4.03-1.83v-1.78h10.24v1.78c-1.42.2-2.34.61-3,1.88l-9.93,18.23v8.71Z"/><path class="cls-1" d="m314.98,513.2v-6.25h1.26v6.39c0,2.38-1.43,3.78-3.72,3.78s-3.71-1.41-3.71-3.78v-6.39h1.27v6.25c0,1.85.84,2.84,2.44,2.84s2.47-.99,2.47-2.84"/><polygon class="cls-1" points="326.06 506.95 326.06 514.81 326.03 514.81 320.88 506.95 319.6 506.95 319.6 516.93 320.82 516.93 320.82 508.99 320.85 508.99 326.13 516.93 327.28 516.93 327.28 506.95 326.06 506.95"/><rect class="cls-1" x="330.79" y="506.95" width="1.26" height="9.99"/><polygon class="cls-1" points="341.84 506.95 338.89 515.64 338.87 515.64 335.92 506.95 334.6 506.95 338.13 516.93 339.57 516.93 343.11 506.95 341.84 506.95"/><polygon class="cls-1" points="345.67 506.95 345.67 516.93 351.95 516.93 351.95 515.83 346.9 515.83 346.9 512.4 351.4 512.4 351.4 511.3 346.9 511.3 346.9 508.05 351.95 508.05 351.95 506.95 345.67 506.95"/><path class="cls-1" d="m358.87,508.01h-2.59v3.63h2.6c1.31,0,1.97-.62,1.97-1.85s-.67-1.78-1.99-1.78m2.39,8.93c-.19-.24-.33-.49-.4-.9l-.43-1.82c-.25-1.09-.79-1.51-2.06-1.51h-2.08v4.23h-1.26v-9.99h3.87c2.17,0,3.31.97,3.31,2.78,0,.72-.22,1.31-.67,1.78-.43.46-1,.72-1.68.73v.03c1,.12,1.52.61,1.76,1.63l.49,2.02c.08.34.27.7.51,1.02h-1.36Z"/><path class="cls-1" d="m370.72,516.34c-.64.52-1.47.78-2.47.78-2.05,0-3.51-1.12-3.77-2.93l1.15-.36c.18,1.38,1.24,2.26,2.62,2.26s2.21-.67,2.21-1.75c0-.58-.27-1-.85-1.32-.3-.17-.61-.3-1.56-.55-.64-.18-1.11-.33-1.4-.45-.28-.12-.54-.25-.75-.4-.66-.48-.97-1.14-.97-2.02,0-.82.31-1.51.93-2.03.63-.52,1.42-.79,2.38-.79,1.97,0,3.18.94,3.38,2.68l-1.17.25c-.13-1.15-.99-1.9-2.2-1.9s-2.11.7-2.11,1.73c0,.58.25.99.84,1.3.3.16.63.28,1.54.52.64.18,1.12.33,1.42.46.3.12.55.26.76.41.66.48.97,1.15.97,2.06,0,.85-.31,1.53-.96,2.05"/><rect class="cls-1" x="374.57" y="506.95" width="1.26" height="9.99"/><polygon class="cls-1" points="378.41 506.95 378.41 508.05 381.84 508.05 381.84 516.93 383.09 516.93 383.09 508.05 386.52 508.05 386.52 506.95 378.41 506.95"/><polygon class="cls-1" points="395.11 506.95 392.35 511.82 392.31 511.82 389.56 506.95 388.17 506.95 391.68 513.02 391.68 516.93 392.94 516.93 392.94 513.02 396.44 506.95 395.11 506.95"/><path class="cls-1" d="m409.44,508.94c-.54-.73-1.29-1.11-2.23-1.11s-1.69.37-2.24,1.11c-.54.73-.81,1.73-.81,3.01s.27,2.27.81,3.01c.55.73,1.3,1.11,2.24,1.11s1.69-.37,2.23-1.11c.55-.73.82-1.73.82-3.01s-.27-2.27-.82-3.01m-5.43-.76c.79-.94,1.87-1.4,3.2-1.4s2.41.46,3.2,1.4c.79.93,1.2,2.18,1.2,3.77s-.4,2.84-1.2,3.78c-.79.93-1.87,1.39-3.2,1.39s-2.41-.46-3.2-1.39c-.79-.94-1.2-2.2-1.2-3.78s.41-2.84,1.2-3.77"/><polygon class="cls-1" points="414.47 506.95 414.47 516.93 415.73 516.93 415.73 512.49 419.97 512.49 419.97 511.39 415.73 511.39 415.73 508.05 420.49 508.05 420.49 506.95 414.47 506.95"/><polygon class="cls-1" points="434.28 506.95 434.28 514.81 434.25 514.81 429.1 506.95 427.82 506.95 427.82 516.93 429.04 516.93 429.04 508.99 429.07 508.99 434.35 516.93 435.5 516.93 435.5 506.95 434.28 506.95"/><polygon class="cls-1" points="439.01 506.95 439.01 516.93 445.29 516.93 445.29 515.83 440.23 515.83 440.23 512.4 444.73 512.4 444.73 511.3 440.23 511.3 440.23 508.05 445.29 508.05 445.29 506.95 439.01 506.95"/><polygon class="cls-1" points="458.27 506.95 456.24 515.34 456.18 515.34 454.15 506.95 452.81 506.95 450.78 515.34 450.74 515.34 448.69 506.95 447.42 506.95 450.02 516.93 451.35 516.93 453.44 508.67 453.49 508.67 455.58 516.93 456.91 516.93 459.51 506.95 458.27 506.95"/><polygon class="cls-1" points="466.13 506.95 466.13 508.05 471.58 508.05 466.03 515.99 466.03 516.93 473.13 516.93 473.13 515.83 467.52 515.83 473.09 507.89 473.09 506.95 466.13 506.95"/><polygon class="cls-1" points="476.19 506.95 476.19 516.93 482.47 516.93 482.47 515.83 477.41 515.83 477.41 512.4 481.91 512.4 481.91 511.3 477.41 511.3 477.41 508.05 482.47 508.05 482.47 506.95 476.19 506.95"/><path class="cls-1" d="m488.95,508.31h.03l1.73,4.77h-3.48l1.72-4.77Zm-.66-1.36l-3.69,9.99h1.24l1-2.8h4.24l1.02,2.8h1.27l-3.7-9.99h-1.39Z"/><polygon class="cls-1" points="495.94 506.95 495.94 516.93 502.17 516.93 502.17 515.83 497.19 515.83 497.19 506.95 495.94 506.95"/><path class="cls-1" d="m508.38,508.31h.03l1.73,4.77h-3.48l1.72-4.77Zm-.66-1.36l-3.69,9.99h1.24l1-2.8h4.25l1.02,2.8h1.27l-3.69-9.99h-1.39Z"/><polygon class="cls-1" points="521.83 506.95 521.83 514.81 521.8 514.81 516.66 506.95 515.37 506.95 515.37 516.93 516.6 516.93 516.6 508.99 516.63 508.99 521.91 516.93 523.06 516.93 523.06 506.95 521.83 506.95"/><path class="cls-1" d="m527.82,508.02v7.84h1.72c2.27,0,3.62-1.39,3.62-3.95s-1.3-3.89-3.62-3.89h-1.72Zm-1.26,8.91v-9.99h2.98c3.11,0,4.93,1.8,4.93,4.97s-1.87,5.02-4.93,5.02h-2.98Z"/><rect class="cls-1" x="308.68" y="399.32" width="225.79" height=".98"/><rect class="cls-1" x="308.68" y="494.35" width="225.79" height=".98"/><line class="cls-2" x1="369.53" y1="364.38" x2="384.01" y2="364.38"/></svg>