<svg width="84" height="83" xmlns="http://www.w3.org/2000/svg" xmlns:xlink="http://www.w3.org/1999/xlink" xml:space="preserve" overflow="hidden"><defs><clipPath id="clip0"><rect x="2765" y="1062" width="84" height="83"/></clipPath><linearGradient x1="2771.5" y1="1068.5" x2="2842.5" y2="1138.5" gradientUnits="userSpaceOnUse" spreadMethod="reflect" id="fill1"><stop offset="0" stop-color="#7F7F7F"/><stop offset="0.78" stop-color="#262626"/><stop offset="1" stop-color="#262626"/></linearGradient></defs><g clip-path="url(#clip0)" transform="translate(-2765 -1062)"><path d="M2772 1103.5C2772 1083.89 2787.67 1068 2807 1068 2826.33 1068 2842 1083.89 2842 1103.5 2842 1123.11 2826.33 1139 2807 1139 2787.67 1139 2772 1123.11 2772 1103.5Z" fill="url(#fill1)" fill-rule="evenodd"/><path d="M2765 1103.5C2765 1080.58 2783.8 1062 2807 1062 2830.2 1062 2849 1080.58 2849 1103.5 2849 1126.42 2830.2 1145 2807 1145 2783.8 1145 2765 1126.42 2765 1103.5Z" fill="#595959" fill-rule="evenodd"/><path d="M2807 1072.19C2789.46 1072.19 2775.24 1086.21 2775.24 1103.5 2775.24 1120.79 2789.46 1134.81 2807 1134.81 2824.54 1134.81 2838.76 1120.79 2838.76 1103.5 2838.76 1086.21 2824.54 1072.19 2807 1072.19ZM2807 1069C2826.33 1069 2842 1084.45 2842 1103.5 2842 1122.55 2826.33 1138 2807 1138 2787.67 1138 2772 1122.55 2772 1103.5 2772 1084.45 2787.67 1069 2807 1069Z" fill="#262626" fill-rule="evenodd"/><path d="M2814.04 1098.36 2806.55 1105.37 2806.58 1105.45ZM2825.09 1073 2827.56 1074.6 2827.68 1074.48 2832.71 1078.6 2833.63 1079.72 2833.73 1079.62 2837 1083.57 2807.86 1111.32 2807.65 1111.21 2790.12 1120.82 2790.06 1120.75 2784.51 1124 2784 1123.75 2784.13 1123.17 2787.84 1117.38 2787.85 1117.4 2797.29 1101.48 2797.47 1101.53 2811.25 1087.3C2815.92 1082.42 2820.6 1077.54 2825.09 1073Z" fill="#FCB002" fill-rule="evenodd"/></g></svg>