<svg width="1150" height="928" xmlns="http://www.w3.org/2000/svg" xmlns:xlink="http://www.w3.org/1999/xlink" xml:space="preserve" overflow="hidden"><g transform="translate(-1459 -1190)"><path d="M1468.58 2076.19C1468.58 2053.26 1720.87 2034.69 2032.08 2034.69 2343.29 2034.69 2595.58 2053.26 2595.58 2076.19 2595.58 2099.12 2343.29 2117.69 2032.08 2117.69 1720.87 2117.69 1468.58 2099.12 1468.58 2076.19Z" fill="#D2E6EF" fill-rule="evenodd"/><path d="M1470.5 1274.89C1470.5 1234.36 1503.36 1201.5 1543.89 1201.5L2524.11 1201.5C2564.64 1201.5 2597.5 1234.36 2597.5 1274.89L2597.5 1986.11C2597.5 2026.64 2564.64 2059.5 2524.11 2059.5L1543.89 2059.5C1503.36 2059.5 1470.5 2026.64 1470.5 1986.11Z" stroke="#4B545D" stroke-width="22.9167" stroke-miterlimit="8" fill="#FFFFFF" fill-rule="evenodd"/><path d="M1550.5 1349.13C1550.5 1330.56 1565.56 1315.5 1584.13 1315.5L2483.87 1315.5C2502.44 1315.5 2517.5 1330.56 2517.5 1349.13L2517.5 1961.89C2517.5 1980.46 2502.44 1995.52 2483.87 1995.52L1584.13 1995.52C1565.56 1995.52 1550.5 1980.46 1550.5 1961.89Z" stroke="#4B545D" stroke-width="22.9167" stroke-miterlimit="8" fill="#FFFFFF" fill-rule="evenodd"/><path d="M1997.5 1259C1997.5 1238.84 2013.84 1222.5 2034 1222.5 2054.16 1222.5 2070.5 1238.84 2070.5 1259 2070.5 1279.16 2054.16 1295.5 2034 1295.5 2013.84 1295.5 1997.5 1279.16 1997.5 1259Z" stroke="#4B545D" stroke-width="22.9167" stroke-miterlimit="8" fill="#FFFFFF" fill-rule="evenodd"/><path d="M1829.06 1794.02C1829.06 1777.83 1842.21 1764.69 1858.39 1764.69L1975.73 1764.69C1991.91 1764.69 2005.06 1777.83 2005.06 1794.02L2005.06 1911.35C2005.06 1927.54 1991.91 1940.69 1975.73 1940.69L1858.39 1940.69C1842.21 1940.69 1829.06 1927.54 1829.06 1911.35Z" fill="#5ABF89" fill-rule="evenodd"/><path d="M1581.07 1794.02C1581.07 1777.83 1594.14 1764.69 1610.23 1764.69L1726.9 1764.69C1742.99 1764.69 1756.06 1777.83 1756.06 1794.02L1756.06 1911.35C1756.06 1927.54 1742.99 1940.69 1726.9 1940.69L1610.23 1940.69C1594.14 1940.69 1581.07 1927.54 1581.07 1911.35Z" fill="#D2E6EF" fill-rule="evenodd"/><path d="M1581.07 1563.02C1581.07 1546.82 1594.14 1533.69 1610.23 1533.69L1726.9 1533.69C1742.99 1533.69 1756.06 1546.82 1756.06 1563.02L1756.06 1680.35C1756.06 1696.55 1742.99 1709.69 1726.9 1709.69L1610.23 1709.69C1594.14 1709.69 1581.07 1696.55 1581.07 1680.35Z" fill="#5ABF89" fill-rule="evenodd"/><path d="M1822.06 1560.02C1822.06 1543.82 1835.21 1530.69 1851.39 1530.69L1968.73 1530.69C1984.91 1530.69 1998.06 1543.82 1998.06 1560.02L1998.06 1677.35C1998.06 1693.55 1984.91 1706.69 1968.73 1706.69L1851.39 1706.69C1835.21 1706.69 1822.06 1693.55 1822.06 1677.35Z" fill="#D2E6EF" fill-rule="evenodd"/><path d="M2308.06 1794.02C2308.06 1777.83 2321.21 1764.69 2337.39 1764.69L2454.73 1764.69C2470.91 1764.69 2484.06 1777.83 2484.06 1794.02L2484.06 1911.35C2484.06 1927.54 2470.91 1940.69 2454.73 1940.69L2337.39 1940.69C2321.21 1940.69 2308.06 1927.54 2308.06 1911.35Z" fill="#D2E6EF" fill-rule="evenodd"/><path d="M2060.06 1794.02C2060.06 1777.83 2073.21 1764.69 2089.39 1764.69L2206.73 1764.69C2222.91 1764.69 2236.06 1777.83 2236.06 1794.02L2236.06 1911.35C2236.06 1927.54 2222.91 1940.69 2206.73 1940.69L2089.39 1940.69C2073.21 1940.69 2060.06 1927.54 2060.06 1911.35Z" fill="#D2E6EF" fill-rule="evenodd"/><path d="M2060.06 1563.02C2060.06 1546.82 2073.21 1533.69 2089.39 1533.69L2206.73 1533.69C2222.91 1533.69 2236.06 1546.82 2236.06 1563.02L2236.06 1680.35C2236.06 1696.55 2222.91 1709.69 2206.73 1709.69L2089.39 1709.69C2073.21 1709.69 2060.06 1696.55 2060.06 1680.35Z" fill="#D2E6EF" fill-rule="evenodd"/><path d="M2301.06 1560.02C2301.06 1543.82 2314.21 1530.69 2330.39 1530.69L2447.73 1530.69C2463.91 1530.69 2477.06 1543.82 2477.06 1560.02L2477.06 1677.35C2477.06 1693.55 2463.91 1706.69 2447.73 1706.69L2330.39 1706.69C2314.21 1706.69 2301.06 1693.55 2301.06 1677.35Z" fill="#5ABF89" fill-rule="evenodd"/><path d="M1749.59 1364.68C1754.94 1364.68 1759.6 1365.36 1763.61 1366.72 1767.66 1368.08 1771.02 1370 1773.69 1372.48 1776.4 1374.96 1778.43 1377.93 1779.73 1381.38 1781.07 1384.84 1781.75 1388.66 1781.75 1392.85 1781.75 1396.46 1781.27 1399.81 1780.31 1402.91 1779.39 1406.01 1777.98 1408.76 1776.16 1411.15 1774.31 1413.54 1772.05 1415.58 1769.41 1417.26 1766.73 1418.94 1763.65 1420.11 1760.15 1420.76L1760.15 1420.94C1764.13 1421.35 1767.76 1422.34 1771.05 1423.91 1774.31 1425.47 1777.16 1427.43 1779.52 1429.79 1781.89 1432.16 1783.74 1434.92 1785.08 1438.08 1786.41 1441.24 1787.07 1444.62 1787.07 1448.22 1787.07 1453.48 1786.14 1458.22 1784.32 1462.44 1782.47 1466.66 1779.83 1470.28 1776.4 1473.29 1772.97 1476.3 1768.76 1478.62 1763.72 1480.25 1758.68 1481.87 1753.02 1482.68 1746.68 1482.68 1742.84 1482.68 1739.24 1482.37 1735.88 1481.75 1732.55 1481.13 1729.57 1480.4 1726.96 1479.54 1724.36 1478.68 1722.2 1477.8 1720.48 1476.88 1718.77 1475.96 1717.67 1475.3 1717.23 1474.89 1716.81 1474.48 1716.47 1474.06 1716.23 1473.65 1715.99 1473.23 1715.79 1472.73 1715.61 1472.14 1715.41 1471.55 1715.27 1470.83 1715.2 1469.97 1715.1 1469.11 1715.07 1468.07 1715.07 1466.83 1715.07 1464.7 1715.27 1463.22 1715.72 1462.4 1716.13 1461.57 1716.75 1461.16 1717.53 1461.16 1718.08 1461.16 1719.15 1461.63 1720.76 1462.57 1722.37 1463.52 1724.43 1464.54 1726.96 1465.63 1729.47 1466.72 1732.41 1467.74 1735.77 1468.69 1739.17 1469.63 1742.91 1470.1 1747.02 1470.1 1751.03 1470.1 1754.56 1469.6 1757.61 1468.6 1760.63 1467.59 1763.17 1466.18 1765.26 1464.34 1767.32 1462.52 1768.86 1460.34 1769.89 1457.83 1770.92 1455.32 1771.43 1452.59 1771.43 1449.64 1771.43 1446.39 1770.78 1443.47 1769.48 1440.87 1768.14 1438.27 1766.22 1436.03 1763.68 1434.14 1761.15 1432.25 1758.03 1430.8 1754.36 1429.79 1750.65 1428.79 1746.44 1428.29 1741.74 1428.29L1730.46 1428.29C1729.98 1428.29 1729.5 1428.18 1729.02 1427.98 1728.57 1427.77 1728.16 1427.43 1727.85 1426.96 1727.51 1426.49 1727.24 1425.87 1727.03 1425.1 1726.79 1424.33 1726.69 1423.33 1726.69 1422.09 1726.69 1420.97 1726.79 1420.04 1726.96 1419.3 1727.13 1418.56 1727.41 1417.97 1727.72 1417.53 1728.03 1417.08 1728.4 1416.76 1728.81 1416.55 1729.23 1416.34 1729.71 1416.24 1730.25 1416.24L1740.27 1416.24C1744.17 1416.24 1747.71 1415.74 1750.79 1414.74 1753.91 1413.73 1756.55 1412.29 1758.71 1410.39 1760.87 1408.51 1762.52 1406.25 1763.68 1403.62 1764.81 1400.99 1765.4 1398.05 1765.4 1394.8 1765.4 1392.44 1765.02 1390.18 1764.27 1388.03 1763.48 1385.87 1762.31 1384 1760.8 1382.4 1759.26 1380.81 1757.27 1379.55 1754.87 1378.64 1752.47 1377.72 1749.73 1377.26 1746.57 1377.26 1743.15 1377.26 1739.99 1377.78 1737.11 1378.81 1734.27 1379.85 1731.69 1380.95 1729.47 1382.13 1727.2 1383.32 1725.35 1384.42 1723.84 1385.46 1722.37 1386.49 1721.34 1387.01 1720.76 1387.01 1720.35 1387.01 1719.97 1386.93 1719.63 1386.79 1719.32 1386.64 1719.04 1386.34 1718.84 1385.9 1718.63 1385.46 1718.49 1384.84 1718.39 1384.04 1718.32 1383.24 1718.25 1382.19 1718.25 1380.89 1718.25 1380.01 1718.29 1379.23 1718.36 1378.55 1718.43 1377.87 1718.53 1377.28 1718.7 1376.77 1718.87 1376.27 1719.08 1375.82 1719.32 1375.4 1719.56 1374.99 1719.97 1374.5 1720.52 1373.94 1721.1 1373.38 1722.23 1372.57 1723.95 1371.5 1725.66 1370.44 1727.79 1369.39 1730.29 1368.36 1732.79 1367.33 1735.71 1366.45 1739 1365.75 1742.29 1365.04 1745.82 1364.68 1749.59 1364.68Z" fill="#5ABF89" fill-rule="evenodd"/><path d="M1845.66 1364.68C1852.91 1364.68 1858.99 1365.97 1863.9 1368.54 1868.81 1371.1 1872.76 1374.89 1875.75 1379.88 1878.77 1384.87 1880.9 1391.01 1882.18 1398.3 1883.45 1405.6 1884.06 1413.97 1884.06 1423.42 1884.06 1432.22 1883.38 1440.25 1882 1447.51 1880.6 1454.78 1878.33 1461.02 1875.1 1466.25 1871.91 1471.48 1867.71 1475.52 1862.53 1478.39 1857.34 1481.25 1850.95 1482.68 1843.36 1482.68 1836.18 1482.68 1830.14 1481.4 1825.23 1478.83 1820.31 1476.26 1816.37 1472.48 1813.38 1467.49 1810.35 1462.5 1808.22 1456.36 1806.95 1449.06 1805.68 1441.77 1805.06 1433.4 1805.06 1423.95 1805.06 1415.21 1805.79 1407.19 1807.19 1399.9 1808.6 1392.6 1810.9 1386.34 1814.06 1381.12 1817.26 1375.89 1821.41 1371.84 1826.6 1368.98 1831.79 1366.12 1838.14 1364.68 1845.66 1364.68ZM1844.77 1377.17C1839.79 1377.17 1835.74 1378.35 1832.61 1380.72 1829.49 1383.08 1827.01 1386.33 1825.23 1390.46 1823.44 1394.6 1822.2 1399.44 1821.59 1404.99 1820.93 1410.54 1820.59 1416.51 1820.59 1422.89 1820.59 1431.45 1821.04 1438.73 1821.93 1444.72 1822.82 1450.72 1824.2 1455.61 1826.12 1459.39 1828.04 1463.16 1830.48 1465.91 1833.44 1467.62 1836.42 1469.34 1840.03 1470.19 1844.25 1470.19 1847.55 1470.19 1850.44 1469.66 1852.95 1468.6 1855.45 1467.53 1857.58 1466.01 1859.4 1464.04 1861.19 1462.06 1862.67 1459.68 1863.87 1456.9 1865.04 1454.13 1865.96 1451.06 1866.68 1447.69 1867.37 1444.32 1867.85 1440.68 1868.13 1436.75 1868.4 1432.82 1868.54 1428.73 1868.54 1424.48 1868.54 1418.75 1868.33 1413.62 1867.92 1409.07 1867.51 1404.52 1866.89 1400.5 1866.1 1397.02 1865.31 1393.53 1864.28 1390.54 1863.01 1388.03 1861.74 1385.52 1860.23 1383.45 1858.48 1381.82 1856.69 1380.2 1854.7 1379.02 1852.43 1378.28 1850.16 1377.54 1847.62 1377.17 1844.77 1377.17Z" fill="#5ABF89" fill-rule="evenodd"/><path d="M1580.48 1364.68 1648.36 1364.68C1649.22 1364.68 1649.95 1364.77 1650.57 1364.95 1651.23 1365.14 1651.68 1365.5 1652.02 1366.04 1652.37 1366.59 1652.61 1367.29 1652.78 1368.13 1652.96 1368.98 1653.06 1370.07 1653.06 1371.4 1653.06 1372.49 1653.02 1373.47 1652.92 1374.35 1652.82 1375.23 1652.71 1376.07 1652.58 1376.89 1652.4 1377.71 1652.2 1378.5 1651.92 1379.25 1651.68 1380.01 1651.33 1380.81 1650.99 1381.66L1609.01 1479.14C1608.74 1479.87 1608.36 1480.46 1607.91 1480.91 1607.46 1481.37 1606.87 1481.73 1606.18 1482 1605.49 1482.27 1604.63 1482.46 1603.52 1482.55 1602.45 1482.64 1601.14 1482.68 1599.58 1482.68 1597.54 1482.68 1595.96 1482.59 1594.81 1482.41 1593.64 1482.23 1592.85 1481.94 1592.33 1481.55 1591.81 1481.16 1591.6 1480.67 1591.64 1480.1 1591.71 1479.52 1591.91 1478.84 1592.29 1478.05L1636.41 1378.39 1580.48 1378.39C1579.34 1378.39 1578.47 1377.78 1577.92 1376.57 1577.34 1375.36 1577.06 1373.67 1577.06 1371.49 1577.06 1370.34 1577.13 1369.34 1577.3 1368.49 1577.44 1367.65 1577.65 1366.94 1577.96 1366.36 1578.27 1365.79 1578.61 1365.36 1579.03 1365.09 1579.48 1364.82 1579.93 1364.68 1580.48 1364.68Z" fill="#5ABF89" fill-rule="evenodd"/><path d="M1685.57 1399.68C1687.24 1399.68 1688.63 1399.85 1689.69 1400.18 1690.78 1400.51 1691.66 1401.09 1692.34 1401.91 1693.02 1402.73 1693.46 1403.82 1693.7 1405.18 1693.94 1406.54 1694.07 1408.26 1694.07 1410.32 1694.07 1412.26 1693.94 1413.89 1693.7 1415.23 1693.46 1416.56 1693.02 1417.64 1692.34 1418.45 1691.66 1419.27 1690.78 1419.85 1689.69 1420.18 1688.63 1420.51 1687.24 1420.68 1685.57 1420.68 1683.84 1420.68 1682.45 1420.51 1681.36 1420.18 1680.27 1419.85 1679.42 1419.27 1678.77 1418.45 1678.13 1417.64 1677.69 1416.56 1677.45 1415.23 1677.21 1413.89 1677.07 1412.26 1677.07 1410.32 1677.07 1408.26 1677.21 1406.54 1677.45 1405.18 1677.69 1403.82 1678.13 1402.73 1678.77 1401.91 1679.42 1401.09 1680.27 1400.51 1681.36 1400.18 1682.45 1399.85 1683.84 1399.68 1685.57 1399.68Z" fill="#5ABF89" fill-rule="evenodd"/><path d="M1685.57 1461.68C1687.24 1461.68 1688.63 1461.86 1689.69 1462.23 1690.78 1462.59 1691.66 1463.16 1692.34 1463.95 1693.02 1464.74 1693.46 1465.82 1693.7 1467.18 1693.94 1468.54 1694.07 1470.23 1694.07 1472.23 1694.07 1474.22 1693.94 1475.89 1693.7 1477.22 1693.46 1478.56 1693.02 1479.64 1692.34 1480.45 1691.66 1481.27 1690.78 1481.85 1689.69 1482.18 1688.63 1482.51 1687.24 1482.68 1685.57 1482.68 1683.84 1482.68 1682.45 1482.51 1681.36 1482.18 1680.27 1481.85 1679.42 1481.27 1678.77 1480.45 1678.13 1479.64 1677.69 1478.56 1677.45 1477.22 1677.21 1475.89 1677.07 1474.22 1677.07 1472.23 1677.07 1470.23 1677.21 1468.54 1677.45 1467.18 1677.69 1465.82 1678.13 1464.74 1678.77 1463.95 1679.42 1463.16 1680.27 1462.59 1681.36 1462.23 1682.45 1461.86 1683.84 1461.68 1685.57 1461.68Z" fill="#5ABF89" fill-rule="evenodd"/><path d="M2402.05 1484.02C2402.05 1492.75 2394.95 1499.69 2386.07 1499.69 2377.15 1499.69 2370.05 1492.75 2370.05 1484.02 2370.05 1475.29 2386.07 1452.69 2386.07 1452.69 2386.07 1452.69 2402.05 1475.52 2402.05 1484.02Z" fill="#D2E6EF" fill-rule="evenodd"/><path d="M2436.05 1475.35C2436.05 1481.7 2431 1486.69 2424.54 1486.69 2418.09 1486.69 2413.05 1481.7 2413.05 1475.35 2413.05 1469 2424.54 1452.68 2424.54 1452.68 2424.54 1452.68 2436.05 1469.23 2436.05 1475.35Z" fill="#D2E6EF" fill-rule="evenodd"/><path d="M2359.05 1475.35C2359.05 1481.7 2354 1486.69 2347.54 1486.69 2341.09 1486.69 2336.05 1481.7 2336.05 1475.35 2336.05 1469 2347.54 1452.68 2347.54 1452.68 2347.54 1452.68 2359.05 1469.23 2359.05 1475.35Z" fill="#D2E6EF" fill-rule="evenodd"/><path d="M2463.06 1421.98C2463.06 1415.64 2460.33 1409.76 2455.56 1405.69 2450.79 1401.62 2444.46 1399.81 2438.1 1400.94L2438.1 1400.72C2438.1 1392.12 2434.02 1383.76 2426.76 1378.78 2419.71 1373.58 2410.65 1372.22 2402.25 1374.94 2395.24 1361.82 2380.03 1355.03 2365.51 1358.65 2350.99 1362.05 2340.55 1374.94 2340.34 1389.86 2330.35 1388.05 2320.12 1391.9 2314 1399.81 2307.67 1407.73 2306.29 1418.36 2310.37 1427.63 2314.45 1436.9 2323.3 1443.01 2333.53 1443.69L2442.42 1443.69C2454.21 1443.01 2463.06 1433.51 2463.06 1421.98Z" fill="#D2E6EF" fill-rule="evenodd"/><path d="M1973.86 2030.32 2088.86 2030.32" stroke="#4B545D" stroke-width="22.9167" stroke-linecap="round" stroke-miterlimit="8" fill="none" fill-rule="evenodd"/><path d="M2050.66 1240.94C2060.27 1250.78 2060.27 1266.73 2050.66 1276.56 2041.05 1286.4 2025.48 1286.4 2015.87 1276.56 2032.68 1279.02 2048.26 1267.06 2050.66 1249.85 2051.08 1246.89 2051.08 1243.89 2050.66 1240.94Z" fill="#D2E6EF" fill-rule="evenodd"/></g></svg>