<?xml version="1.0" encoding="UTF-8" standalone="no"?>
<!-- Created with Inkscape (http://www.inkscape.org/) -->

<svg
   width="150.14003mm"
   height="168.20177mm"
   viewBox="0 0 150.14003 168.20177"
   version="1.1"
   id="svg1"
   xml:space="preserve"
   xmlns:inkscape="http://www.inkscape.org/namespaces/inkscape"
   xmlns:sodipodi="http://sodipodi.sourceforge.net/DTD/sodipodi-0.dtd"
   xmlns="http://www.w3.org/2000/svg"
   xmlns:svg="http://www.w3.org/2000/svg"><sodipodi:namedview
     id="namedview1"
     pagecolor="#ffffff"
     bordercolor="#000000"
     borderopacity="0.25"
     inkscape:showpageshadow="2"
     inkscape:pageopacity="0.0"
     inkscape:pagecheckerboard="0"
     inkscape:deskcolor="#d1d1d1"
     inkscape:document-units="mm" /><defs
     id="defs1" /><g
     inkscape:label="Layer 1"
     inkscape:groupmode="layer"
     id="layer1"
     transform="translate(-34.290601,-15.940657)"><g
       id="g25"
       style="stroke:#000000"><path
         style="fill:none;stroke:#000000;stroke-width:0.365;stroke-dasharray:none"
         d="m 65.535256,94.020753 c 0,0 2.01405,14.431107 3.351236,20.107407 1.337186,5.6763 2.311273,9.21512 4.282133,13.96348 1.97086,4.74836 3.788669,10.34218 7.63337,14.33584 3.844701,3.99366 9.852576,6.41574 14.708195,8.56426 4.85562,2.14852 8.49722,4.85337 14.14966,4.46832 5.65244,-0.38505 11.73406,-4.65086 17.31471,-8.19191 5.58065,-3.54105 10.31777,-2.69845 15.82528,-13.03258 5.50751,-10.33413 4.84067,-49.523804 4.84067,-49.523804"
         id="path1"
         sodipodi:nodetypes="czzzzzzzc" /><path
         style="fill:none;stroke:#000000;stroke-width:0.365001;stroke-dasharray:none"
         d="m 92.676195,134.00615 c 0,0 2.185967,0.99861 4.323433,0.97414 2.137466,-0.0245 4.820882,-1.64653 6.702472,-1.67562 1.88159,-0.0291 3.55806,0.9309 4.28213,0.9309 0.72407,-0.13165 1.64302,-0.91868 3.53742,-1.30326 1.8944,-0.38458 5.62235,0.16795 7.81954,-0.37236 2.19719,-0.54031 3.96237,-0.97219 5.21303,-2.42033"
         id="path2"
         sodipodi:nodetypes="czzczzc" /><path
         style="fill:none;stroke:#000000;stroke-width:0.365001;stroke-dasharray:none"
         d="m 98.012632,117.16755 c 0,0 -1.455512,4.08125 0.263298,5.72673 1.71881,1.64548 4.01529,0.85572 4.01529,0.85572"
         id="path3"
         sodipodi:nodetypes="czc" /><path
         style="fill:none;stroke:#000000;stroke-width:0.365001;stroke-dasharray:none"
         d="m 116.90426,117.95745 c 0,0 0.27898,2.4673 -0.59243,3.48869 -0.87141,1.02139 -4.27859,1.44814 -4.27859,1.44814"
         id="path4"
         sodipodi:nodetypes="czc" /><path
         style="fill:none;stroke:#000000;stroke-width:0.365001;stroke-dasharray:none"
         d="m 101.30385,122.49933 c -1.25066,-0.65824 0.15254,-1.9598 1.44814,-2.10638 1.2956,-0.14658 2.59075,2.50599 4.34442,2.43551 1.75367,-0.0705 3.24579,-3.21429 4.60771,-3.09375 1.36192,0.12054 2.30386,1.18484 1.90891,1.84308"
         id="path5"
         sodipodi:nodetypes="czzzc" /><path
         style="fill:none;stroke:#000000;stroke-width:0.365001;stroke-dasharray:none"
         d="m 103.74864,139.12278 c 3.24263,0.20169 6.19255,0.37871 9.72789,-0.37236"
         id="path6"
         sodipodi:nodetypes="cc" /><path
         style="fill:none;stroke:#000000;stroke-width:0.365001;stroke-dasharray:none"
         d="m 96.103722,103.60771 c 0,0 -2.894987,-5.536981 -8.557181,-5.002657 -5.662194,0.534324 -6.014008,3.065227 -8.162234,3.949467 -2.148226,0.88424 -4.607713,1.57979 -4.607713,1.57979"
         id="path7"
         sodipodi:nodetypes="czzc" /><path
         style="fill:none;stroke:#000000;stroke-width:0.365001;stroke-dasharray:none"
         d="m 116.50931,100.71144 c 0,0 4.28023,-6.407922 9.08377,-5.924208 4.80354,0.483714 6.19649,2.129858 7.2407,2.896277 1.04421,0.766419 4.34441,0.526595 4.34441,0.526595"
         id="path8"
         sodipodi:nodetypes="czzc" /><path
         style="fill:none;stroke:#000000;stroke-width:0.365001;stroke-dasharray:none"
         d="m 84.781913,99.131648 c 0,0 -0.789893,1.184842 -0.394946,3.291222 0.394947,2.10638 2.721427,3.35829 4.607713,3.29122 1.650845,-0.0587 3.41945,-1.55644 3.817818,-3.15957 0.332137,-1.33661 -0.789893,-2.896275 -0.789893,-2.896275"
         id="path9"
         sodipodi:nodetypes="czssc" /><path
         style="fill:none;stroke:#000000;stroke-width:0.365001;stroke-dasharray:none"
         d="m 121.51197,95.708776 c 0,0 -1.2661,1.792498 -0.5266,3.949468 0.7395,2.156966 1.90418,2.651656 4.60771,2.501326 2.70353,-0.15033 3.57592,-2.02645 3.81782,-3.554517 0.2419,-1.528068 -1.31649,-3.422872 -1.31649,-3.422872"
         id="path10"
         sodipodi:nodetypes="czzzc" /><circle
         style="fill:none;stroke:#000000;stroke-width:0.365001;stroke-dasharray:none"
         id="path11"
         cx="88.863029"
         cy="101.89627"
         r="1.8430851" /><circle
         style="fill:none;stroke:#000000;stroke-width:0.365001;stroke-dasharray:none"
         id="path11-6"
         cx="125.14659"
         cy="97.971107"
         r="1.8430851" /><path
         style="fill:none;stroke:#000000;stroke-width:0.365001;stroke-dasharray:none"
         d="m 94.918881,105.31915 c 0,0 -1.546774,-0.65831 -2.665889,0.32912 -1.119115,0.98744 -4.498916,0.78021 -6.681184,0.46077 -2.182268,-0.31944 -4.443153,-1.44814 -5.200134,-2.46842"
         id="path12"
         sodipodi:nodetypes="czzc" /><path
         style="fill:none;stroke:#000000;stroke-width:0.365001;stroke-dasharray:none"
         d="m 117.85175,102.21266 c 0,0 0.004,-0.18734 1.48944,-0.18618 1.48564,10e-4 5.0171,1.24009 7.3541,0.6676 2.337,-0.57249 5.73866,-3.245881 5.77157,-3.739565"
         id="path13"
         sodipodi:nodetypes="czzc" /><path
         style="fill:none;stroke:#000000;stroke-width:0.365001;stroke-dasharray:none"
         d="m 96.169548,94.458111 c 0,0 -6.151124,-2.862608 -10.72939,-2.698804 -4.578266,0.163804 -15.600398,5.13431 -15.600398,5.13431"
         id="path14"
         sodipodi:nodetypes="czc" /><path
         style="fill:none;stroke:#000000;stroke-width:0.365001;stroke-dasharray:none"
         d="m 112.45254,91.414236 c 0,0 12.8092,-4.980674 17.31472,-4.840671 4.50552,0.140003 8.56426,2.978875 8.56426,2.978875"
         id="path15"
         sodipodi:nodetypes="czc" /><path
         style="fill:none;stroke:#000000;stroke-width:0.365001;stroke-dasharray:none"
         d="m 84.060137,145.40635 c 3.071965,7.07483 1.145905,11.90227 -0.651629,15.6391 -2.347777,4.88071 -6.176854,5.3033 -14.149657,7.44719 -7.972803,2.14389 -31.278189,10.89151 -31.278189,10.89151"
         id="path16"
         sodipodi:nodetypes="cszc" /><path
         style="fill:none;stroke:#000000;stroke-width:0.365001;stroke-dasharray:none"
         d="m 139.15292,139.15292 c 0,0 -2.23802,9.87368 -1.44813,14.34974 0.78989,4.47606 5.56069,8.96077 13.55984,13.03324 7.99915,4.07247 30.54255,15.53458 30.54255,15.53458"
         id="path17"
         sodipodi:nodetypes="czzc" /><path
         style="fill:none;stroke:#000000;stroke-width:0.365001;stroke-dasharray:none"
         d="m 65.162897,94.020753 c 0,0 7.325079,-5.348491 9.495166,-8.005728 2.170087,-2.657237 1.020629,-4.588374 3.909774,-7.167917 2.889145,-2.579543 9.27486,-3.956267 13.963478,-5.678483 4.688618,-1.722216 10.746995,-1.664424 14.149655,-4.654491 3.40266,-2.990067 4.11106,-7.374328 5.30613,-11.077694 1.19507,-3.703366 1.42064,-8.257782 1.95488,-10.891512 0.53424,-2.63373 1.11708,-4.933762 1.11708,-4.933762"
         id="path18"
         sodipodi:nodetypes="czzzzzzc" /><path
         style="fill:none;stroke:#000000;stroke-width:0.365001;stroke-dasharray:none"
         d="m 113.7558,52.502678 c 0,0.465449 1.09747,8.723461 3.16506,11.636232 2.06759,2.912771 5.55529,2.852648 7.72646,5.306121 2.17117,2.453473 2.10903,7.002281 4.74758,9.122806 2.63855,2.120525 6.68345,1.568715 9.68134,2.606516 2.99789,1.037801 8.285,3.537413 8.285,3.537413"
         id="path19"
         sodipodi:nodetypes="czzzzc" /><path
         style="fill:none;stroke:#000000;stroke-width:0.365001;stroke-dasharray:none"
         d="m 116.36232,18.059432 c 0,0 -20.283257,-3.465036 -28.299317,-1.117078 -8.01606,2.347958 -17.500893,11.72932 -17.873252,12.474039 -0.372359,0.744719 -2.754357,4.202192 -5.585392,8.191908 -2.831035,3.989716 -9.385869,10.347287 -11.543143,15.639097 -2.157274,5.29181 -1.21673,9.462144 -2.047976,14.708195 -0.831246,5.246051 -3.158487,10.731255 -2.978875,16.756173 0.179612,6.024918 4.851644,12.227838 4.468313,18.617974 -0.383331,6.39014 -3.894871,11.88906 -6.70247,18.05943 -2.807599,6.17037 -8.73962,13.07011 -10.239883,18.80415 -1.500263,5.73404 -1.339754,10.01164 -0.186179,14.14966 1.153575,4.13802 5.76164,6.44019 6.143929,9.86752 0.382289,3.42733 -2.594373,6.05788 -2.978875,8.56427 -0.384502,2.50639 0.186179,6.14393 0.186179,6.14393"
         id="path20"
         sodipodi:nodetypes="czzzzzzzzzzzzc" /><path
         style="fill:none;stroke:#000000;stroke-width:0.365001;stroke-dasharray:none"
         d="m 115.98996,17.687072 c 0,0 10.89425,1.118003 14.05657,2.606516 3.16232,1.488513 2.92896,2.810556 5.11994,4.282134 2.19098,1.471578 5.95376,2.363236 8.09882,4.282133 2.14506,1.918897 2.24111,3.791539 4.5614,6.70247 2.32029,2.910931 7.98261,7.352652 9.68134,10.426062 1.69873,3.07341 0.8557,4.538042 1.76871,6.609382 0.91301,2.07134 2.98337,3.127095 3.63051,5.678479 0.64714,2.551384 -1.11302,5.420882 -0.65163,9.029716 0.46139,3.608834 4.09595,11.636233 4.09595,12.101682 0,0.46545 -2.26878,6.973528 -1.02399,10.705332 1.24479,3.731804 6.89336,5.985894 8.65736,9.495166 1.764,3.509276 2.51456,6.545396 2.04797,10.519156 -0.46659,3.97376 -4.26003,8.79837 -5.4923,12.10168 -1.23227,3.30331 -2.12866,4.88364 -2.23415,7.54028 -0.10549,2.65664 -0.326,4.46625 1.67561,7.91263 2.00161,3.44638 9.38209,6.1208 11.82241,10.51916 2.44032,4.39836 2.51344,13.7773 2.42034,14.14966 -0.0931,0.37236 -6.97035,7.76875 -7.72646,10.89151 -0.75611,3.12276 0.83781,5.86466 0.83781,5.86466"
         id="path21"
         sodipodi:nodetypes="czzzzzzzzzzzzzzzzzzc" /><path
         style="fill:none;stroke:#000000;stroke-width:0.365001;stroke-dasharray:none"
         d="m 96.367019,98.736702 c 2.106383,1.316488 2.369683,5.397608 2.369683,5.397608"
         id="path22"
         sodipodi:nodetypes="cc" /><path
         style="fill:none;stroke:#000000;stroke-width:0.365001;stroke-dasharray:none"
         d="m 114.13963,96.103722 c -2.63298,1.974734 -1.84309,6.845748 -1.84309,6.845748"
         id="path23"
         sodipodi:nodetypes="cc" /><path
         style="fill:none;stroke:#000000;stroke-width:0.365001;stroke-dasharray:none"
         d="m 80.057275,164.39668 c 11.170783,11.9155 33.698525,19.54887 33.698525,19.54887 0,0 26.06516,-12.66021 31.09201,-21.41066"
         id="path24"
         sodipodi:nodetypes="ccc" /><path
         style="fill:none;stroke:#000000;stroke-width:0.365001;stroke-dasharray:none"
         d="m 100.57979,132.17553 c 0,0 2.55647,-1.26485 3.81781,-1.44814 1.26134,-0.18329 3.55453,0.2633 3.55453,0.2633 0,0 1.33896,-0.92758 2.76462,-1.05319 1.42566,-0.12561 5.52926,1.05319 5.52926,1.05319"
         id="path25"
         sodipodi:nodetypes="czczc" /></g></g></svg>
