<svg width="2213" height="1774" xmlns="http://www.w3.org/2000/svg" xmlns:xlink="http://www.w3.org/1999/xlink" xml:space="preserve" overflow="hidden"><g transform="translate(-1375 -251)"><path d="M0 0 0.000360892 1768.3" stroke="#7F7F7F" stroke-width="2.29167" stroke-miterlimit="8" fill="#7F7F7F" fill-rule="evenodd" transform="matrix(1 0 0 -1 1376 2020.3)"/><path d="M0 0 0.000360892 1547.27" stroke="#7F7F7F" stroke-width="2.29167" stroke-miterlimit="8" fill="#7F7F7F" fill-rule="evenodd" transform="matrix(1 0 0 -1 1597 2020.27)"/><path d="M1376 252 3586.38 252" stroke="#7F7F7F" stroke-width="2.29167" stroke-miterlimit="8" fill="#7F7F7F" fill-rule="evenodd"/><path d="M3586 252 3586 2020.3" stroke="#7F7F7F" stroke-width="2.29167" stroke-miterlimit="8" fill="#7F7F7F" fill-rule="evenodd"/><path d="M0 0 1768.3 0.000360892" stroke="#7F7F7F" stroke-width="2.29167" stroke-miterlimit="8" fill="#7F7F7F" fill-rule="evenodd" transform="matrix(-1 0 0 1 3586.3 2020)"/><path d="M1597 473 3365.3 473" stroke="#7F7F7F" stroke-width="2.29167" stroke-miterlimit="8" fill="#7F7F7F" fill-rule="evenodd"/><path d="M3365 473 3365 1799.23" stroke="#7F7F7F" stroke-width="2.29167" stroke-miterlimit="8" fill="#7F7F7F" fill-rule="evenodd"/><path d="M0 0 0.000360892 1326.23" stroke="#7F7F7F" stroke-width="2.29167" stroke-miterlimit="8" fill="#7F7F7F" fill-rule="evenodd" transform="matrix(1 0 0 -1 1818 2020.23)"/><path d="M1818 694 3144.23 694" stroke="#7F7F7F" stroke-width="2.29167" stroke-miterlimit="8" fill="#7F7F7F" fill-rule="evenodd"/><path d="M3144 694 3144 1578.15" stroke="#7F7F7F" stroke-width="2.29167" stroke-miterlimit="8" fill="#7F7F7F" fill-rule="evenodd"/><path d="M0 0 1326.23 0.000360892" stroke="#7F7F7F" stroke-width="2.29167" stroke-miterlimit="8" fill="#7F7F7F" fill-rule="evenodd" transform="matrix(-1 0 0 1 3365.23 1799)"/><path d="M0 0 0.000360892 884.152" stroke="#7F7F7F" stroke-width="2.29167" stroke-miterlimit="8" fill="#7F7F7F" fill-rule="evenodd" transform="matrix(1 0 0 -1 2039 1799.15)"/><path d="M0 0 884.152 0.000360892" stroke="#7F7F7F" stroke-width="2.29167" stroke-miterlimit="8" fill="#7F7F7F" fill-rule="evenodd" transform="matrix(-1 0 0 1 3144.15 1578)"/><path d="M0 0 0.000360892 442.076" stroke="#7F7F7F" stroke-width="2.29167" stroke-miterlimit="8" fill="#7F7F7F" fill-rule="evenodd" transform="matrix(1 0 0 -1 2260 1578.08)"/><path d="M2039 915 2923.15 915" stroke="#7F7F7F" stroke-width="2.29167" stroke-miterlimit="8" fill="#7F7F7F" fill-rule="evenodd"/><path d="M2923 915 2923 1357.08" stroke="#7F7F7F" stroke-width="2.29167" stroke-miterlimit="8" fill="#7F7F7F" fill-rule="evenodd"/><path d="M0 0 442.076 0.000360892" stroke="#7F7F7F" stroke-width="2.29167" stroke-miterlimit="8" fill="#7F7F7F" fill-rule="evenodd" transform="matrix(-1 0 0 1 2923.08 1357)"/><path d="M2260 1136 2481.04 1136 2481.04 1136 2702.08 1136" stroke="#7F7F7F" stroke-width="2.29167" stroke-miterlimit="8" fill="none" fill-rule="evenodd"/><path d="M1467.25 2020.5 1467.25 1902 1447.5 1902 1487 1862.5 1526.5 1902 1506.75 1902 1506.75 2020.5Z" stroke="#7F7F7F" stroke-width="4.58333" stroke-miterlimit="8" fill="#7F7F7F" fill-rule="evenodd"/><path d="M1727.75 1862.5 1727.75 1981 1747.5 1981 1708 2020.5 1668.5 1981 1688.25 1981 1688.25 1862.5Z" stroke="#7F7F7F" stroke-width="4.58333" stroke-miterlimit="8" fill="#7F7F7F" fill-rule="evenodd"/></g></svg>