<svg width="280" height="377" xmlns="http://www.w3.org/2000/svg" xmlns:xlink="http://www.w3.org/1999/xlink" xml:space="preserve" overflow="hidden"><defs><clipPath id="clip0"><rect x="3361" y="860" width="280" height="377"/></clipPath></defs><g clip-path="url(#clip0)" transform="translate(-3361 -860)"><path d="M3361 1225C3361 1218.37 3423.68 1213 3501 1213 3578.32 1213 3641 1218.37 3641 1225 3641 1231.63 3578.32 1237 3501 1237 3423.68 1237 3361 1231.63 3361 1225Z" fill="#D2E6EF" fill-rule="evenodd"/><path d="M0.664373 66.6602C0.236519 67.6716 0 68.7836 0 69.9509 0 74.6199 3.785 78.4049 8.45405 78.4049L156.736 78.4049 121.779 138.952C119.445 142.996 120.83 148.166 124.873 150.501 128.917 152.835 134.087 151.45 136.422 147.406L209.373 21.0521 209.391 21.0194C211.726 16.9758 210.341 11.8054 206.297 9.47091L206.116 9.40995 191.781 1.13398C187.738-1.2005 182.568 0.184857 180.233 4.22839 177.898 8.27193 179.284 13.4423 183.327 15.7768L190.503 19.9195 166.498 61.4968 8.45405 61.4969C4.95228 61.4969 1.94778 63.6259 0.664373 66.6602Z" stroke="#4B545D" stroke-width="6.875" stroke-miterlimit="8" fill="#E5867B" fill-rule="evenodd" transform="matrix(-0.5 0.866025 0.866025 0.5 3463.19 1032.31)"/><path d="M3610.17 898.823C3617.36 902.976 3619.83 912.173 3615.67 919.366 3604.96 937.927 3594.24 956.488 3583.53 975.049 3580.41 980.444 3574.46 983.179 3568.64 982.457L3562.98 980.554 3562.98 980.553 3610.17 898.823Z" stroke="#4B545D" stroke-width="6.875" stroke-miterlimit="8" fill="#FFFFFF" fill-rule="evenodd"/><path d="M3584.12 945.907 3592.69 950.857 3581.15 970.854C3579.09 974.408 3575.17 976.212 3571.35 975.738L3567.62 974.485 3584.12 945.907Z" fill="#D2E6EF" fill-rule="evenodd"/><path d="M3575.83 867.728C3577.91 864.128 3582.51 862.895 3586.11 864.973L3612.18 880.028C3615.78 882.106 3617.02 886.71 3614.94 890.31L3434.97 1202.02C3432.89 1205.62 3428.29 1206.86 3424.69 1204.78L3398.61 1189.72C3395.01 1187.65 3393.78 1183.04 3395.86 1179.44Z" stroke="#4B545D" stroke-width="6.875" stroke-miterlimit="8" fill="#FFFFFF" fill-rule="evenodd"/><path d="M3578.03 884.914C3580.05 881.41 3584.53 880.209 3588.04 882.232L3595.65 886.627C3599.15 888.65 3600.35 893.131 3598.33 896.635L3588.33 913.96C3586.3 917.464 3581.82 918.665 3578.32 916.642L3570.71 912.247C3567.2 910.224 3566 905.743 3568.03 902.238Z" fill="#D2E6EF" fill-rule="evenodd"/><path d="M3533.71 961.679C3535.73 958.175 3540.21 956.974 3543.72 958.998L3551.33 963.392C3554.83 965.415 3556.03 969.896 3554.01 973.401L3529.42 1015.98C3527.4 1019.49 3522.92 1020.69 3519.42 1018.66L3511.8 1014.27C3508.3 1012.25 3507.1 1007.77 3509.12 1004.26Z" fill="#E5867B" fill-rule="evenodd"/><path d="M3555.87 923.297C3557.89 919.792 3562.37 918.592 3565.88 920.615L3573.49 925.01C3576.99 927.033 3578.19 931.514 3576.17 935.018L3566.17 952.342C3564.14 955.847 3559.66 957.047 3556.16 955.024L3548.55 950.63C3545.04 948.606 3543.84 944.125 3545.87 940.621Z" fill="#D2E6EF" fill-rule="evenodd"/></g></svg>