<svg width="204" height="305" xmlns="http://www.w3.org/2000/svg" xmlns:xlink="http://www.w3.org/1999/xlink" xml:space="preserve" overflow="hidden"><g transform="translate(-3018 -911)"><path d="M3024 1206C3024 1200.48 3064.52 1196 3114.5 1196 3164.48 1196 3205 1200.48 3205 1206 3205 1211.52 3164.48 1216 3114.5 1216 3064.52 1216 3024 1211.52 3024 1206Z" fill="#D2E6EF" fill-rule="evenodd"/><path d="M3025.26 1169.28 3025.52 1168.98 3072.52 1196.12 3072.4 1196.5C3064.88 1209.52 3048.24 1213.98 3035.22 1206.46 3022.2 1198.95 3017.74 1182.3 3025.26 1169.28Z" stroke="#4B545D" stroke-width="6.875" stroke-miterlimit="8" fill="#E5867B" fill-rule="evenodd"/><path d="M3025.35 1169.11 3169.38 919.654C3171.88 915.315 3177.43 913.828 3181.77 916.333L3213.2 934.478C3217.54 936.983 3219.03 942.532 3216.52 946.871L3072.5 1196.33 3025.35 1169.11Z" stroke="#4B545D" stroke-width="6.875" stroke-miterlimit="8" fill="#FFFFFF" fill-rule="evenodd"/><path d="M3079.6 1164.5 3199.96 956.018" stroke="#D2E6EF" stroke-width="6.875" stroke-linecap="round" stroke-miterlimit="8" fill="none" fill-rule="evenodd"/><path d="M3165.1 927.071 3212.24 954.288" stroke="#4B545D" stroke-width="6.875" stroke-miterlimit="8" fill="none" fill-rule="evenodd"/></g></svg>