<svg width="1014" height="1014" xmlns="http://www.w3.org/2000/svg" xmlns:xlink="http://www.w3.org/1999/xlink" xml:space="preserve" overflow="hidden"><g transform="translate(-800 -67)"><path d="M814 574C814 301.724 1034.72 81.0001 1307 81.0001 1579.28 81.0001 1800 301.724 1800 574 1800 846.276 1579.28 1067 1307 1067 1034.72 1067 814 846.276 814 574Z" stroke="#05CD67" stroke-width="27.5" stroke-miterlimit="8" fill="none" fill-rule="evenodd"/><path d="M1625.32 429.227C1644.25 448.151 1644.25 478.834 1625.32 497.758L1294.56 828.518 1294.56 828.519C1275.64 847.444 1244.96 847.444 1226.03 828.519L1226.03 828.519 988.721 591.21C969.797 572.285 969.797 541.603 988.721 522.678 1007.65 503.754 1038.33 503.754 1057.25 522.678L1260.3 725.722 1556.79 429.227C1575.72 410.303 1606.4 410.303 1625.32 429.227Z" fill="#05CD67" fill-rule="evenodd"/></g></svg>