<svg width="1957" height="2215" xmlns="http://www.w3.org/2000/svg" xmlns:xlink="http://www.w3.org/1999/xlink" xml:space="preserve" overflow="hidden"><g transform="translate(-1222 -121)"><path d="M1630.99 1160.12C1630.99 1160.12 1657.18 1347.88 1674.57 1421.73 1691.95 1495.59 1704.62 1541.63 1730.25 1603.42 1755.88 1665.2 1779.52 1737.99 1829.51 1789.94 1879.51 1841.91 1957.63 1873.42 2020.77 1901.38 2083.91 1929.33 2131.26 1964.52 2204.77 1959.51 2278.27 1954.5 2357.35 1899 2429.93 1852.93 2502.49 1806.85 2564.08 1817.82 2635.71 1683.36 2707.32 1548.89 2698.66 1038.99 2698.66 1038.99" stroke="#BFBFBF" stroke-width="10.3125" stroke-linecap="square" stroke-miterlimit="8" stroke-dasharray="30.9375 10.3125" fill="none" fill-rule="evenodd"/><path d="M1983.99 1680.31C1983.99 1680.31 2012.38 1693.31 2040.14 1692.99 2067.9 1692.68 2102.75 1671.57 2127.18 1671.19 2151.62 1670.81 2173.39 1683.31 2182.79 1683.31 2192.19 1681.59 2204.13 1671.34 2228.74 1666.33 2253.34 1661.34 2301.75 1668.52 2330.29 1661.49 2358.82 1654.46 2381.75 1648.84 2397.99 1629.99" stroke="#BFBFBF" stroke-width="10.3125" stroke-linecap="square" stroke-miterlimit="8" stroke-dasharray="30.9375 10.3125" fill="none" fill-rule="evenodd"/><path d="M2053.46 1461.99C2053.46 1461.99 2034.56 1515.03 2056.87 1536.41 2079.18 1557.8 2108.99 1547.53 2108.99 1547.53" stroke="#BFBFBF" stroke-width="10.3125" stroke-linecap="square" stroke-miterlimit="8" stroke-dasharray="30.9375 10.3125" fill="none" fill-rule="evenodd"/><path d="M2298.44 1471.99C2298.44 1471.99 2302.02 1503.99 2290.85 1517.22 2279.67 1530.47 2235.99 1535.99 2235.99 1535.99" stroke="#BFBFBF" stroke-width="10.3125" stroke-linecap="square" stroke-miterlimit="8" stroke-dasharray="30.9375 10.3125" fill="none" fill-rule="evenodd"/><path d="M2096.3 1530.73C2080.09 1522.23 2098.27 1505.43 2115.07 1503.53 2131.86 1501.64 2148.64 1535.89 2171.36 1534.98 2194.09 1534.07 2213.42 1493.48 2231.07 1495.04 2248.72 1496.59 2260.93 1510.34 2255.81 1518.84" stroke="#BFBFBF" stroke-width="10.3125" stroke-linecap="square" stroke-miterlimit="8" stroke-dasharray="30.9375 10.3125" fill="none" fill-rule="evenodd"/><path d="M2127.99 1747.76C2169.98 1750.33 2208.19 1752.6 2253.99 1742.99" stroke="#BFBFBF" stroke-width="10.3125" stroke-linecap="square" stroke-miterlimit="8" stroke-dasharray="30.9375 10.3125" fill="none" fill-rule="evenodd"/><path d="M2028.99 1285.19C2028.99 1285.19 1991.39 1213.55 1917.85 1220.46 1844.3 1227.38 1839.73 1260.12 1811.83 1271.57 1783.93 1283 1751.99 1291.99 1751.99 1291.99" stroke="#BFBFBF" stroke-width="10.3125" stroke-linecap="square" stroke-miterlimit="8" stroke-dasharray="30.9375 10.3125" fill="none" fill-rule="evenodd"/><path d="M2293.99 1247.99C2293.99 1247.99 2349.5 1163.99 2411.77 1170.34 2474.06 1176.68 2492.13 1198.26 2505.66 1208.31 2519.2 1218.35 2561.99 1215.21 2561.99 1215.21" stroke="#BFBFBF" stroke-width="10.3125" stroke-linecap="square" stroke-miterlimit="8" stroke-dasharray="30.9375 10.3125" fill="none" fill-rule="evenodd"/><path d="M1881.57 1226.99C1881.57 1226.99 1871.28 1242.46 1876.43 1269.98 1881.57 1297.49 1911.88 1313.84 1936.45 1312.96 1957.96 1312.19 1981 1292.64 1986.19 1271.7 1990.51 1254.24 1975.9 1233.87 1975.9 1233.87" stroke="#BFBFBF" stroke-width="10.3125" stroke-linecap="square" stroke-miterlimit="8" stroke-dasharray="30.9375 10.3125" fill="none" fill-rule="evenodd"/><path d="M2358.86 1182.84C2358.86 1182.84 2342.38 1206.13 2352 1234.16 2361.63 1262.19 2376.79 1268.62 2411.97 1266.67 2447.16 1264.71 2458.51 1240.33 2461.66 1220.48 2464.81 1200.62 2444.52 1175.99 2444.52 1175.99" stroke="#BFBFBF" stroke-width="10.3125" stroke-linecap="square" stroke-miterlimit="8" stroke-dasharray="30.9375 10.3125" fill="none" fill-rule="evenodd"/><path d="M1958.99 1262.99C1958.99 1276.25 1948.24 1286.99 1934.99 1286.99 1921.73 1286.99 1910.99 1276.25 1910.99 1262.99 1910.99 1249.74 1921.73 1238.99 1934.99 1238.99 1948.24 1238.99 1958.99 1249.74 1958.99 1262.99Z" stroke="#BFBFBF" stroke-width="10.3125" stroke-linecap="square" stroke-miterlimit="8" stroke-dasharray="30.9375 10.3125" fill="none" fill-rule="evenodd"/><path d="M2429.99 1211.99C2429.99 1225.25 2419.24 1235.99 2405.99 1235.99 2392.73 1235.99 2381.99 1225.25 2381.99 1211.99 2381.99 1198.74 2392.73 1187.99 2405.99 1187.99 2419.24 1187.99 2429.99 1198.74 2429.99 1211.99Z" stroke="#BFBFBF" stroke-width="10.3125" stroke-linecap="square" stroke-miterlimit="8" stroke-dasharray="30.9375 10.3125" fill="none" fill-rule="evenodd"/><path d="M2012.99 1307.49C2012.99 1307.49 1992.89 1299.06 1978.35 1311.7 1963.81 1324.36 1919.9 1321.69 1891.55 1317.61 1863.2 1313.52 1833.82 1299.06 1823.99 1285.99" stroke="#BFBFBF" stroke-width="10.3125" stroke-linecap="square" stroke-miterlimit="8" stroke-dasharray="30.9375 10.3125" fill="none" fill-rule="evenodd"/><path d="M2310.99 1266.87C2310.99 1266.87 2311.04 1264.45 2330.35 1264.47 2349.66 1264.48 2395.57 1280.41 2425.95 1273.05 2456.33 1265.7 2500.56 1231.34 2500.99 1224.99" stroke="#BFBFBF" stroke-width="10.3125" stroke-linecap="square" stroke-miterlimit="8" stroke-dasharray="30.9375 10.3125" fill="none" fill-rule="evenodd"/><path d="M2029.99 1166.25C2029.99 1166.25 1949.86 1128.95 1890.22 1131.08 1830.57 1133.22 1686.99 1197.99 1686.99 1197.99" stroke="#BFBFBF" stroke-width="10.3125" stroke-linecap="square" stroke-miterlimit="8" stroke-dasharray="30.9375 10.3125" fill="none" fill-rule="evenodd"/><path d="M2240.99 1126.99C2240.99 1126.99 2407.29 1062.21 2465.78 1064.03 2524.29 1065.85 2576.99 1102.78 2576.99 1102.78" stroke="#BFBFBF" stroke-width="10.3125" stroke-linecap="square" stroke-miterlimit="8" stroke-dasharray="30.9375 10.3125" fill="none" fill-rule="evenodd"/><path d="M1871.95 1828.99C1911.88 1921.03 1886.85 1983.83 1863.48 2032.43 1832.97 2095.93 1783.19 2101.43 1679.56 2129.32 1575.92 2157.21 1272.99 2270.99 1272.99 2270.99" stroke="#BFBFBF" stroke-width="10.3125" stroke-linecap="square" stroke-miterlimit="8" stroke-dasharray="30.9375 10.3125" fill="none" fill-rule="evenodd"/><path d="M2587.99 1747.99C2587.99 1747.99 2558.92 1876.37 2569.18 1934.57 2579.44 1992.77 2641.4 2051.07 2745.3 2104.02 2849.19 2156.97 3141.99 2305.99 3141.99 2305.99" stroke="#BFBFBF" stroke-width="10.3125" stroke-linecap="square" stroke-miterlimit="8" stroke-dasharray="30.9375 10.3125" fill="none" fill-rule="evenodd"/><path d="M1626.99 1159.99C1626.99 1159.99 1722.12 1090.4 1750.3 1055.82 1778.48 1021.24 1763.56 996.109 1801.08 962.541 1838.6 928.974 1921.53 911.058 1982.42 888.647 2043.31 866.237 2121.99 866.989 2166.18 828.079 2210.38 789.17 2219.57 732.118 2235.09 683.926 2250.61 635.735 2253.55 576.469 2260.48 542.196 2267.42 507.924 2274.99 477.994 2274.99 477.994" stroke="#BFBFBF" stroke-width="10.3125" stroke-linecap="square" stroke-miterlimit="8" stroke-dasharray="30.9375 10.3125" fill="none" fill-rule="evenodd"/><path d="M2257.99 619.994C2257.99 626.049 2272.25 733.475 2299.15 771.367 2326.02 809.259 2371.38 808.477 2399.61 840.393 2427.85 872.31 2427.04 931.484 2461.36 959.069 2495.66 986.655 2548.26 979.477 2587.25 992.978 2626.24 1006.48 2694.99 1038.99 2694.99 1038.99" stroke="#BFBFBF" stroke-width="10.3125" stroke-linecap="square" stroke-miterlimit="8" stroke-dasharray="30.9375 10.3125" fill="none" fill-rule="evenodd"/><path d="M2291.99 172.145C2291.99 172.145 2028.45 127.064 1924.3 157.613 1820.14 188.16 1696.91 310.216 1692.07 319.904 1687.23 329.593 1656.28 374.577 1619.5 426.484 1582.71 478.392 1497.55 561.107 1469.52 629.955 1441.49 698.804 1453.71 753.061 1442.91 821.315 1432.11 889.568 1401.87 960.934 1404.2 1039.32 1406.54 1117.71 1467.24 1198.41 1462.26 1281.55 1457.28 1364.69 1411.65 1436.23 1375.18 1516.51 1338.7 1596.79 1261.62 1686.55 1242.13 1761.15 1222.64 1835.76 1224.72 1891.41 1239.71 1945.25 1254.7 1999.09 1314.57 2029.04 1319.54 2073.62 1324.5 2118.22 1285.83 2152.44 1280.83 2185.06 1275.84 2217.66 1283.25 2264.99 1283.25 2264.99" stroke="#BFBFBF" stroke-width="10.3125" stroke-linecap="square" stroke-miterlimit="8" stroke-dasharray="30.9375 10.3125" fill="none" fill-rule="evenodd"/><path d="M2286.99 166.994C2286.99 166.994 2428.55 181.546 2469.66 200.92 2510.74 220.294 2507.7 237.501 2536.18 256.656 2564.65 275.81 2613.55 287.416 2641.42 312.392 2669.29 337.369 2670.54 361.742 2700.7 399.63 2730.85 437.52 2804.43 495.332 2826.5 535.336 2848.58 575.338 2837.63 594.401 2849.49 621.363 2861.36 648.322 2888.26 662.065 2896.66 695.272 2905.07 728.481 2882.2 765.83 2888.2 812.803 2894.19 859.775 2941.43 964.259 2941.43 970.316 2941.43 976.376 2911.94 1061.08 2928.12 1109.66 2944.29 1158.23 3017.7 1187.57 3040.62 1233.24 3063.54 1278.92 3073.29 1318.45 3067.23 1370.16 3061.16 1421.88 3011.87 1484.68 2995.86 1527.68 2979.84 1570.67 2968.2 1591.25 2966.82 1625.82 2965.46 1660.4 2962.59 1683.96 2988.6 1728.81 3014.62 1773.66 3110.52 1808.48 3142.22 1865.73 3173.95 1922.97 3174.89 2045.04 3173.69 2049.9 3172.48 2054.74 3083.1 2151.01 3073.27 2191.66 3063.45 2232.31 3084.16 2267.99 3084.16 2267.99" stroke="#BFBFBF" stroke-width="10.3125" stroke-linecap="square" stroke-miterlimit="8" stroke-dasharray="30.9375 10.3125" fill="none" fill-rule="evenodd"/><path d="M2031.99 1221.99C2059.54 1239.07 2062.99 1291.99 2062.99 1291.99" stroke="#BFBFBF" stroke-width="10.3125" stroke-linecap="square" stroke-miterlimit="8" stroke-dasharray="30.9375 10.3125" fill="none" fill-rule="evenodd"/><path d="M2262.99 1187.99C2229.3 1213.67 2239.41 1276.99 2239.41 1276.99" stroke="#BFBFBF" stroke-width="10.3125" stroke-linecap="square" stroke-miterlimit="8" stroke-dasharray="30.9375 10.3125" fill="none" fill-rule="evenodd"/><path d="M1819.99 2076.26C1965.16 2231.52 2257.93 2330.99 2257.93 2330.99 2257.93 2330.99 2596.66 2166.01 2661.99 2051.99" stroke="#BFBFBF" stroke-width="10.3125" stroke-linecap="square" stroke-miterlimit="8" stroke-dasharray="30.9375 10.3125" fill="none" fill-rule="evenodd"/><path d="M2086.99 1656.99C2086.99 1656.99 2120.11 1640.67 2136.46 1638.3 2152.8 1635.94 2182.51 1641.7 2182.51 1641.7 2182.51 1641.7 2199.86 1629.73 2218.34 1628.12 2236.81 1626.49 2289.99 1641.7 2289.99 1641.7" stroke="#BFBFBF" stroke-width="10.3125" stroke-linecap="square" stroke-miterlimit="8" stroke-dasharray="30.9375 10.3125" fill="none" fill-rule="evenodd"/></g></svg>