<svg width="1150" height="928" xmlns="http://www.w3.org/2000/svg" xmlns:xlink="http://www.w3.org/1999/xlink" xml:space="preserve" overflow="hidden"><g transform="translate(-2741 -1190)"><path d="M2750.58 2076.19C2750.58 2053.26 3002.87 2034.69 3314.08 2034.69 3625.29 2034.69 3877.58 2053.26 3877.58 2076.19 3877.58 2099.12 3625.29 2117.69 3314.08 2117.69 3002.87 2117.69 2750.58 2099.12 2750.58 2076.19Z" fill="#D2E6EF" fill-rule="evenodd"/><path d="M2825.85 1201.5 3806.15 1201.5C3846.66 1201.5 3879.5 1234.44 3879.5 1275.07L3879.5 1400.5 2752.5 1400.5 2752.5 1275.07C2752.5 1234.44 2785.34 1201.5 2825.85 1201.5Z" stroke="#4B545D" stroke-width="22.9167" stroke-miterlimit="8" fill="#E5867B" fill-rule="evenodd"/><path d="M2752.5 1400.5 3879.5 1400.5 3879.5 1986.16C3879.5 2026.67 3846.66 2059.5 3806.15 2059.5L2825.85 2059.5C2785.34 2059.5 2752.5 2026.67 2752.5 1986.16L2752.5 1400.5Z" stroke="#4B545D" stroke-width="22.9167" stroke-miterlimit="8" fill="#FFFFFF" fill-rule="evenodd"/><path d="M2788 1313C2788 1278.76 2815.76 1251 2850 1251L3022 1251C3056.24 1251 3084 1278.76 3084 1313L3084 1313C3084 1347.24 3056.24 1375 3022 1375L2850 1375C2815.76 1375 2788 1347.24 2788 1313Z" fill="#4B545D" fill-rule="evenodd"/><path d="M2827 1311.5C2827 1291.34 2843.12 1275 2863 1275 2882.88 1275 2899 1291.34 2899 1311.5 2899 1331.66 2882.88 1348 2863 1348 2843.12 1348 2827 1331.66 2827 1311.5Z" fill="#FFFFFF" fill-rule="evenodd"/><path d="M2880.66 1293.94C2890.27 1303.78 2890.27 1319.73 2880.66 1329.56 2871.05 1339.4 2855.48 1339.4 2845.87 1329.56 2862.68 1332.02 2878.26 1320.06 2880.66 1302.85 2881.08 1299.89 2881.08 1296.89 2880.66 1293.94Z" fill="#D2E6EF" fill-rule="evenodd"/><path d="M3270.53 1754.27 3286.57 1754.27 3291.53 1785.07 3296.49 1754.27 3312.51 1754.27 3313.39 1793.67 3303.54 1793.67 3303.27 1757.2 3296.5 1793.67 3286.53 1793.67 3279.77 1757.2 3279.51 1793.67 3269.68 1793.67ZM3237.1 1754.27 3254.57 1754.27 3261.83 1793.67 3251.28 1793.67 3245.92 1757.2 3240.43 1793.67 3229.81 1793.67ZM3209.2 1753.01C3214.76 1753.01 3222.47 1754.38 3222.47 1762.95L3222.47 1765.72 3212.66 1765.72 3212.66 1763.28C3212.66 1761.13 3211.31 1759.7 3209.01 1759.7 3206.53 1759.7 3205.68 1761.1 3205.41 1762.36 3205.31 1762.79 3205.26 1763.63 3205.45 1764.43 3206.57 1769.04 3221.48 1771.49 3223.14 1779.76 3223.3 1780.59 3223.66 1782.81 3223.18 1786.21 3222.23 1792.8 3216.4 1795.22 3209.29 1795.22 3201.9 1795.22 3195 1792.58 3195 1783.77L3195 1780.75 3205.55 1780.75 3205.57 1784.55C3205.57 1786.7 3207.03 1788.13 3209.49 1788.13 3212.12 1788.13 3213.01 1786.8 3213.33 1785.47 3213.52 1784.73 3213.64 1783.51 3213.25 1782.56 3211.22 1777.47 3197.25 1775.14 3195.54 1767.08 3195.13 1765.09 3195.18 1763.54 3195.47 1761.77 3196.51 1755.34 3202.22 1753.01 3209.2 1753.01ZM3336.39 1718.48 3401.48 1718.48 3434.11 1718.48 3434.13 1718.58 3435.87 1718.58 3435.87 1735.67 3436 1738.3 3435.87 1740.9 3435.48 1749.14C3435.13 1752.68 3434.61 1756.14 3433.93 1759.51L3431.73 1768.03 3431.38 1769.36C3430.38 1772.55 3429.21 1775.65 3427.89 1778.66L3426.86 1780.68 3423.47 1787.37 3422.33 1789.11 3418.17 1795.45C3414.35 1800.62 3409.97 1805.34 3405.06 1809.57L3405.06 1809.57 3400.91 1812.81 3398.33 1814.82C3391.31 1819.78 3383.43 1823.83 3374.79 1826.83L3368.35 1828.76 3365.9 1829.49C3356.76 1831.79 3346.9 1833 3336.39 1833L3321.06 1833 3321.06 1831.93 3321.06 1792.6 3321.71 1792.78 3325.92 1793.62 3326.48 1793.73C3329.71 1794.24 3333.02 1794.5 3336.39 1794.5 3346.86 1794.5 3356.11 1792.52 3363.98 1789.08L3364.44 1788.83 3369.77 1786.02 3371.39 1785.17 3371.39 1785.17 3371.39 1785.17 3373.3 1783.85 3375.35 1782.43 3376 1781.89 3378.95 1779.41C3381.23 1777.3 3383.27 1775 3385.03 1772.54L3385.62 1771.61 3387.47 1768.72C3389.7 1764.8 3391.31 1760.53 3392.23 1756.01L3385.62 1756.01 3376.29 1756.01 3369.05 1756.01 3359.72 1756.01 3349.06 1756.01 3336.39 1756.01 3336.39 1751.69 3336.39 1718.58ZM3372.7 1633.44C3375.11 1633.3 3377.4 1633.32 3379.58 1633.5 3388.4 1634.22 3396.4 1635.97 3403.57 1638.76L3404.52 1639.2 3410.46 1641.91C3419.29 1646.56 3426.65 1653.07 3432.52 1661.44 3414.12 1672.61 3403.85 1687.71 3401.71 1706.68L3401.69 1707.08 3401.44 1712.06 3321.06 1712.06 3321.06 1679.68 3321.06 1646.06 3321.26 1646.11C3322.53 1646.37 3323.55 1646.5 3324.32 1646.5 3324.61 1646.5 3324.99 1646.46 3325.45 1646.38L3325.92 1646.28 3327.09 1646.04C3330.26 1645.27 3335.57 1643.55 3343.02 1640.88L3346.47 1639.63 3347.66 1639.2 3347.74 1639.17C3357.16 1635.77 3365.47 1633.87 3372.7 1633.44ZM3204.52 1596.9 3314.47 1596.9 3314.47 1639.2 3314.47 1641.37 3314.47 1644.24 3314.47 1681.86 3314.47 1707.08 3283.55 1707.08 3278.28 1707.08 3263.64 1707.08 3237.62 1707.08 3232.63 1707.08 3205.06 1707.08 3204.52 1707.08ZM3380.85 1567 3380.97 1569.29 3381.15 1572.6 3381.15 1572.6C3381.15 1579.61 3379.87 1586.38 3377.32 1592.92L3375.55 1596.9 3375.17 1597.78C3372.78 1602.59 3369.67 1607.27 3365.85 1611.81 3355.1 1624.4 3342.38 1632.34 3328.57 1633.25L3325.92 1633.23 3322.59 1633.21C3322.38 1631.53 3322.26 1629.76 3322.26 1627.9 3322.26 1622.85 3323.08 1617.68 3324.66 1612.56L3325.92 1609.03 3326.48 1607.46C3327.86 1604.08 3329.56 1600.76 3331.57 1597.55L3332.01 1596.9 3332.01 1596.9 3334.81 1592.81C3335.96 1591.27 3337.19 1589.75 3338.48 1588.28 3343.66 1582.32 3350.25 1577.37 3358.24 1573.42 3360.24 1572.44 3362.2 1571.58 3364.14 1570.82L3368.67 1569.29 3369.88 1568.89C3373.65 1567.81 3377.31 1567.18 3380.85 1567Z" fill="#E5867B" fill-rule="evenodd"/></g></svg>