<svg width="771" height="950" xmlns="http://www.w3.org/2000/svg" xmlns:xlink="http://www.w3.org/1999/xlink" xml:space="preserve" overflow="hidden"><g transform="translate(-1892 -710)"><path d="M1908 1596C1908 1560.65 2071.42 1532 2273 1532 2474.58 1532 2638 1560.65 2638 1596 2638 1631.35 2474.58 1660 2273 1660 2071.42 1660 1908 1631.35 1908 1596Z" fill="#D2E6EF" fill-rule="evenodd"/><path d="M2197.25 724 2349.75 724C2372.53 724 2391 742.468 2391 765.25L2391 834 2156 834 2156 765.25C2156 742.468 2174.47 724 2197.25 724Z" stroke="#4B545D" stroke-width="27.5" stroke-miterlimit="8" fill="#FFFFFF" fill-rule="evenodd"/><path d="M1943 904.738C1943 862.357 1977.36 828 2019.74 828L2526.26 828C2568.64 828 2603 862.357 2603 904.738L2603 1519.26C2603 1561.64 2568.64 1596 2526.26 1596L2019.74 1596C1977.36 1596 1943 1561.64 1943 1519.26Z" stroke="#4B545D" stroke-width="27.5" stroke-miterlimit="8" fill="#FFFFFF" fill-rule="evenodd"/><path d="M1947.25 815 2607.75 815C2630.53 815 2649 833.468 2649 856.25L2649 925 1906 925 1906 856.25C1906 833.468 1924.47 815 1947.25 815Z" stroke="#4B545D" stroke-width="27.5" stroke-miterlimit="8" fill="#FFFFFF" fill-rule="evenodd"/><path d="M2114 1011 2114 1488.11" stroke="#5ABF89" stroke-width="27.5" stroke-miterlimit="8" fill="none" fill-rule="evenodd"/><path d="M2273 1011 2273 1488.11" stroke="#5ABF89" stroke-width="27.5" stroke-miterlimit="8" fill="none" fill-rule="evenodd"/><path d="M2431 1011 2431 1488.11" stroke="#5ABF89" stroke-width="27.5" stroke-miterlimit="8" fill="none" fill-rule="evenodd"/><rect x="1959" y="934" width="627" height="31.9999" fill="#D2E6EF"/><path d="M2350 1501 2569 1501 2569 1532C2569 1549.12 2555.14 1563 2538.04 1563L2350 1563Z" fill="#D2E6EF" fill-rule="evenodd"/><rect x="2501" y="956" width="67.9998" height="555" fill="#D2E6EF"/><path d="M219 61.9999 0 61.9999 0 30.9999C0 13.8793 13.8594 0 30.9556 0L219 0Z" fill="#D2E6EF" fill-rule="evenodd" transform="matrix(-1 1.22465e-16 1.22465e-16 1 2627 836)"/></g></svg>