<svg width="1459" height="1813" xmlns="http://www.w3.org/2000/svg" xmlns:xlink="http://www.w3.org/1999/xlink" xml:space="preserve" overflow="hidden"><g transform="translate(-2121 -222)"><path d="M2146.5 816.5C2146.5 637.008 2292.01 491.5 2471.5 491.5 2650.99 491.5 2796.5 637.008 2796.5 816.5 2796.5 995.993 2650.99 1141.5 2471.5 1141.5 2292.01 1141.5 2146.5 995.993 2146.5 816.5Z" stroke="#BFBFBF" stroke-width="4.58333" stroke-miterlimit="8" stroke-dasharray="18.3333 13.75" fill="none" fill-rule="evenodd"/><path d="M2208.5 817C2208.5 672.025 2326.03 554.5 2471 554.5 2615.97 554.5 2733.5 672.025 2733.5 817 2733.5 961.975 2615.97 1079.5 2471 1079.5 2326.03 1079.5 2208.5 961.975 2208.5 817Z" stroke="#BFBFBF" stroke-width="4.58333" stroke-miterlimit="8" stroke-dasharray="18.3333 13.75" fill="none" fill-rule="evenodd"/><path d="M2448.13 710.416 2415.81 724.386 2416.51 724.867 2384.88 756.49 2369.21 793.675 2369.21 831.685 2390.17 880.184 2389.95 880.234 2411.64 901.92 2449.68 917.953 2491.06 917.953 2525.04 903.265 2556.42 871.883 2572.1 834.69 2572.1 789.712 2556.24 753.021 2529.67 726.451 2491.63 710.416ZM2470.66 563.106 2494.78 694.859 2568.18 582.82 2539.68 711.578 2648.2 636.645 2572.61 746.11 2700.93 716.481 2587.66 792.166 2719.41 816.286 2588.44 840.265 2699.06 912.743 2571.07 884.412 2645.07 991.569 2543.07 921.141 2571.38 1043.72 2495.41 930.034 2470.65 1065.26 2446.53 933.509 2373.13 1045.55 2401.63 916.792 2293.12 991.724 2366.33 885.688 2244.25 913.875 2354.08 840.487 2221.9 816.286 2351.99 792.469 2240.61 719.5 2367.76 747.644 2293.27 639.773 2402.75 715.371 2372.14 582.779 2446.64 694.277Z" stroke="#BFBFBF" stroke-width="4.58333" stroke-miterlimit="8" stroke-dasharray="18.3333 13.75" fill="none" fill-rule="evenodd"/><path d="M2358.5 816.5C2358.5 754.092 2408.87 703.5 2471 703.5 2533.13 703.5 2583.5 754.092 2583.5 816.5 2583.5 878.908 2533.13 929.5 2471 929.5 2408.87 929.5 2358.5 878.908 2358.5 816.5Z" stroke="#BFBFBF" stroke-width="4.58333" stroke-miterlimit="8" stroke-dasharray="18.3333 13.75" fill="#FFFFFF" fill-rule="evenodd"/><path d="M3223.3 1287.48C3173.76 1288.09 3117.49 1274.03 3074.67 1248.97 3031.86 1223.91 2994.24 1179.59 2966.41 1137.1 2938.58 1094.62 2915.03 1054.89 2907.69 994.062 2900.35 933.238 2905.85 845.518 2922.37 772.163 2938.88 698.808 2984.76 620.258 3006.78 553.933 3028.8 487.607 3034 426.173 3054.49 374.213 3074.98 322.254 3102.5 266.626 3129.72 242.174 3156.94 217.723 3190.58 229.337 3217.8 227.503 3245.02 225.67 3271.93 220.168 3293.03 231.171 3314.14 242.174 3327.59 254.706 3344.41 293.523 3361.23 332.34 3372.55 400.804 3393.96 464.073 3415.36 527.341 3448.09 604.058 3472.86 673.134 3497.63 742.21 3538 803.339 3542.59 878.528 3547.18 953.717 3534.64 1059.16 3500.38 1124.27 3466.13 1189.37 3419.03 1218.71 3371.94 1245.3 3324.84 1271.89 3272.85 1286.87 3223.3 1287.48Z" stroke="#BFBFBF" stroke-width="4.58333" stroke-miterlimit="8" stroke-dasharray="18.3333 13.75" fill="none" fill-rule="evenodd"/><path d="M3233.16 1260.42C3198.94 1261.94 3163.18 1267.75 3126.82 1249.41 3090.46 1231.08 3044.63 1187.69 3014.99 1150.41 2985.35 1113.13 2960.9 1078.91 2948.98 1025.74 2937.07 972.566 2928.51 908.395 2943.48 831.391 2958.46 754.386 3014.68 632.768 3038.82 563.709 3062.96 494.649 3077.32 457.675 3088.32 417.034 3099.32 376.392 3096.27 345.835 3104.82 319.862 3113.38 293.888 3125.29 272.803 3139.66 261.191 3154.02 249.58 3179.07 248.357 3190.99 250.191 3202.91 252.024 3204.74 269.136 3211.16 272.192 3217.57 275.248 3223.69 272.192 3229.49 268.525 3235.3 264.858 3233.16 249.885 3245.99 250.191 3258.83 250.497 3290.91 254.469 3306.49 270.359 3322.08 286.249 3324.83 302.138 3339.5 345.53 3354.16 388.921 3371.58 460.731 3394.5 530.707 3417.41 600.683 3457.44 692.05 3477 765.387 3496.56 838.725 3516.42 907.479 3511.83 970.732 3507.25 1033.99 3484.33 1097.55 3449.5 1144.91 3414.66 1192.27 3370.97 1220.69 3332.16 1240.25 3293.35 1259.8 3267.38 1258.89 3233.16 1260.42Z" stroke="#BFBFBF" stroke-width="4.58333" stroke-miterlimit="8" stroke-dasharray="18.3333 13.75" fill="none" fill-rule="evenodd"/><path d="M3225.23 1036.77C3202.96 1037.08 3182.21 1043.8 3162.99 1034.94 3143.77 1026.07 3122.11 1008.96 3109.9 983.596 3097.7 958.231 3084.27 919.724 3089.77 882.746 3095.26 845.768 3123.63 791.065 3142.85 761.727 3162.08 732.389 3185.87 715.581 3205.1 706.718 3224.32 697.856 3239.88 698.467 3258.18 708.552 3276.49 718.637 3297.85 737.279 3314.93 767.228 3332.02 797.177 3356.43 851.575 3360.7 888.247 3364.97 924.92 3351.24 963.12 3340.56 987.263 3329.89 1011.41 3315.24 1024.55 3296.63 1033.1 3278.02 1041.66 3247.51 1036.47 3225.23 1036.77Z" stroke="#BFBFBF" stroke-width="4.58333" stroke-miterlimit="8" stroke-dasharray="18.3333 13.75" fill="none" fill-rule="evenodd"/><path d="M2512.23 1995.16C2478.33 1994.24 2435.03 2029.74 2384.4 2026.76 2333.77 2023.79 2251.53 2013.48 2208.46 1977.29 2165.39 1941.1 2135.84 1854.3 2125.99 1809.64 2116.14 1764.97 2137.9 1736.8 2149.36 1709.32 2160.81 1681.83 2189.33 1660.3 2194.72 1644.73 2200.1 1629.15 2182.92 1621.14 2181.66 1615.87 2180.4 1610.6 2190.02 1626.86 2187.16 1613.12 2184.29 1599.38 2157.72 1568.46 2164.48 1533.41 2171.24 1498.37 2191.17 1434.13 2227.71 1402.86 2264.24 1371.6 2342.94 1349.95 2383.71 1345.83 2424.49 1341.71 2445.34 1377.32 2472.37 1378.13 2499.4 1378.93 2513.83 1351.56 2545.91 1350.64 2577.98 1349.73 2626.66 1348.81 2664.8 1372.63 2702.94 1396.45 2750.48 1450.96 2774.76 1493.56 2799.05 1536.16 2810.5 1589.76 2810.5 1628.24 2810.5 1666.72 2771.44 1700.96 2774.76 1724.43 2778.08 1747.91 2782.55 1729.7 2801.57 1764.97 2820.58 1800.25 2803.05 1854.87 2785.76 1894.84 2768.46 1934.81 2730.78 1981.87 2697.79 2004.78 2664.8 2027.68 2618.76 2033.86 2587.83 2032.26 2556.9 2030.66 2546.14 1996.07 2512.23 1995.16Z" stroke="#BFBFBF" stroke-width="4.58333" stroke-miterlimit="8" stroke-dasharray="18.3333 13.75" fill="none" fill-rule="evenodd"/><path d="M2495.78 1555.5 2518.28 1557.77C2583.54 1571.15 2634.95 1622.64 2648.31 1688.01L2649.48 1699.67 2645.93 1699.73C2630.17 1699.37 2616.34 1698.45 2614.32 1701.38 2611.3 1705.79 2630.74 1714.32 2648.54 1722.34L2651.5 1723.73 2648.31 1755.47C2637.18 1809.94 2599.62 1854.78 2549.64 1875.95L2525.34 1883.51 2519.78 1875.36C2505.85 1850.76 2526.74 1824.34 2521.98 1811.49 2517.21 1798.65 2498.89 1797.18 2491.2 1798.28 2483.5 1799.38 2474.71 1794.61 2469.21 1815.9 2466.46 1826.54 2469.03 1847.37 2469.62 1868.89L2468.74 1887.5 2450.92 1885.7C2374.78 1870.09 2317.5 1802.61 2317.5 1721.74L2319.51 1701.78 2328.49 1704C2347.64 1709.18 2366.42 1714.6 2376.86 1714.6 2397.75 1714.6 2405.08 1702.48 2403.25 1694.78 2401.42 1687.07 2391.16 1680.83 2365.87 1668.35 2359.55 1665.23 2350.39 1662.39 2339.92 1659.44L2330.57 1656.8 2330.63 1656.59C2351.77 1606.53 2396.53 1568.92 2450.92 1557.77L2461.05 1556.75 2460.88 1562.94C2460.96 1568.61 2461.42 1573.75 2462.61 1578.06 2467.38 1595.31 2482.77 1618.44 2489 1608.89 2492.11 1604.12 2493.3 1589.53 2494.49 1572.42L2495.78 1555.5Z" stroke="#BFBFBF" stroke-width="4.58333" stroke-miterlimit="8" stroke-dasharray="18.3333 13.75" fill="none" fill-rule="evenodd"/><path d="M2383.83 1420.59C2404.73 1419.99 2424.67 1422.46 2435.83 1428.68 2458.14 1441.12 2455.58 1480.65 2459.97 1505.53 2462.17 1517.97 2461.53 1531.79 2460.93 1544.64L2460.6 1556.74 2450.5 1557.76C2396.2 1568.87 2351.51 1606.38 2330.4 1656.29L2330.34 1656.5 2305.91 1649.62C2282.81 1642.58 2260.59 1633.61 2251.44 1619.71 2233.15 1591.9 2243.4 1532.61 2255.83 1501.14 2268.27 1469.67 2296.08 1442.95 2326.07 1430.88 2341.07 1424.84 2362.93 1421.18 2383.83 1420.59Z" stroke="#BFBFBF" stroke-width="4.58333" stroke-miterlimit="8" stroke-dasharray="18.3333 13.75" fill="none" fill-rule="evenodd"/><path d="M2555.31 1427.67C2591.18 1429.38 2642.44 1443.41 2668.79 1459.09 2703.92 1480 2726.61 1525.86 2736.86 1555.94 2747.11 1586.02 2738.32 1616.47 2730.27 1639.58 2722.22 1662.69 2707.95 1684.34 2688.55 1694.61 2683.7 1697.18 2676.86 1698.51 2669.27 1699.15L2649 1699.5 2647.83 1687.84C2634.49 1622.5 2583.15 1571.04 2517.97 1557.67L2495.5 1555.4 2496.24 1545.67C2497.07 1536.77 2498.15 1528.15 2499.7 1520.72 2505.93 1491.01 2497.87 1440.75 2526.06 1430.48 2533.1 1427.91 2543.35 1427.11 2555.31 1427.67Z" stroke="#BFBFBF" stroke-width="4.58333" stroke-miterlimit="8" stroke-dasharray="18.3333 13.75" fill="none" fill-rule="evenodd"/><path d="M2277.39 1694.61C2283.35 1694.15 2291.22 1695.16 2299.99 1696.93L2319.04 1701.61 2317.03 1721.54C2317.03 1802.33 2374.39 1869.73 2450.65 1885.32L2468.5 1887.12 2467.88 1900.09C2466.28 1910 2463.28 1918.89 2457.96 1925.58 2436.67 1952.34 2383.45 1979.84 2341.25 1976.17 2299.04 1972.5 2231.51 1939.14 2204.72 1903.58 2177.93 1868.02 2175.73 1792.5 2180.5 1762.8 2185.27 1733.1 2233.35 1725.41 2233.35 1725.41 2249.5 1714.04 2253.53 1696.44 2277.39 1694.61Z" stroke="#BFBFBF" stroke-width="4.58333" stroke-miterlimit="8" stroke-dasharray="18.3333 13.75" fill="none" fill-rule="evenodd"/><path d="M2651.32 1723.5 2664.68 1729.78C2683.32 1739.32 2714.75 1736.38 2726.08 1758.39 2737.41 1780.4 2737.04 1832.49 2732.66 1861.83 2728.27 1891.17 2720.96 1918.32 2699.77 1934.46 2678.57 1950.6 2635.44 1968.57 2605.47 1958.67 2583 1951.24 2553.94 1921.73 2534.96 1897.08L2525.5 1883.18 2549.74 1875.63C2599.58 1854.47 2637.04 1809.66 2648.14 1755.22L2651.32 1723.5Z" stroke="#BFBFBF" stroke-width="4.58333" stroke-miterlimit="8" stroke-dasharray="18.3333 13.75" fill="none" fill-rule="evenodd"/><path d="M2939.5 1690.5C2939.5 1514.32 3082.32 1371.5 3258.5 1371.5 3434.68 1371.5 3577.5 1514.32 3577.5 1690.5 3577.5 1866.68 3434.68 2009.5 3258.5 2009.5 3082.32 2009.5 2939.5 1866.68 2939.5 1690.5Z" stroke="#BFBFBF" stroke-width="4.58333" stroke-miterlimit="8" stroke-dasharray="18.3333 13.75" fill="none" fill-rule="evenodd"/><path d="M2956.5 1693.5C2956.5 1526.71 3091.71 1391.5 3258.5 1391.5 3425.29 1391.5 3560.5 1526.71 3560.5 1693.5 3560.5 1860.29 3425.29 1995.5 3258.5 1995.5 3091.71 1995.5 2956.5 1860.29 2956.5 1693.5Z" stroke="#BFBFBF" stroke-width="4.58333" stroke-miterlimit="8" stroke-dasharray="18.3333 13.75" fill="none" fill-rule="evenodd"/><path d="M3095.15 1659.43C3091.78 1646.86 3113.23 1630.19 3143.06 1622.19 3172.89 1614.2 3199.8 1617.91 3203.17 1630.49 3206.54 1643.06 3185.09 1659.73 3155.26 1667.72 3125.43 1675.72 3098.52 1672 3095.15 1659.43Z" stroke="#BFBFBF" stroke-width="4.58333" stroke-miterlimit="8" stroke-dasharray="18.3333 13.75" fill="none" fill-rule="evenodd"/><path d="M3233 1669.5C3220.02 1669.5 3209.5 1644.43 3209.5 1613.5 3209.5 1582.57 3220.02 1557.5 3233 1557.5 3245.98 1557.5 3256.5 1582.57 3256.5 1613.5 3256.5 1644.43 3245.98 1669.5 3233 1669.5Z" stroke="#BFBFBF" stroke-width="4.58333" stroke-miterlimit="8" stroke-dasharray="18.3333 13.75" fill="none" fill-rule="evenodd"/><path d="M3152.03 1570.01C3146.54 1564.52 3152.65 1549.53 3165.66 1536.51 3178.67 1523.5 3193.67 1517.4 3199.16 1522.88 3204.64 1528.37 3198.54 1543.36 3185.52 1556.38 3172.51 1569.39 3157.51 1575.49 3152.03 1570.01Z" stroke="#BFBFBF" stroke-width="4.58333" stroke-miterlimit="8" stroke-dasharray="18.3333 13.75" fill="none" fill-rule="evenodd"/><path d="M3060.79 1641.34C3052.97 1636.16 3056.58 1616.91 3068.87 1598.34 3081.16 1579.77 3097.46 1568.92 3105.29 1574.1 3113.12 1579.28 3109.5 1598.53 3097.21 1617.1 3084.93 1635.67 3068.62 1646.52 3060.79 1641.34Z" stroke="#BFBFBF" stroke-width="4.58333" stroke-miterlimit="8" stroke-dasharray="18.3333 13.75" fill="none" fill-rule="evenodd"/><path d="M0 23.569C-7.11894e-15 10.5522 25.0347-3.00065e-15 55.9167-6.00129e-15 86.7986-1.20026e-14 111.833 10.5522 111.833 23.569 111.833 36.5858 86.7986 47.138 55.9167 47.138 25.0347 47.138-3.55947e-14 36.5858 0 23.569Z" stroke="#BFBFBF" stroke-width="4.58333" stroke-miterlimit="8" stroke-dasharray="18.3333 13.75" fill="none" fill-rule="evenodd" transform="matrix(0.965926 0.258819 0.258819 -0.965926 3089.05 1745.47)"/><path d="M0 23.4999C-7.12955e-15 10.5212 25.0721-2.99185e-15 56-5.98369e-15 86.928-1.19674e-14 112 10.5212 112 23.4999 112 36.4785 86.928 46.9997 56 46.9997 25.0721 46.9997-3.56478e-14 36.4785 0 23.4999Z" stroke="#BFBFBF" stroke-width="4.58333" stroke-miterlimit="8" stroke-dasharray="18.3333 13.75" fill="none" fill-rule="evenodd" transform="matrix(6.12323e-17 1 1 -6.12323e-17 3209.5 1713.5)"/><path d="M0 14.0458C-4.24246e-15 6.2885 14.9192-1.78821e-15 33.323-3.57642e-15 51.7268-7.15285e-15 66.646 6.2885 66.646 14.0458 66.646 21.803 51.7268 28.0915 33.323 28.0915 14.9192 28.0915-2.12123e-14 21.803 0 14.0458Z" stroke="#BFBFBF" stroke-width="4.58333" stroke-miterlimit="8" stroke-dasharray="18.3333 13.75" fill="none" fill-rule="evenodd" transform="matrix(0.707107 0.707107 0.707107 -0.707107 3142.1 1822.06)"/><path d="M0 16.9941C-5.13297e-15 7.6085 18.0508-2.16357e-15 40.3176-4.32714e-15 62.5844-8.65428e-15 80.6353 7.6085 80.6353 16.9941 80.6353 26.3796 62.5844 33.9881 40.3176 33.9881 18.0508 33.9881-2.56649e-14 26.3796 0 16.9941Z" stroke="#BFBFBF" stroke-width="4.58333" stroke-miterlimit="8" stroke-dasharray="18.3333 13.75" fill="none" fill-rule="evenodd" transform="matrix(0.551846 0.833946 0.833946 -0.551846 3046.62 1750.17)"/><path d="M0 23.569C-7.11894e-15 10.5522 25.0347-3.00065e-15 55.9167-6.00129e-15 86.7986-1.20026e-14 111.833 10.5522 111.833 23.569 111.833 36.5858 86.7986 47.138 55.9167 47.138 25.0347 47.138-3.55947e-14 36.5858 0 23.569Z" stroke="#BFBFBF" stroke-width="4.58333" stroke-miterlimit="8" stroke-dasharray="18.3333 13.75" fill="none" fill-rule="evenodd" transform="matrix(-0.965926 -0.258819 -0.258819 0.965926 3439.08 1636.67)"/><path d="M0 23.5C-7.12955e-15 10.5213 25.0721-2.99187e-15 56-5.98374e-15 86.928-1.19675e-14 112 10.5213 112 23.5 112 36.4788 86.928 47.0001 56 47.0001 25.0721 47.0001-3.56478e-14 36.4788 0 23.5Z" stroke="#BFBFBF" stroke-width="4.58333" stroke-miterlimit="8" stroke-dasharray="18.3333 13.75" fill="none" fill-rule="evenodd" transform="matrix(-6.12323e-17 -1 -1 6.12323e-17 3319.5 1669.5)"/><path d="M0 14.0458C-4.24246e-15 6.2885 14.9192-1.78821e-15 33.323-3.57642e-15 51.7268-7.15285e-15 66.646 6.2885 66.646 14.0458 66.646 21.803 51.7268 28.0915 33.323 28.0915 14.9192 28.0915-2.12123e-14 21.803 0 14.0458Z" stroke="#BFBFBF" stroke-width="4.58333" stroke-miterlimit="8" stroke-dasharray="18.3333 13.75" fill="none" fill-rule="evenodd" transform="matrix(-0.707107 -0.707107 -0.707107 0.707107 3386.03 1560.08)"/><path d="M0 16.9941C-5.13297e-15 7.6085 18.0508-2.16357e-15 40.3176-4.32714e-15 62.5844-8.65428e-15 80.6353 7.6085 80.6353 16.9941 80.6353 26.3796 62.5844 33.9881 40.3176 33.9881 18.0508 33.9881-2.56649e-14 26.3796 0 16.9941Z" stroke="#BFBFBF" stroke-width="4.58333" stroke-miterlimit="8" stroke-dasharray="18.3333 13.75" fill="none" fill-rule="evenodd" transform="matrix(-0.551846 -0.833946 -0.833946 0.551846 3481.51 1631.96)"/><path d="M3432.98 1722.71C3436.34 1735.28 3414.89 1751.95 3385.06 1759.95 3355.23 1767.94 3328.32 1764.23 3324.95 1751.65 3321.58 1739.08 3343.03 1722.41 3372.86 1714.41 3402.69 1706.42 3429.61 1710.13 3432.98 1722.71Z" stroke="#BFBFBF" stroke-width="4.58333" stroke-miterlimit="8" stroke-dasharray="18.3333 13.75" fill="none" fill-rule="evenodd"/><path d="M3296 1713.5C3308.98 1713.5 3319.5 1738.57 3319.5 1769.5 3319.5 1800.43 3308.98 1825.5 3296 1825.5 3283.02 1825.5 3272.5 1800.43 3272.5 1769.5 3272.5 1738.57 3283.02 1713.5 3296 1713.5Z" stroke="#BFBFBF" stroke-width="4.58333" stroke-miterlimit="8" stroke-dasharray="18.3333 13.75" fill="none" fill-rule="evenodd"/><path d="M3376.1 1812.13C3381.58 1817.61 3375.48 1832.61 3362.47 1845.62 3349.45 1858.64 3334.46 1864.74 3328.97 1859.26 3323.49 1853.77 3329.59 1838.77 3342.6 1825.76 3355.62 1812.75 3370.61 1806.64 3376.1 1812.13Z" stroke="#BFBFBF" stroke-width="4.58333" stroke-miterlimit="8" stroke-dasharray="18.3333 13.75" fill="none" fill-rule="evenodd"/><path d="M3467.33 1740.8C3475.16 1745.98 3471.54 1765.23 3459.26 1783.8 3446.97 1802.37 3430.66 1813.22 3422.83 1808.04 3415.01 1802.86 3418.62 1783.61 3430.91 1765.04 3443.2 1746.47 3459.51 1735.62 3467.33 1740.8Z" stroke="#BFBFBF" stroke-width="4.58333" stroke-miterlimit="8" stroke-dasharray="18.3333 13.75" fill="none" fill-rule="evenodd"/></g></svg>