<svg width="2216" height="2065" xmlns="http://www.w3.org/2000/svg" xmlns:xlink="http://www.w3.org/1999/xlink" xml:space="preserve" overflow="hidden"><g transform="translate(-1090 -204)"><path d="M2131.92 1331.51C2135.81 1382.43 2063.28 1378.36 2035.98 1359.25 1968.28 1311.84 1985.81 1211.65 2038.27 1160.49 2125.23 1075.67 2266.88 1105.05 2339.62 1192.8 2442.83 1317.28 2400.66 1503.55 2277.34 1597.08 2116.11 1719.35 1884.41 1663.96 1770.56 1504.75 1629.06 1306.86 1697.79 1029.04 1892.84 894.921 2127.02 733.893 2450.91 816.126 2605.04 1047.3 2785.52 1317.94 2689.81 1688.4 2422.76 1862.65 2115.96 2062.82 1699.27 1953.52 1505.13 1650.25 1285.42 1307.01 1408.25 843.55 1747.42 629.356 2126.71 389.838 2636.48 526.334 2870.47 901.796 3129.55 1317.51 2979.52 1874.19 2568.18 2128.21 2116.47 2407.15 1513.49 2243.43 1239.71 1795.75 941.19 1307.58 1118.44 657.596 1602 363.79 2126.09 45.3585 2822.38 236.343 3135.89 756.297 3368.19 1141.55 3353.37 1637.64 3108.7 2013.4" stroke="#A6A6A6" stroke-width="6.875" stroke-miterlimit="8" stroke-dasharray="27.5 20.625" fill="none" fill-rule="evenodd"/></g></svg>