<svg width="345" height="256" xmlns="http://www.w3.org/2000/svg" xmlns:xlink="http://www.w3.org/1999/xlink" xml:space="preserve" overflow="hidden"><defs><clipPath id="clip0"><rect x="2595" y="869" width="345" height="256"/></clipPath></defs><g clip-path="url(#clip0)" transform="translate(-2595 -869)"><path d="M2598 1107C2598 1097.06 2673.66 1089 2767 1089 2860.34 1089 2936 1097.06 2936 1107 2936 1116.94 2860.34 1125 2767 1125 2673.66 1125 2598 1116.94 2598 1107Z" fill="#D2E6EF" fill-rule="evenodd"/><path d="M2598.5 897.205C2598.5 883.561 2609.56 872.5 2623.21 872.5L2911.79 872.5C2925.44 872.5 2936.5 883.561 2936.5 897.205L2936.5 1078.79C2936.5 1092.44 2925.44 1103.5 2911.79 1103.5L2623.21 1103.5C2609.56 1103.5 2598.5 1092.44 2598.5 1078.79Z" stroke="#4B545D" stroke-width="6.875" stroke-miterlimit="8" fill="#FFFFFF" fill-rule="evenodd"/><path d="M2620.5 912.034C2620.5 900.693 2629.69 891.5 2641.03 891.5L2893.97 891.5C2905.31 891.5 2914.5 900.693 2914.5 912.034L2914.5 1062.97C2914.5 1074.31 2905.31 1083.5 2893.97 1083.5L2641.03 1083.5C2629.69 1083.5 2620.5 1074.31 2620.5 1062.97Z" stroke="#4B545D" stroke-width="6.875" stroke-miterlimit="8" fill="#FFFFFF" fill-rule="evenodd"/><path d="M2743.5 1093.5 2792.08 1093.5" stroke="#4B545D" stroke-width="6.875" stroke-linecap="round" stroke-miterlimit="8" fill="none" fill-rule="evenodd"/><path d="M2762.5 882.5 2772.81 882.5" stroke="#5ABF89" stroke-width="6.875" stroke-linecap="round" stroke-miterlimit="8" fill="none" fill-rule="evenodd"/><path d="M2711 1026.5C2711 1021.81 2714.81 1018 2719.5 1018L2753.5 1018C2758.19 1018 2762 1021.81 2762 1026.5L2762 1060.5C2762 1065.19 2758.19 1069 2753.5 1069L2719.5 1069C2714.81 1069 2711 1065.19 2711 1060.5Z" fill="#5ABF89" fill-rule="evenodd"/><path d="M2639 1026.5C2639 1021.81 2642.81 1018 2647.5 1018L2681.5 1018C2686.19 1018 2690 1021.81 2690 1026.5L2690 1060.5C2690 1065.19 2686.19 1069 2681.5 1069L2647.5 1069C2642.81 1069 2639 1065.19 2639 1060.5Z" fill="#D2E6EF" fill-rule="evenodd"/><path d="M2639 959.5C2639 954.806 2642.81 951 2647.5 951L2681.5 951C2686.19 951 2690 954.806 2690 959.5L2690 993.5C2690 998.194 2686.19 1002 2681.5 1002L2647.5 1002C2642.81 1002 2639 998.194 2639 993.5Z" fill="#5ABF89" fill-rule="evenodd"/><path d="M2709 958.5C2709 953.806 2712.81 950 2717.5 950L2751.5 950C2756.19 950 2760 953.806 2760 958.5L2760 992.5C2760 997.194 2756.19 1001 2751.5 1001L2717.5 1001C2712.81 1001 2709 997.194 2709 992.5Z" fill="#D2E6EF" fill-rule="evenodd"/><path d="M2850 1026.5C2850 1021.81 2853.81 1018 2858.5 1018L2892.5 1018C2897.19 1018 2901 1021.81 2901 1026.5L2901 1060.5C2901 1065.19 2897.19 1069 2892.5 1069L2858.5 1069C2853.81 1069 2850 1065.19 2850 1060.5Z" fill="#D2E6EF" fill-rule="evenodd"/><path d="M2778 1026.5C2778 1021.81 2781.81 1018 2786.5 1018L2820.5 1018C2825.19 1018 2829 1021.81 2829 1026.5L2829 1060.5C2829 1065.19 2825.19 1069 2820.5 1069L2786.5 1069C2781.81 1069 2778 1065.19 2778 1060.5Z" fill="#D2E6EF" fill-rule="evenodd"/><path d="M2778 959.5C2778 954.806 2781.81 951 2786.5 951L2820.5 951C2825.19 951 2829 954.806 2829 959.5L2829 993.5C2829 998.195 2825.19 1002 2820.5 1002L2786.5 1002C2781.81 1002 2778 998.195 2778 993.5Z" fill="#D2E6EF" fill-rule="evenodd"/><path d="M2848 958.5C2848 953.806 2851.81 950 2856.5 950L2890.5 950C2895.19 950 2899 953.806 2899 958.5L2899 992.5C2899 997.194 2895.19 1001 2890.5 1001L2856.5 1001C2851.81 1001 2848 997.194 2848 992.5Z" fill="#5ABF89" fill-rule="evenodd"/><path d="M2688.07 902C2689.63 902 2690.99 902.195 2692.16 902.587 2693.34 902.978 2694.32 903.531 2695.1 904.246 2695.89 904.961 2696.48 905.816 2696.86 906.811 2697.25 907.807 2697.45 908.909 2697.45 910.117 2697.45 911.155 2697.31 912.121 2697.03 913.014 2696.76 913.908 2696.35 914.699 2695.82 915.388 2695.28 916.077 2694.62 916.664 2693.85 917.149 2693.07 917.634 2692.17 917.97 2691.15 918.158L2691.15 918.209C2692.31 918.328 2693.37 918.613 2694.33 919.064 2695.28 919.515 2696.11 920.081 2696.8 920.761 2697.49 921.442 2698.03 922.237 2698.42 923.148 2698.81 924.058 2699 925.032 2699 926.07 2699 927.585 2698.73 928.951 2698.2 930.167 2697.66 931.384 2696.89 932.426 2695.89 933.294 2694.89 934.162 2693.66 934.83 2692.19 935.298 2690.72 935.766 2689.07 936 2687.22 936 2686.1 936 2685.05 935.911 2684.07 935.732 2683.1 935.553 2682.23 935.341 2681.47 935.094 2680.71 934.847 2680.08 934.592 2679.58 934.328 2679.08 934.064 2678.76 933.873 2678.63 933.754 2678.51 933.635 2678.41 933.515 2678.34 933.396 2678.27 933.277 2678.21 933.133 2678.16 932.962 2678.1 932.792 2678.06 932.584 2678.04 932.337 2678.01 932.09 2678 931.788 2678 931.431 2678 930.818 2678.06 930.393 2678.19 930.155 2678.31 929.916 2678.49 929.797 2678.72 929.797 2678.88 929.797 2679.19 929.933 2679.66 930.206 2680.13 930.478 2680.73 930.771 2681.47 931.086 2682.2 931.401 2683.06 931.695 2684.04 931.967 2685.03 932.239 2686.12 932.375 2687.32 932.375 2688.49 932.375 2689.52 932.231 2690.41 931.941 2691.29 931.652 2692.03 931.244 2692.64 930.716 2693.24 930.189 2693.69 929.563 2693.99 928.84 2694.29 928.117 2694.44 927.33 2694.44 926.479 2694.44 925.543 2694.25 924.701 2693.87 923.952 2693.48 923.203 2692.92 922.557 2692.18 922.012 2691.44 921.467 2690.53 921.05 2689.46 920.761 2688.38 920.472 2687.15 920.327 2685.78 920.327L2682.49 920.327C2682.35 920.327 2682.21 920.297 2682.07 920.238 2681.94 920.178 2681.82 920.081 2681.73 919.944 2681.63 919.808 2681.55 919.63 2681.49 919.408 2681.42 919.187 2681.39 918.898 2681.39 918.54 2681.39 918.217 2681.42 917.949 2681.47 917.736 2681.52 917.524 2681.6 917.354 2681.69 917.226 2681.78 917.098 2681.89 917.005 2682.01 916.945 2682.13 916.885 2682.27 916.856 2682.43 916.856L2685.35 916.856C2686.49 916.856 2687.52 916.711 2688.42 916.422 2689.33 916.132 2690.1 915.716 2690.73 915.171 2691.36 914.627 2691.84 913.976 2692.18 913.218 2692.51 912.461 2692.68 911.615 2692.68 910.679 2692.68 909.998 2692.57 909.347 2692.35 908.726 2692.12 908.105 2691.78 907.565 2691.34 907.105 2690.89 906.646 2690.31 906.284 2689.61 906.02 2688.91 905.756 2688.11 905.625 2687.19 905.625 2686.19 905.625 2685.27 905.773 2684.43 906.071 2683.6 906.369 2682.85 906.688 2682.2 907.028 2681.54 907.369 2681 907.688 2680.56 907.986 2680.13 908.283 2679.83 908.432 2679.66 908.432 2679.54 908.432 2679.43 908.411 2679.33 908.369 2679.24 908.326 2679.16 908.241 2679.1 908.113 2679.04 907.986 2679 907.807 2678.97 907.577 2678.95 907.347 2678.93 907.045 2678.93 906.671 2678.93 906.416 2678.94 906.19 2678.96 905.995 2678.98 905.799 2679.01 905.629 2679.06 905.484 2679.11 905.339 2679.17 905.208 2679.24 905.089 2679.31 904.969 2679.43 904.829 2679.59 904.667 2679.76 904.506 2680.09 904.272 2680.59 903.965 2681.09 903.659 2681.71 903.357 2682.44 903.059 2683.17 902.762 2684.02 902.51 2684.98 902.306 2685.94 902.102 2686.97 902 2688.07 902Z" fill="#5ABF89" fill-rule="evenodd"/><path d="M2715.82 902C2717.93 902 2719.7 902.37 2721.13 903.11 2722.56 903.85 2723.71 904.94 2724.58 906.378 2725.46 907.816 2726.08 909.585 2726.45 911.687 2726.82 913.789 2727 916.201 2727 918.923 2727 921.459 2726.8 923.773 2726.4 925.866 2725.99 927.959 2725.33 929.759 2724.39 931.265 2723.46 932.771 2722.24 933.937 2720.73 934.762 2719.22 935.587 2717.36 936 2715.15 936 2713.06 936 2711.3 935.63 2709.87 934.89 2708.44 934.149 2707.29 933.06 2706.42 931.622 2705.54 930.184 2704.92 928.415 2704.55 926.313 2704.18 924.212 2704 921.799 2704 919.077 2704 916.558 2704.21 914.248 2704.62 912.146 2705.03 910.045 2705.7 908.241 2706.62 906.735 2707.55 905.229 2708.76 904.063 2710.27 903.238 2711.78 902.413 2713.63 902 2715.82 902ZM2715.56 905.599C2714.11 905.599 2712.93 905.939 2712.02 906.62 2711.11 907.301 2710.39 908.237 2709.87 909.428 2709.35 910.619 2708.99 912.014 2708.81 913.614 2708.62 915.214 2708.52 916.932 2708.52 918.77 2708.52 921.238 2708.65 923.335 2708.91 925.062 2709.17 926.789 2709.57 928.198 2710.13 929.287 2710.69 930.376 2711.4 931.167 2712.26 931.661 2713.13 932.154 2714.18 932.401 2715.41 932.401 2716.37 932.401 2717.21 932.248 2717.94 931.941 2718.67 931.635 2719.29 931.197 2719.82 930.627 2720.34 930.057 2720.77 929.372 2721.12 928.572 2721.46 927.772 2721.73 926.887 2721.94 925.917 2722.14 924.947 2722.28 923.897 2722.36 922.765 2722.44 921.633 2722.48 920.455 2722.48 919.23 2722.48 917.579 2722.42 916.099 2722.3 914.788 2722.18 913.478 2722 912.321 2721.77 911.317 2721.54 910.313 2721.24 909.449 2720.87 908.726 2720.5 908.003 2720.06 907.407 2719.55 906.939 2719.03 906.471 2718.45 906.131 2717.79 905.918 2717.13 905.705 2716.39 905.599 2715.56 905.599Z" fill="#5ABF89" fill-rule="evenodd"/><path d="M2638.99 902 2658.64 902C2658.89 902 2659.1 902.026 2659.28 902.078 2659.47 902.131 2659.6 902.235 2659.7 902.392 2659.8 902.549 2659.87 902.75 2659.92 902.994 2659.97 903.238 2660 903.552 2660 903.935 2660 904.249 2659.99 904.533 2659.96 904.785 2659.93 905.038 2659.9 905.282 2659.86 905.518 2659.81 905.753 2659.75 905.98 2659.67 906.198 2659.6 906.416 2659.5 906.647 2659.4 906.891L2647.25 934.98C2647.17 935.189 2647.06 935.359 2646.93 935.49 2646.8 935.621 2646.63 935.725 2646.43 935.804 2646.23 935.882 2645.98 935.935 2645.66 935.961 2645.35 935.987 2644.97 936 2644.52 936 2643.93 936 2643.47 935.974 2643.14 935.922 2642.8 935.869 2642.57 935.786 2642.42 935.673 2642.27 935.56 2642.21 935.42 2642.22 935.255 2642.24 935.089 2642.3 934.893 2642.41 934.666L2655.18 905.949 2638.99 905.949C2638.66 905.949 2638.41 905.775 2638.25 905.426 2638.08 905.077 2638 904.589 2638 903.962 2638 903.63 2638.02 903.343 2638.07 903.098 2638.11 902.855 2638.17 902.649 2638.26 902.484 2638.35 902.318 2638.45 902.196 2638.57 902.118 2638.7 902.039 2638.83 902 2638.99 902Z" fill="#5ABF89" fill-rule="evenodd"/><path d="M2669.5 912C2669.99 912 2670.4 912.047 2670.71 912.143 2671.03 912.238 2671.29 912.403 2671.49 912.636 2671.69 912.87 2671.82 913.182 2671.89 913.571 2671.96 913.961 2672 914.45 2672 915.039 2672 915.593 2671.96 916.061 2671.89 916.442 2671.82 916.823 2671.69 917.13 2671.49 917.364 2671.29 917.598 2671.03 917.762 2670.71 917.857 2670.4 917.952 2669.99 918 2669.5 918 2668.99 918 2668.58 917.952 2668.26 917.857 2667.94 917.762 2667.69 917.598 2667.5 917.364 2667.31 917.13 2667.18 916.823 2667.11 916.442 2667.04 916.061 2667 915.593 2667 915.039 2667 914.45 2667.04 913.961 2667.11 913.571 2667.18 913.182 2667.31 912.87 2667.5 912.636 2667.69 912.403 2667.94 912.238 2668.26 912.143 2668.58 912.047 2668.99 912 2669.5 912Z" fill="#5ABF89" fill-rule="evenodd"/><path d="M2669.5 930C2669.99 930 2670.4 930.052 2670.71 930.156 2671.03 930.26 2671.29 930.424 2671.49 930.649 2671.69 930.874 2671.82 931.182 2671.89 931.571 2671.96 931.961 2672 932.442 2672 933.013 2672 933.584 2671.96 934.06 2671.89 934.441 2671.82 934.822 2671.69 935.13 2671.49 935.364 2671.29 935.597 2671.03 935.762 2670.71 935.857 2670.4 935.952 2669.99 936 2669.5 936 2668.99 936 2668.58 935.952 2668.26 935.857 2667.94 935.762 2667.69 935.597 2667.5 935.364 2667.31 935.13 2667.18 934.822 2667.11 934.441 2667.04 934.06 2667 933.584 2667 933.013 2667 932.442 2667.04 931.961 2667.11 931.571 2667.18 931.182 2667.31 930.874 2667.5 930.649 2667.69 930.424 2667.94 930.26 2668.26 930.156 2668.58 930.052 2668.99 930 2669.5 930Z" fill="#5ABF89" fill-rule="evenodd"/><g><g><g><path d="M2877.16 936.578C2877.16 939.137 2875.12 941.172 2872.57 941.172 2870.01 941.172 2867.97 939.137 2867.97 936.578 2867.97 934.019 2872.57 927.391 2872.57 927.391 2872.57 927.391 2877.16 934.084 2877.16 936.578Z" fill="#D2E6EF"/><path d="M2887 933.953C2887 935.79 2885.56 937.234 2883.72 937.234 2881.88 937.234 2880.44 935.79 2880.44 933.953 2880.44 932.115 2883.72 927.391 2883.72 927.391 2883.72 927.391 2887 932.181 2887 933.953Z" fill="#D2E6EF"/><path d="M2864.69 933.953C2864.69 935.79 2863.25 937.234 2861.41 937.234 2859.57 937.234 2858.13 935.79 2858.13 933.953 2858.13 932.115 2861.41 927.391 2861.41 927.391 2861.41 927.391 2864.69 932.181 2864.69 933.953Z" fill="#D2E6EF"/><path d="M2894.88 918.531C2894.88 916.694 2894.09 914.987 2892.71 913.806 2891.33 912.625 2889.5 912.1 2887.66 912.428L2887.66 912.362C2887.66 909.869 2886.48 907.441 2884.38 905.997 2882.34 904.487 2879.72 904.094 2877.29 904.881 2875.26 901.075 2870.86 899.106 2866.66 900.156 2862.46 901.141 2859.44 904.881 2859.38 909.212 2856.49 908.687 2853.53 909.803 2851.76 912.1 2849.93 914.397 2849.53 917.481 2850.71 920.172 2851.89 922.862 2854.45 924.634 2857.41 924.831L2888.91 924.831C2892.32 924.634 2894.88 921.878 2894.88 918.531Z" fill="#D2E6EF"/></g></g></g></g></svg>