<svg width="253" height="324" xmlns="http://www.w3.org/2000/svg" xmlns:xlink="http://www.w3.org/1999/xlink" xml:space="preserve" overflow="hidden"><g transform="translate(-1973 -882)"><path d="M1993 1188.5C1993 1178.84 2040.46 1171 2099 1171 2157.54 1171 2205 1178.84 2205 1188.5 2205 1198.16 2157.54 1206 2099 1206 2040.46 1206 1993 1198.16 1993 1188.5Z" fill="#D2E6EF" fill-rule="evenodd"/><path d="M2093.81 1012.51 2109.73 1012.51C2111.93 1012.51 2113.71 1014.29 2113.71 1016.48L2113.71 1058.56 2111.25 1061.02 2092.29 1061.02 2089.83 1058.56 2089.83 1016.48C2089.83 1014.29 2091.61 1012.51 2093.81 1012.51Z" stroke="#4B545D" stroke-width="6.875" stroke-miterlimit="8" fill="#FFFFFF" fill-rule="evenodd"/><path d="M2109.06 1092.03 2145.99 1092.03 2195.08 1177.05C2196.74 1179.92 2195.75 1183.6 2192.88 1185.26L2172.06 1197.28C2169.18 1198.94 2165.5 1197.95 2163.84 1195.08L2107.56 1097.6ZM2098.66 1092.03 2100.15 1097.6 2043.87 1195.08C2042.21 1197.95 2038.54 1198.94 2035.66 1197.28L2014.84 1185.26C2011.97 1183.6 2010.98 1179.92 2012.64 1177.05L2061.73 1092.03Z" stroke="#4B545D" stroke-width="6.875" stroke-miterlimit="8" fill="#FFFFFF" fill-rule="evenodd"/><path d="M1976.5 907.001C1976.5 895.126 1986.13 885.5 1998 885.5L2201 885.5C2212.87 885.5 2222.5 895.126 2222.5 907.001L2222.5 992.999C2222.5 1004.87 2212.87 1014.5 2201 1014.5L1998 1014.5C1986.13 1014.5 1976.5 1004.87 1976.5 992.999Z" stroke="#4B545D" stroke-width="6.875" stroke-miterlimit="8" fill="#FFFFFF" fill-rule="evenodd"/><path d="M2052.5 949.5C2052.5 921.886 2074.89 899.5 2102.5 899.5 2130.11 899.5 2152.5 921.886 2152.5 949.5 2152.5 977.114 2130.11 999.5 2102.5 999.5 2074.89 999.5 2052.5 977.114 2052.5 949.5Z" stroke="#4B545D" stroke-width="6.875" stroke-miterlimit="8" fill="#FFFFFF" fill-rule="evenodd"/><path d="M2010.5 917.5C2010.5 908.664 2017.66 901.5 2026.5 901.5 2035.34 901.5 2042.5 908.664 2042.5 917.5 2042.5 926.337 2035.34 933.5 2026.5 933.5 2017.66 933.5 2010.5 926.337 2010.5 917.5Z" stroke="#4B545D" stroke-width="6.875" stroke-miterlimit="8" fill="#5ABF89" fill-rule="evenodd"/><path d="M2046.5 1063.33C2046.5 1060.11 2049.11 1057.5 2052.33 1057.5L2151.67 1057.5C2154.89 1057.5 2157.5 1060.11 2157.5 1063.33L2157.5 1086.67C2157.5 1089.89 2154.89 1092.5 2151.67 1092.5L2052.33 1092.5C2049.11 1092.5 2046.5 1089.89 2046.5 1086.67Z" stroke="#4B545D" stroke-width="6.875" stroke-miterlimit="8" fill="#5ABF89" fill-rule="evenodd"/><path d="M2129.63 920.845C2144.97 936.182 2144.97 961.048 2129.63 976.385 2114.29 991.723 2089.43 991.722 2074.09 976.385 2100.93 980.22 2125.8 961.57 2129.63 934.73 2130.29 930.125 2130.29 925.45 2129.63 920.845Z" fill="#D2E6EF" fill-rule="evenodd"/></g></svg>